<mxfile host="Electron" agent="Mozilla/5.0 (Windows NT 10.0; Win64; x64) AppleWebKit/537.36 (KHTML, like Gecko) draw.io/28.0.4 Chrome/138.0.7204.97 Electron/37.2.1 Safari/537.36" version="28.0.4">
  <diagram name="Page-1" id="0eKntEbB3LItoSgAypUN">
    <mxGraphModel dx="1173" dy="678" grid="1" gridSize="10" guides="1" tooltips="1" connect="1" arrows="1" fold="1" page="1" pageScale="1" pageWidth="827" pageHeight="1169" math="0" shadow="0">
      <root>
        <mxCell id="0" />
        <mxCell id="1" parent="0" />
        <mxCell id="TJ1niBv9A0Y08c_3gPOE-32" value="&lt;div&gt;&lt;br&gt;&lt;/div&gt;&lt;div&gt;&lt;br&gt;&lt;/div&gt;" style="rounded=0;whiteSpace=wrap;html=1;fillColor=none;dashed=1;strokeColor=#666666;" parent="1" vertex="1">
          <mxGeometry x="171" y="160" width="490" height="410" as="geometry" />
        </mxCell>
        <mxCell id="TJ1niBv9A0Y08c_3gPOE-3" value="" style="rounded=0;whiteSpace=wrap;html=1;fillColor=none;dashed=1;strokeColor=#666666;fontColor=#333333;" parent="1" vertex="1">
          <mxGeometry x="20" y="160" width="120" height="410" as="geometry" />
        </mxCell>
        <mxCell id="TJ1niBv9A0Y08c_3gPOE-1" value="&lt;b&gt;&lt;font style=&quot;font-size: 40px;&quot;&gt;High Level Architecture&lt;/font&gt;&lt;/b&gt;" style="text;whiteSpace=wrap;html=1;fontSize=25;" parent="1" vertex="1">
          <mxGeometry x="200" y="40" width="484.5" height="40" as="geometry" />
        </mxCell>
        <mxCell id="TJ1niBv9A0Y08c_3gPOE-5" value="&lt;b&gt;Sources&lt;/b&gt;" style="whiteSpace=wrap;html=1;fillColor=default;strokeColor=none;" parent="1" vertex="1">
          <mxGeometry x="50" y="150" width="60" height="20" as="geometry" />
        </mxCell>
        <mxCell id="TJ1niBv9A0Y08c_3gPOE-8" value="" style="rounded=0;whiteSpace=wrap;html=1;fillColor=none;dashed=1;strokeColor=#666666;" parent="1" vertex="1">
          <mxGeometry x="690" y="160" width="120" height="410" as="geometry" />
        </mxCell>
        <mxCell id="TJ1niBv9A0Y08c_3gPOE-9" value="&lt;b&gt;Consume&lt;/b&gt;" style="whiteSpace=wrap;html=1;fillColor=default;strokeColor=none;" parent="1" vertex="1">
          <mxGeometry x="720" y="150" width="60" height="20" as="geometry" />
        </mxCell>
        <mxCell id="TJ1niBv9A0Y08c_3gPOE-10" value="&lt;font style=&quot;font-size: 10px;&quot;&gt;&lt;b&gt;Bronze Layer&lt;/b&gt;&lt;/font&gt;" style="rounded=0;whiteSpace=wrap;html=1;fillColor=#ffe6cc;strokeColor=#d79b00;" parent="1" vertex="1">
          <mxGeometry x="200" y="179.42" width="130" height="30" as="geometry" />
        </mxCell>
        <mxCell id="TJ1niBv9A0Y08c_3gPOE-11" value="" style="rounded=0;whiteSpace=wrap;html=1;fillColor=none;strokeColor=#d79b00;" parent="1" vertex="1">
          <mxGeometry x="200" y="215" width="129" height="335" as="geometry" />
        </mxCell>
        <mxCell id="TJ1niBv9A0Y08c_3gPOE-12" value="" style="rounded=0;html=1;fillColor=none;strokeColor=#666666;fontColor=#333333;" parent="1" vertex="1">
          <mxGeometry x="351" y="215" width="130" height="335" as="geometry" />
        </mxCell>
        <mxCell id="TJ1niBv9A0Y08c_3gPOE-13" value="" style="rounded=0;whiteSpace=wrap;html=1;fillColor=none;strokeColor=#d6b656;" parent="1" vertex="1">
          <mxGeometry x="500" y="215" width="130" height="335" as="geometry" />
        </mxCell>
        <mxCell id="TJ1niBv9A0Y08c_3gPOE-14" value="&lt;font style=&quot;font-size: 10px;&quot;&gt;&lt;b&gt;Silver Layer&lt;/b&gt;&lt;/font&gt;" style="rounded=0;whiteSpace=wrap;html=1;fillColor=#f5f5f5;strokeColor=#666666;fontColor=#333333;" parent="1" vertex="1">
          <mxGeometry x="351" y="179.42" width="130" height="30" as="geometry" />
        </mxCell>
        <mxCell id="TJ1niBv9A0Y08c_3gPOE-15" value="&lt;font style=&quot;font-size: 10px;&quot;&gt;&lt;b&gt;Gold Layer&lt;/b&gt;&lt;/font&gt;" style="rounded=0;whiteSpace=wrap;html=1;fillColor=#fff2cc;strokeColor=#d6b656;" parent="1" vertex="1">
          <mxGeometry x="500" y="179.42" width="130" height="30" as="geometry" />
        </mxCell>
        <mxCell id="TJ1niBv9A0Y08c_3gPOE-17" value="&lt;b&gt;CRM&lt;/b&gt;" style="image;aspect=fixed;html=1;points=[];align=center;fontSize=12;image=img/lib/azure2/general/Folder_Blank.svg;" parent="1" vertex="1">
          <mxGeometry x="50" y="179.42000000000002" width="50" height="40.58" as="geometry" />
        </mxCell>
        <mxCell id="TJ1niBv9A0Y08c_3gPOE-20" value="" style="image;aspect=fixed;html=1;points=[];align=center;fontSize=12;image=img/lib/azure2/general/File.svg;" parent="1" vertex="1">
          <mxGeometry x="82.03" y="200" width="20.29" height="25" as="geometry" />
        </mxCell>
        <mxCell id="TJ1niBv9A0Y08c_3gPOE-21" value="&lt;b&gt;ERP&lt;/b&gt;" style="image;aspect=fixed;html=1;points=[];align=center;fontSize=12;image=img/lib/azure2/general/Folder_Blank.svg;" parent="1" vertex="1">
          <mxGeometry x="50" y="269.41999999999996" width="50" height="40.58" as="geometry" />
        </mxCell>
        <mxCell id="TJ1niBv9A0Y08c_3gPOE-22" value="" style="image;aspect=fixed;html=1;points=[];align=center;fontSize=12;image=img/lib/azure2/general/File.svg;" parent="1" vertex="1">
          <mxGeometry x="82.32" y="290.14000000000004" width="20" height="24.64" as="geometry" />
        </mxCell>
        <mxCell id="TJ1niBv9A0Y08c_3gPOE-41" value="&lt;b&gt;Data Warehouse&lt;/b&gt;" style="whiteSpace=wrap;html=1;fillColor=default;strokeColor=none;" parent="1" vertex="1">
          <mxGeometry x="349" y="150" width="129" height="20" as="geometry" />
        </mxCell>
        <mxCell id="TJ1niBv9A0Y08c_3gPOE-46" value="&lt;font style=&quot;font-size: 11px;&quot;&gt;Raw Data&lt;/font&gt;" style="html=1;verticalLabelPosition=bottom;align=center;labelBackgroundColor=#ffffff;verticalAlign=top;strokeWidth=2;strokeColor=#d79b00;shadow=0;dashed=0;shape=mxgraph.ios7.icons.data;fillColor=#ffe6cc;" parent="1" vertex="1">
          <mxGeometry x="239.5" y="259.99999999999994" width="50" height="50" as="geometry" />
        </mxCell>
        <mxCell id="TJ1niBv9A0Y08c_3gPOE-47" value="&lt;font style=&quot;font-size: 11px;&quot;&gt;Cleaned,&amp;nbsp;&lt;/font&gt;&lt;div&gt;&lt;font style=&quot;font-size: 11px;&quot;&gt;Standardized Data&lt;/font&gt;&lt;/div&gt;" style="html=1;verticalLabelPosition=bottom;align=center;labelBackgroundColor=#ffffff;verticalAlign=top;strokeWidth=2;strokeColor=#666666;shadow=0;dashed=0;shape=mxgraph.ios7.icons.data;fillColor=#f5f5f5;fontColor=#333333;" parent="1" vertex="1">
          <mxGeometry x="391" y="260" width="50" height="50" as="geometry" />
        </mxCell>
        <mxCell id="TJ1niBv9A0Y08c_3gPOE-48" value="&lt;font style=&quot;font-size: 11px;&quot;&gt;Bussiness-Ready Data&lt;/font&gt;" style="html=1;verticalLabelPosition=bottom;align=center;labelBackgroundColor=#ffffff;verticalAlign=top;strokeWidth=2;strokeColor=#d6b656;shadow=0;dashed=0;shape=mxgraph.ios7.icons.data;fillColor=#fff2cc;" parent="1" vertex="1">
          <mxGeometry x="540" y="260" width="50" height="50" as="geometry" />
        </mxCell>
        <mxCell id="TJ1niBv9A0Y08c_3gPOE-62" value="" style="shape=singleArrow;whiteSpace=wrap;html=1;fillColor=#dae8fc;strokeColor=#6c8ebf;" parent="1" vertex="1">
          <mxGeometry x="130" y="290.28999999999996" width="60" height="19.71" as="geometry" />
        </mxCell>
        <mxCell id="TJ1niBv9A0Y08c_3gPOE-80" value="&lt;div style=&quot;&quot;&gt;&lt;div style=&quot;text-align: left; line-height: 50%;&quot;&gt;&lt;p class=&quot;MsoNormal&quot;&gt;&lt;font style=&quot;font-size: 8px; background-color: light-dark(#ffffff, var(--ge-dark-color, #121212));&quot;&gt;&lt;b&gt;Object Type:&lt;/b&gt;&amp;nbsp;Tables&lt;/font&gt;&lt;/p&gt;&lt;p class=&quot;MsoNormal&quot;&gt;&lt;font style=&quot;font-size: 8px;&quot;&gt;&lt;b style=&quot;background-color: light-dark(#ffffff, var(--ge-dark-color, #121212));&quot;&gt;Load:&amp;nbsp;&lt;/b&gt;&lt;/font&gt;&lt;/p&gt;&lt;p class=&quot;MsoNormal&quot;&gt;&lt;font style=&quot;font-size: 8px; line-height: 50%; background-color: light-dark(#ffffff, var(--ge-dark-color, #121212));&quot;&gt;• Batch Processing&lt;/font&gt;&lt;/p&gt;&lt;p class=&quot;MsoNormal&quot;&gt;&lt;font style=&quot;font-size: 8px; line-height: 50%; background-color: light-dark(#ffffff, var(--ge-dark-color, #121212));&quot;&gt;• Full load&lt;/font&gt;&lt;/p&gt;&lt;p class=&quot;MsoNormal&quot;&gt;&lt;font style=&quot;font-size: 8px; line-height: 50%; background-color: light-dark(#ffffff, var(--ge-dark-color, #121212));&quot;&gt;• Truncate &amp;amp; insert&lt;/font&gt;&lt;/p&gt;&lt;p class=&quot;MsoNormal&quot;&gt;&lt;font style=&quot;font-size: 8px; background-color: light-dark(#ffffff, var(--ge-dark-color, #121212));&quot;&gt;No&lt;b&gt;&amp;nbsp;Transformations&lt;/b&gt;&lt;/font&gt;&lt;/p&gt;&lt;p class=&quot;MsoNormal&quot;&gt;&lt;font style=&quot;font-size: 8px; background-color: light-dark(#ffffff, var(--ge-dark-color, #121212));&quot;&gt;&lt;b style=&quot;&quot;&gt;Data Model:&amp;nbsp;&lt;/b&gt;None (as-is)&lt;/font&gt;&lt;/p&gt;&lt;/div&gt;&lt;/div&gt;" style="edgeLabel;html=1;align=center;verticalAlign=middle;resizable=0;points=[];labelBackgroundColor=none;" parent="1" vertex="1" connectable="0">
          <mxGeometry x="265.5" y="430" as="geometry">
            <mxPoint x="2" y="-6" as="offset" />
          </mxGeometry>
        </mxCell>
        <mxCell id="TJ1niBv9A0Y08c_3gPOE-82" value="&lt;div style=&quot;&quot;&gt;&lt;div style=&quot;text-align: left;&quot;&gt;&lt;br&gt;&lt;/div&gt;&lt;/div&gt;" style="edgeLabel;html=1;align=center;verticalAlign=middle;resizable=0;points=[];labelBackgroundColor=none;" parent="1" vertex="1" connectable="0">
          <mxGeometry x="406" y="430" as="geometry">
            <mxPoint x="2" y="-6" as="offset" />
          </mxGeometry>
        </mxCell>
        <mxCell id="TJ1niBv9A0Y08c_3gPOE-89" value="&lt;div&gt;&lt;div&gt;&lt;br&gt;&lt;/div&gt;&lt;/div&gt;" style="edgeLabel;html=1;align=center;verticalAlign=middle;resizable=0;points=[];labelBackgroundColor=none;" parent="1" vertex="1" connectable="0">
          <mxGeometry x="406" y="360" as="geometry">
            <mxPoint x="7" y="8" as="offset" />
          </mxGeometry>
        </mxCell>
        <mxCell id="TJ1niBv9A0Y08c_3gPOE-91" value="&lt;div style=&quot;line-height: 110%; margin-bottom: 11px; padding-bottom: 0px; margin-top: 11px;&quot;&gt;&lt;div style=&quot;text-align: left;&quot;&gt;&lt;font style=&quot;font-size: 8px; line-height: 110%;&quot;&gt;&lt;b&gt;Object Type:&amp;nbsp;&lt;/b&gt;&lt;/font&gt;&lt;span style=&quot;background-color: rgb(255, 255, 255); font-size: 8px; color: light-dark(rgb(0, 0, 0), rgb(255, 255, 255));&quot;&gt;Tables&lt;/span&gt;&lt;/div&gt;&lt;div style=&quot;text-align: left;&quot;&gt;&lt;b style=&quot;background-color: transparent; color: light-dark(rgb(0, 0, 0), rgb(255, 255, 255));&quot;&gt;&lt;font style=&quot;font-size: 8px; line-height: 230%;&quot;&gt;Load:&amp;nbsp;&lt;/font&gt;&lt;/b&gt;&lt;/div&gt;&lt;div style=&quot;text-align: left;&quot;&gt;&lt;font style=&quot;font-size: 8px; line-height: 110%;&quot;&gt;• Batch Processing&lt;/font&gt;&lt;/div&gt;&lt;div style=&quot;text-align: left;&quot;&gt;&lt;font style=&quot;font-size: 8px; line-height: 110%;&quot;&gt;• Full load&lt;/font&gt;&lt;/div&gt;&lt;div style=&quot;text-align: left;&quot;&gt;&lt;font style=&quot;font-size: 8px; line-height: 110%;&quot;&gt;• Truncate &amp;amp; insert&lt;/font&gt;&lt;/div&gt;&lt;div style=&quot;text-align: left;&quot;&gt;&lt;font style=&quot;font-size: 8px; line-height: 110%;&quot;&gt;&lt;br&gt;&lt;/font&gt;&lt;/div&gt;&lt;div style=&quot;text-align: left;&quot;&gt;&lt;b style=&quot;background-color: transparent; color: light-dark(rgb(0, 0, 0), rgb(255, 255, 255)); text-align: center;&quot;&gt;&lt;font style=&quot;font-size: 8px; line-height: 110%;&quot;&gt;Transformations :&lt;/font&gt;&lt;/b&gt;&lt;/div&gt;&lt;div style=&quot;text-align: left;&quot;&gt;&lt;font style=&quot;font-size: 8px; line-height: 110%;&quot;&gt;• Data Cleansing&lt;/font&gt;&lt;/div&gt;&lt;div style=&quot;text-align: left;&quot;&gt;&lt;font style=&quot;font-size: 8px; line-height: 110%;&quot;&gt;• Data Standardization&lt;/font&gt;&lt;/div&gt;&lt;div style=&quot;text-align: left;&quot;&gt;&lt;font style=&quot;font-size: 8px; line-height: 110%;&quot;&gt;• Data Normalization&lt;/font&gt;&lt;/div&gt;&lt;div style=&quot;text-align: left;&quot;&gt;&lt;font style=&quot;font-size: 8px; line-height: 110%;&quot;&gt;• Derived Columns&lt;/font&gt;&lt;/div&gt;&lt;div style=&quot;text-align: left;&quot;&gt;&lt;font style=&quot;font-size: 8px; line-height: 110%;&quot;&gt;• Data Enrichment&lt;/font&gt;&lt;/div&gt;&lt;div&gt;&lt;font style=&quot;font-size: 8px; line-height: 110%;&quot;&gt;&lt;b&gt;Data Model: &lt;/b&gt;None (as-is)&lt;br&gt;&lt;/font&gt;&lt;/div&gt;&lt;/div&gt;&lt;div&gt;&lt;br&gt;&lt;/div&gt;" style="edgeLabel;html=1;align=center;verticalAlign=middle;resizable=0;points=[];labelBackgroundColor=none;" parent="1" vertex="1" connectable="0">
          <mxGeometry x="415" y="460" as="geometry" />
        </mxCell>
        <mxCell id="TJ1niBv9A0Y08c_3gPOE-92" value="&lt;div style=&quot;line-height: 110%; margin-bottom: 11px; padding-bottom: 0px; margin-top: 11px;&quot;&gt;&lt;div style=&quot;text-align: left;&quot;&gt;&lt;font style=&quot;font-size: 8px; line-height: 110%;&quot;&gt;&lt;b&gt;Object Type: &lt;/b&gt;Views&lt;/font&gt;&lt;/div&gt;&lt;div style=&quot;text-align: left;&quot;&gt;&lt;span style=&quot;background-color: transparent; color: light-dark(rgb(0, 0, 0), rgb(255, 255, 255));&quot;&gt;&lt;font style=&quot;font-size: 8px; line-height: 230%;&quot;&gt;No &lt;b&gt;Load&lt;/b&gt;&lt;/font&gt;&lt;/span&gt;&lt;/div&gt;&lt;div style=&quot;text-align: left;&quot;&gt;&lt;b style=&quot;background-color: transparent; color: light-dark(rgb(0, 0, 0), rgb(255, 255, 255));&quot;&gt;&lt;font style=&quot;font-size: 8px; line-height: 110%;&quot;&gt;Transformations:&lt;/font&gt;&lt;/b&gt;&lt;/div&gt;&lt;div style=&quot;text-align: left;&quot;&gt;&lt;font style=&quot;font-size: 8px; line-height: 110%;&quot;&gt;• Data Intergrations&lt;/font&gt;&lt;/div&gt;&lt;div style=&quot;text-align: left;&quot;&gt;&lt;font style=&quot;font-size: 8px; line-height: 110%;&quot;&gt;• Aggregations&lt;/font&gt;&lt;/div&gt;&lt;div style=&quot;text-align: left;&quot;&gt;&lt;font style=&quot;font-size: 8px; line-height: 110%;&quot;&gt;• Business Logic&lt;/font&gt;&lt;/div&gt;&lt;div style=&quot;text-align: left;&quot;&gt;&lt;b style=&quot;background-color: transparent; color: light-dark(rgb(0, 0, 0), rgb(255, 255, 255));&quot;&gt;&lt;font style=&quot;font-size: 8px; line-height: 110%;&quot;&gt;&lt;br&gt;&lt;/font&gt;&lt;/b&gt;&lt;/div&gt;&lt;div style=&quot;text-align: left;&quot;&gt;&lt;b style=&quot;background-color: transparent; color: light-dark(rgb(0, 0, 0), rgb(255, 255, 255));&quot;&gt;&lt;font style=&quot;font-size: 8px; line-height: 110%;&quot;&gt;Data Model:&amp;nbsp;&lt;/font&gt;&lt;/b&gt;&lt;/div&gt;&lt;div&gt;&lt;div style=&quot;text-align: left;&quot;&gt;&lt;font style=&quot;font-size: 8px; line-height: 8.8px;&quot;&gt;• Data Integrations&lt;/font&gt;&lt;/div&gt;&lt;div style=&quot;text-align: left;&quot;&gt;&lt;font style=&quot;font-size: 8px; line-height: 8.8px;&quot;&gt;• Aggregations&lt;/font&gt;&lt;/div&gt;&lt;div style=&quot;text-align: left;&quot;&gt;&lt;font style=&quot;font-size: 8px; line-height: 8.8px;&quot;&gt;• Business Logic&lt;/font&gt;&lt;/div&gt;&lt;/div&gt;&lt;/div&gt;" style="edgeLabel;html=1;align=center;verticalAlign=middle;resizable=0;points=[];labelBackgroundColor=none;" parent="1" vertex="1" connectable="0">
          <mxGeometry x="550" y="440" as="geometry" />
        </mxCell>
        <mxCell id="TJ1niBv9A0Y08c_3gPOE-97" value="" style="shape=link;html=1;rounded=0;fillColor=#fff2cc;strokeColor=#d6b656;" parent="1" edge="1">
          <mxGeometry width="100" relative="1" as="geometry">
            <mxPoint x="515" y="359.31" as="sourcePoint" />
            <mxPoint x="615" y="359.31" as="targetPoint" />
          </mxGeometry>
        </mxCell>
        <mxCell id="TJ1niBv9A0Y08c_3gPOE-98" value="" style="shape=link;html=1;rounded=0;fillColor=#f5f5f5;strokeColor=#666666;" parent="1" edge="1">
          <mxGeometry width="100" relative="1" as="geometry">
            <mxPoint x="365" y="359.43" as="sourcePoint" />
            <mxPoint x="465" y="359.43" as="targetPoint" />
          </mxGeometry>
        </mxCell>
        <mxCell id="TJ1niBv9A0Y08c_3gPOE-99" value="" style="shape=link;html=1;rounded=0;fillColor=#ffe6cc;strokeColor=#d79b00;" parent="1" edge="1">
          <mxGeometry width="100" relative="1" as="geometry">
            <mxPoint x="216" y="359.31" as="sourcePoint" />
            <mxPoint x="316" y="359.31" as="targetPoint" />
          </mxGeometry>
        </mxCell>
        <mxCell id="TJ1niBv9A0Y08c_3gPOE-105" value="" style="shape=link;html=1;rounded=0;fillColor=#f5f5f5;strokeColor=#666666;" parent="1" edge="1">
          <mxGeometry width="100" relative="1" as="geometry">
            <mxPoint x="30" y="360" as="sourcePoint" />
            <mxPoint x="130" y="360" as="targetPoint" />
            <Array as="points">
              <mxPoint x="80" y="360" />
            </Array>
          </mxGeometry>
        </mxCell>
        <mxCell id="TJ1niBv9A0Y08c_3gPOE-106" value="&lt;div style=&quot;text-align: left;&quot;&gt;&lt;b&gt;Object Type :&lt;/b&gt; CSV Files&lt;/div&gt;&lt;div style=&quot;text-align: left; margin-bottom: 11px; margin-top: 11px;&quot;&gt;&lt;b&gt;Interface:&lt;/b&gt; Files in Folder&amp;nbsp;&lt;/div&gt;&lt;div&gt;&lt;br&gt;&lt;/div&gt;" style="edgeLabel;html=1;align=center;verticalAlign=middle;resizable=0;points=[];labelBackgroundColor=none;fontSize=8;" parent="TJ1niBv9A0Y08c_3gPOE-105" vertex="1" connectable="0">
          <mxGeometry x="0.0035" y="-2" relative="1" as="geometry">
            <mxPoint y="38" as="offset" />
          </mxGeometry>
        </mxCell>
        <mxCell id="TJ1niBv9A0Y08c_3gPOE-118" value="&lt;font style=&quot;font-size: 11px;&quot;&gt;BI &amp;amp; Reporting&lt;/font&gt;" style="image;aspect=fixed;html=1;points=[];align=left;fontSize=12;image=img/lib/azure2/power_platform/PowerBI.svg;" parent="1" vertex="1">
          <mxGeometry x="710" y="220" width="30" height="40" as="geometry" />
        </mxCell>
        <mxCell id="TJ1niBv9A0Y08c_3gPOE-119" value="" style="shape=image;verticalLabelPosition=bottom;labelBackgroundColor=default;verticalAlign=top;aspect=fixed;imageAspect=0;editableCssRules=.*;image=data:image/svg+xml,PHN2ZyB4bWxucz0iaHR0cDovL3d3dy53My5vcmcvMjAwMC9zdmciIHZpZXdCb3g9IjAgMCA2MC4yOTk5OTkyMzcwNjA1NSA1OS41IiB3aWR0aD0iMjQ5OS45OTk5NjgzNjkwMTEiIGhlaWdodD0iMjQ2NyI+PHBhdGggZmlsbD0iI2U4NzYyZCIgZD0iTTI4LjUgNDAuMmgzLjN2LTloOC4zVjI4aC04LjN2LTloLTMuM3Y5aC04LjJ2My4yaDguMnoiLz48cGF0aCBmaWxsPSIjYzcyMDM3IiBkPSJNMTMuMiA1My4ySDE2di04aDcuNHYtMi41SDE2di04LjFoLTIuOHY4LjFINS44djIuNWg3LjR6Ii8+PHBhdGggZmlsbD0iIzViODc5YiIgZD0iTTQ0LjMgMjQuM2gyLjh2LThoNy41di0yLjRoLTcuNVY1LjhoLTIuOHY4LjFoLTcuNHYyLjRoNy40eiIvPjxwYXRoIGZpbGw9IiM1YzY2OTIiIGQ9Ik0yOSA1OS41aDIuNHYtNS43aDUuMXYtMi4xaC01LjFWNDZIMjl2NS43aC01djIuMWg1eiIvPjxwYXRoIGZpbGw9IiNlYjkxMjkiIGQ9Ik0xMy4zIDI0LjNoMi42di04LjFoNy41di0yLjNoLTcuNVY1LjhoLTIuNnY4LjFINS44djIuM2g3LjV6Ii8+PHBhdGggZmlsbD0iIzVjNjY5MiIgZD0iTTUyLjggMzYuM2gyLjR2LTUuNmg1LjF2LTIuMmgtNS4xdi01LjZoLTIuNHY1LjZoLTV2Mi4yaDV6Ii8+PHBhdGggZmlsbC1ydWxlPSJldmVub2RkIiBmaWxsPSIjMWY0NTdlIiBkPSJNNDQuMyA1My4yaDIuOHYtOGg3LjV2LTIuNWgtNy41di04LjFoLTIuOHY4LjFoLTcuNHYyLjVoNy40eiIgY2xpcC1ydWxlPSJldmVub2RkIi8+PHBhdGggZmlsbD0iIzcxOTlhNiIgZD0iTTM2LjEgNy4yVjUuNWgtNVYwaC0xLjh2NS41aC01djEuN2g1djUuNWgxLjhWNy4yek01IDM1LjloMS44di01LjVoNXYtMS43aC01di01LjRINXY1LjRIMHYxLjhsNS0uMXoiLz48L3N2Zz4=;" parent="1" vertex="1">
          <mxGeometry x="750" y="220" width="40" height="39.47" as="geometry" />
        </mxCell>
        <mxCell id="TJ1niBv9A0Y08c_3gPOE-121" value="Ad - Hoc&#xa;SQL Queries" style="shape=image;verticalLabelPosition=bottom;labelBackgroundColor=default;verticalAlign=top;aspect=fixed;imageAspect=0;image=data:image/png,iVBORw0KGgoAAAANSUhEUgAAAgAAAAIACAYAAAD0eNT6AAAACXBIWXMAAA7DAAAOwwHHb6hkAAAAGXRFWHRTb2Z0d2FyZQB3d3cuaW5rc2NhcGUub3Jnm+48GgAAIABJREFUeJzs3Xt4VNW9PvB37bkEkgBJEAIhJLMnQdB4QcNVoKK13u+2VYtabasetVXrtVrPr/ZYLwi23lu8i4ripah4F0URFBQsqEHQMDOBJMglyQTIdWb2+v2RYBEDSWb2nrX3zPt5nvOc5yCs9Z7n2Xuv76y911oAERERERERERERERERERERERERERERERERERERERERERERERERERERERERERERERERERERERERERERERERERER7U6oDkBEROrcufD4IcKDIyExHhKjAOGHkAMBZHf+lR2Qog6QAQisEcBSI4qF1x3xxncqc1PiWAAQEaWZ25adNtDT3jYNwLkAxsTViMRnEuKpaIZ3zo3j59WZGpCSggUAEVGamL7wuELhFtcI4EIAmSY12wQpH3a5XTOvOuy1GpPapCRgAUBElOJmLS/3bG/Jv1RC/A2Q2d3/i7g0A5iRsV3efvnxb7ZZ1AeZiAUAEVEKm7742JGa1OYCODhJXa7UgDOvnvLGN0nqj+KkqQ5ARETWuHPR8Wdo0rUcyRv8AWC0ASyf8dGJpyWxT4oDCwAiohR056LjzxcCz1k45b83/QDjhZmLj/8fBX1TD7EAICJKMTMWH3+xEHgcgFthDJeU+Oedi074g8IMtBf8BoBsb/PYsUOibnGklHI8hBwFaH5ADhSd65QlsAMQdYARgBRrIORST1QsHPzZZ1ynTGnnzkXHnyEE5gJwqc7SKSak/Pk1P3nzZdVB6IdYAJAtVY8bN1Bzy2lSxr9OWQKfCSmekgbmFH76KdcpU8r7+8fHlMZirhUA+qvO8kNih3BpY685bP4a1Unov1gAkK1Ujx9fCM0wfZ2yBB6WcM8c/sknXKdMKenmil94s+qbPkVyP/jrOYH/9O+zafzFY1ZEVEehDvwGgGxheXm5p3bi2CuEJr8WwBUwb/AHgCwBXKkh+k3NYeNu/va40gwT2yayhcyGpqtg18EfACQOaWwdcoXqGPRfnAEg5WomjRmJmJgLkbx1yjImziz89FOuU6aU8PePTxwWixlrAWSpzrJ3YodbRvf940/e3qg6CXEGgBSrPWzMGTC05Ukc/AFgtHDJ5bUTx3GdMqWEaMy4FrYf/AFAZkeF6xrVKagDZwBImeoJY88XAg9D3VKlmJTi94VLP/2Xov6JEtZ5sM96mPvazEpNEW9GMQ8QUo8zAKRE9cQxtlinLIT8Z82EcVynTI7VeaqfUwZ/AMhyt7edpToEsQAgBWoPG3OGgHhAdY7vCfmP2onjTlUdgyhO56oO0FsacJ7qDMRXAJRkGyYeWqrBpuuUERtb8MkKrlMmx/jHomOGRoWrBs57lkuPxz30ygmvblIdJJ1xBoCSpqKszKtJ14uw3eAPADJbQpuzvLzcozoJUU9FNdcRcN7gDwCiPRqZqjpEumMBQEmT2z/zqiR/7d9bhwz1alynTM4hMV51hHgJAxNUZ0h3LAAoKTZMnDhMAjepztE98ZfQlPKhqlMQ9YjEKNUR4ibESNUR0h0LAEoKgahj1il7Y4LrlMkRpECp6gxxk2KE6gjpjgUAWa563LiBnXv7O4KU4uLqceMGqs5B1B0B5KjOEDchnZs9RbAAIMtpbum4dcrCZXCdMjlBtuoACeinOkC6YwFAlus80tdRBATXKRNRSmMBQJbq/KCuXHWO3pLA2E3jx+erzkHUjR2qAyRgu+oA6Y4FAFnKG3XuOuWoMKaqDkHUjQbVAeImRVh1hHTHAoAsJaV07DplKbhOmWxOYp3qCHET8lvVEdIdCwCylpDOXacMcJ0y2ZuAc7eulnKt6gjpjgUAWUpCOHadsgDXKZO9CWCp6gxx08QnqiOkOxYAZCmuUyayjtvjfh+AVJ0jDtLjdn+oOkS6YwFAVnPuOmXJdcpkb1dOeHUTJJarztFbEljGkwDVYwFARORgEuIp1Rl6S3Ng5lTEAoCs5tx1yoLrlMn+ohneORJoVp2jF5ravd65qkMQCwCymOA6ZSJLPfObb9rWfhR2zLUqIf514/h5dapzEAsAspiEdOw6ZQmuUyZ7Kysry25ubn7z05e2FkTaDNVxuhVpNfDSzcGNqnNQBxYAZC0pnLtOGeA6ZbKtnYM/gMk76iNY8Yr9f1R/Nm8LNgdapvv9/jNUZyEWAGQ1IZ27TlmC65TJlnYd/Hf+2co3t2JLVavCVHu3JdSCL96pBwCXlPKZkpKSI1VnSncsAMhSbsPl3HXKUuM6ZbKdrgZ/ADBiwDv3V6O9xX6vAiJtEu/+sxZG7Ps/yjAMY15JSYnjDgpLJSwAyFL5y5ZtknDeOuWK9oiYsHnzrGHDhg1UnYVop/z8/Kzm5ub52G3w36lxUwTvP7wRhmGfmtswJBb8swbhje27/6f+hmG85fP5nLxduKOxACDLCem8Nb9vtbYBwCler/c/uq5PUZ2HKD8/PyszM/M1AFP39vcCy7fhoyftsceOlMCix79D8PM9rqjdRwjxjt/vL0pmLurAAoAsJw3MAdCkOkdPtUiJ91u//7UyHMBCv99/MwCXslCU1no6+O9UsbAB7z+8EVLh2wDDkFj05HdY/WG3KxSHG4bxRmFhYV4yctF/sQAgyxV++mmdBB5WnaOnXmluRaPxgyenS0r5F13XFxQWFg5TlYvSU28H/53WfBTG2/dVI9Ka/CqgvcXA2/fWoOL9nm0DIoQo83g8b+Tn52dZHI12IVQHoPSwYeLEYRqiawHY+gZvlhJnb2lAnbHHh+ZWIcQFgUDgtWTmovQU7+C/qwH5Xhz9+2EYVNzHvGB7sSXUgnceqEHjpkg8/3xBZmbmCRUVFT/6YIDMxylNSop/VFdvv7qoMAbgKNVZ9mbWjmZ81r7XB1cmgLNzc3Pz9tlnn4X19fWxvf1loniZMfgDQFtTDF9/GEZ7k4Gh+2bC5bbmd1+0zcCK+Vvx3sMb0bo97tvC397eXhIOh1+GM1cPOQpnAChplpeXe4Z6tWUADlGdpStrI1FcVBdGTx9dQojPAZwVCAS4YyCZyqzBf3dZOW6M+8Wg2lFTcnJERzGbsGi7ISveD4v/vF6H5saoGU0CwIPBYPAysxqjrvEbAEqaMStWRAzEfglgm+osu2uRwF8bt/d48AcAKeWhUsoVuq6fY1kwSjtWDf4A0BSOLlnyZN2oqDejCEL+AcAyxPdLW0pgqQR+/8r00ClL5mxqNXHwB4BLdV2/0cwG6cc4A0BJVztx3GkS8gXY5BVUTEr8Obwdi9sSeu34VGZm5qUVFRXOPf2QlLNy8AewxOv1Hrd27dofrMmbseTowVK6jhAGJkCIUQB0AIMAZHf+lR0AtgAIQso1UsNSIWILr530zuadbei6fjKAlwC4Tc58eTAYvM/kNqkTCwBSovawsRdJiVmqc0gAdzbuwPwWU7ZQXSulPCsUCq00ozFKLyoGfzPpun4egCdg7rhiADgrGAy+YGKb1ImvAEiJgo8/e0hKXADA1HnD3ohJiZnbTBv8AWCkEGKpz+e7AiyuqRecPvgDQDAYnC2E+LPJzWoAntZ1/WiT2yXwIUWK1U4cd6qEnA2gXzL7bZIStyQ+7b83r7S3t/+2pqbG/ke0kVKpMPjvStf1mQCuNrnZ7ZqmHbFu3boVJreb1lgAkHIbxo8foWnGXCRpdUBVNNZ0XUNjVk3M8g1SNgCYFgwGP7K6I3KmVBv8Owmfz/eoEOICk9vdKqWcEgqFnHzEuK3wFQApN3zZsm8LMrLGCeBKAFY+rJohxF+/NMTgWkP+FR3vF63EbYRpj1J08AcAGQqFLhRCzDO5XZ4bYDLOAJCthKaUD/VGXddKyItg3q6BTULIWe6ImDH4s8++2/mHfr//KCnlUwCGmNTP3nwQiUTOqa6urklCX2RzKTz4f6+wsLCvx+N5G4Cph2lJKSui0ehPqqur681sNx2xACBbqh43bqBwGWcLaOdIyHHo/bUqIbEMQj5twPPs8E8+6fJhoet6PoAnARyTaOYe4DbClBaD/05+v3+AlPIDAKNNbnpZc3PzTzdt2uSYQ8bsiAUA2d53hx02OGZEjpACEwSw13XKElgjJJa6NM/CIR9/vHlPbe5G+Hy+y4UQMwB4TP9/4IckgPsyMzOv5X7n6SedBv+dhg8fXuB2uxej4741E88NSBALAKJOPp9vvBDiWZj/oOrKCiHE2dxGOH2k4+C/U2lpaUksFlsMk1+3SSnnhEKhc2H99zwpiR8BEnUKhULLhBCHAJibhO7KuY1w+kjnwR8AKisr16HjNVvYzHaFEL/SdZ07BcaJXyYT7aKhoaEtHA6/mJubG0THA8vKVwIZAE7Pzc0tGTZs2LtbtmzhVGYKSvfBf6dwOLwpJydnmRDiLJi7ZfDY3NzcSDgc5nLbXuIrAKI9KCoq2t/lcs0FcEASuuM2wimIg/+P8dwA++AMANEeNDY2bsnOzn7C5XL1AzDe4u72EUJckJOTsz0cDn9qcV+UBBz8uxYOh9fm5uZWATgV5v4IPSY3N/frcDi82sQ2UxoLAKK92LZtWzQcDr+Vm5tbAeBoAH0s7M4thDg2Nzd3dFZW1rvbt29vsbAvshAH/70Lh8Or8vLy2gH81MRmBYBTcnNzPw2Hw+tMbDdl8RUAUQ/5fD6fEGIOgIlJ6I7bCDsUB/+e47kBanEGgKiHwuFwePTo0U9u27ZNAvgJrC2gBwA4Ly8vT2toaPgIHfsHkM1x8O+dcDj8bk5OTlHn6huzZEgpT8/JyZkfDoe3mthuyuEMAFEcuI0w7Y6Df9xcfr//BSnlaSa3u0EIMTkQCKw3ud2UwX0AiOIQCAQWoGN707eT0N1Uj8ez0u/3n5iEvigOHPwTEmtvb58GwOzXXcMNw3ijsLAwz+R2UwZnAIgSw22E0xwHf3Pw3IDkYwFAZAJuI5yeOPibi+cGJBdfARCZgNsIpx8O/ubbsGFDrcvl+hmA77r9y71zVFNT0+PgmPcDnAEgMpmu6+cB+CeAzCR091RmZualFRUVO5LQF3Xi4G8tXdcPAvAhgByTm34wGAxeZnKbjsVlgEQmC4fDq/r37/+ypmmHAxhscXcHRyKRM3JychaHw2GzfzVRFzj4W4/nBiQHCwAiC3Ab4dTEwT95wuFwKDc390sAv4C5U/c/zc3Nree9wlcARJbTdf3nAB6G+dOZXXmlvb39tzU1NXVJ6CutcPBXo/OV2hMwd7wyAJwVDAZfMLFNx+EMAJHFwuHw6pycnLlCiPEAhlvc3SiXy3V2bm7u8nA4zA1QTMLBX51wOLwqNzc3Ap4bYDoWAERJwG2EnYuDv3rhcPij3NzcfgAOM7FZF4BTBw4c+E5DQ8NGE9t1DL4CIEoybiPsHBz8bUX4fL5HhRAXmNzuVinllFAotMbkdm2PBQCRArqu5wN4EsAxSehuqxDigkAg8FoS+koZHPxtiecGmIgFAJE63EbYpjj421dhYWFfj8fzNoApZrYrpayIRqM/qa6urjezXTtjAUCkGLcRthcO/vbHcwPMwW0RiRTjNsL2wcHfGQKBQGM0Gj0BQNDkpsdnZma+XFZW5jW5XVviDECS1I0f379Vi50AIY6UEgcLwCeAHJng1K8AIhIISyAkJFZCk+97Rcbrg5Ys4UPGgbiNsDoc/J2ntLS0JBaLLYbJH9RKKeeEQqFz0bFfQMpiAWCx0JTyod6o+H8S4jwk56EOAE2QmBPTjOlFH69I2zWuTlVUVLS/y+WaC+CAJHS3Vkp5VigUWpmEvmyLg79z8dyA+LEAsEhw6tQ+GW1NN0rgKgBZKjJ0zg7c1ZzTcPOINyvbVGSg+HR+6HQHgMuT0F2blPL6UCh0L9JwzwAO/s7n8/mmCiHeBNDH5Kb/HAwGbzO5TdtgAWCB2vLyfaRXewkdG77YwSeeKE4f/NlnPCzGYZK9jXAkEvlNOn0FzcE/dei6fjKAl2Du4UEAcHkwGLzP5DZtgQWAyb47bMwBMYg3IC3f8rW31ruEPGHIx8u/Uh2Eesfn8/mEEHMATExCdxsATAsGgyl/WhoH/9TDcwN6h6sATLRp/Ph8mw7+AFAUk+Lt9ZMOKVAdhHonFAqFiouLfyKE+Cus/yhpOICFfr//ZqTwVuEc/FNTMBicDeAmk5vVADyt6/rRJrerHGcATBKcOrWPt63pfSTnV1oiPm7OaTiS3wQ4E7cRThwH/9Sn6/pMAFeb3Ox2TdOOWLdu3QqT21WGMwAmyWhruhH2H/wB4LDMhpw/qQ5B8QkEAgvQsfnJ20nobqrH41np9/tPTEJfScHBPz0Eg8FrpZSPm9xsP8Mw3vL5fKNMblcZzgCYIDSlfKgnqn0LRV/7957Y4YnKEfwo0NG4jXAvcfBPL+Xl5Z76+vp5AE4wuemUOTeAMwAm8EbF/4NjBn8AkNkRt+nvySi5ZCgUukdKOQXm74a2OwHg8ubm5o/9fv8Ii/uyBAf/9LNixYpIJBL5BQCzP2gdbhjGG4WFhXkmt5t0nAFIUMcOf8ZGJG+TH7M0eTKahwz+gLvAOV3nvuizAJyZhO62A7g0GAw+nYS+TMHBP73x3IA94wxAglq12Alw3uAPAFntrZnHqw5BiQsEAo3BYPAsAL8G0Gxxd/0APKXr+uyysrJsi/tKGAd/4rkBe8YCIFFCHKk6QtycnJ1+JBgMzo7FYmMBJGOvh3Obm5uX+3w+s39VmYaDP+20YcOGWpfL9TMAZn/3dFRTU9PjcOhY6sjQdiIlDladIV4C8iDVGchc69evXx2JRMYBuDcJ3Y0UQiz1+XxXwGavEzn40+4qKyvXATgGQNjMdoUQv9J13ZE7BbIASJAQSTnD3SolqgOQ+aqrq1uCweAVAH4Bkx92XcgQQtyt6/o8u3wUxcGf9iQYDH4hpTwNQKvJTV+q6/qNJrdpORYAiZLorzpCAgaoDkDWCQaDL0opDwHwSRK6O8Xj8azUdX1KEvraIw7+1J1QKPQBOj6YjZrc9K26rv/B5DYtZatpOyeqmTjW0aenDfvkM14DKW7q1Knu9evX3ySl/F9YX/THhBB/CwQCtwCI9eQfyAcwBG4cCQPjITAKAn5IDASw8yPDHRCog0QAEmsgsBQxLBSX/fB9Lgd/6o1knRvgu3PzEGlEj5RSdlzfgB/AQEB0Xt9yB4A6oOP6lsBSl8uzMHTdYMv3aeHDP0EsAMgp7LSNsLwfA+HBNEicC2BMXD1IfAaBpxDFnCG35Ldy8Kfe6py2v9XkZttjg8um4fSHCiBl/Nc35GeAeCpmyDk1NxbWmZqwEx/+CWIBAJSUlAwGMDgWiw3UNG2glHIfAPsAGNj5P5noWD7mllJqQoidrx4yOv9bM4CdZxOE0bHzXBQda86b0VEd1wHYIoSok1JudblcdQA2V1ZWbkk0fzrRdT0fwJPo+BjKaluFEOcHAoHXd/6BfBiFiOEaABfCvOWzTf/+Krth5qK8wu+2m35+EQf/FGfmuQEyaxDkwWdD7n+KhCvDrPG1CZAPG1E5s/qm4aaey8ECIEHpUACUlpZmRCKR/V0ulw7AJ6X8/n8LIXxQuwviDgAhdKzxDQkhgrFYLKRpWiAzM/NrJ29da6GkbyN86eTmG6+ZtOl3AP6G/07tm6olIvDQsgH459IctMdMebRx8E8PwufzPSqEuCDuFjQXZNkZkOMuhHT3NS/ZDzVDYoY3q/n2ystHmHKYGwuABKVaATB8+PACj8ezv2EYZUKIcgD7AzgAHb/WnSYKYD2A1UKIFVLKCpfLtbqysnI1OgamtObz+cYLIZ4FrF3J4s+L4KEzNrX48yKWPRl3tXqTF394dTCC9QnVNhz800hC5wbkFCF21P8BA0vND9a1lTFDnllzY+E3iTbEAiBBTi8AJm3ccoQQYrKUcqIQYiKAXNWZkqAOwCdCiI+llEsikchn1dXVLapDqWD1NsLH7tuEmSduRabHsKL5PWpq13DN64Pw9jdxvWXg4J+GCgsL+3o8nrcB9Hgli9SnQh75Zyt/9e/JdiHFr6tuKJiXSCMsABLk9AJg8ndbVUewgwiAFVLKT6SUH7lcrvcDgUCj6lDJ1PlF9D9h4rbWPz9wB24/bitcQs0tEjOAmxfsg2f+0683/4yDfxrrzbkBcuTxkIdfDylM/+6kp2JSyt9vuKHwX/E2wAIgQSwAUlIMwEohxGtCiPnr1q37HGnwyqCoqGh/l8s1Fx2vfBLyq9Hb8bdj7HFt/XXBQDy5okfbdXDwJwwfPrzA7XYvxl5ejcn9T4Ex5dokptqry9f/aVhcOxGyAEgQC4C0UAvgTcMwXhdCvBkKhczeRcw2OqdB7wBwebxtHLtvE+47ZTNcNtlmLGYAl72Sj3f2/jqAgz99r7S0tCQWiy1GF0tmpT4VxlF/BTRlv/x3F5NC/HzD9QUv9/YfsgBIEAuAtNMC4D0AL7S1tb1YW1tr9el7Sui6/nMADwPI6c2/K86JYP4Ftcj2Jvedf3eaIxpOebIA6+q6/DCQgz/9iK7rBwH4ELvcA7L/MBg/fwzwqFz41KUdmiHGhm4sWNObf2STGp3IMfoCOBHAkxkZGbW6rj/p9/uPLy8vt3o5XVLFs42wxyXx4GmbbTf4A0Cmx8DdJ22GW/tRvc7Bn7r0o3MDNDeMo2+14+APANmGJueUz1req+cQCwCi+A0AcJ6U8vX6+vr1uq7fU1paWqY6lFlCoVCouLj4J0KIv6Jji9O9+u3YRuw32L7bLpTlt+OCMdt2/SMO/rRXu54bYBx0VjKX+sXjkK0NQ6/ozT/gK4AE8RUAdWEFgIfa2tqeTpVXBN1tIzykXwwLfrcBmV573w7NEQ1HPlSIzTtcHPypx3wTT73COH7m3fAkfblfb+0Qsci+VX/2bezJX+YMAJH5ygHMysjIWK/r+kxd14tVB0pUIBBYEI1Gy4UQC7v67xeOC9t+8Ac6XgVcPaW+JjMz81gO/tRTxin36w4Y/AEgGy7vNT39y5wBSBBnAKgHDABvGIZxW1VVVTKO5rXSj7YRzu1rYPEl69HX44xbQUo0ixiKxO9hyQErlFqG3VY90KWJ9TBxjwyLNcUMWdyTA4Q4A0BkPQ3AiZqmfazr+mJd138BwDZriHpJhkKhe6SUU9Bx/gJOKdvhmMEfAIRAJjw4S3UOcgaXS5sG5wz+AJDl1kSPrm8WAETJNQnA87quf6Xr+jlwaCEQCoWWCSEOATD3tLIdquP0nsR5qiOQQ3Qc6esoEqJH1zdfASSIrwAoQWsA3B4MBp9Bxw6EjiJnYSgkauC8Z4mEC0PFhdikOgjZV/GtoaHS5XHk9e2KuYcG/5y/1+ubMwBEao0C8KTP51vV+WrAaQ+aI+C8zAAgEMNU1SHI5lxex17fUS06tbu/xAKAyAaEEGXoeDXwqd/v/6nqPD1mYLzqCAmYoDoA2ZuU0rHXtxCy2+ubBQCRvYyRUi7Qdf3d4uLi/VSH6ZbAKNUR4iYxUnUEsjkHX98S3V/fLACI7OkoTdNW6bp+j9/vH6A6zF7Yemu0vdIwQnUEsjvp2OtbQHR7fbMAILIvD4DLpZTrfD7fFbDnioFeHRZkK9LB2SlJhJOvkW6zswAgsr+BQoi7/X7/p8XFxYeoDrObbNUBEtBPdQCyvZS+vlkAEDmElPJQTdOW+f3+O0pLSzNU5yEiZ2MBQOQsHinl9bFY7Kvi4uIjVIcB4MBdgL7HswCoOyl9fbMASIDNP86i1FaqadoCXdfvLysrUzlN2aCw78QIhFVHILsTzr2+0f31zQIgTj6fb7yUcrnqHJTWNACXNTc3f1lSUjJJUYZ1ivpNnIFvVUcgu5OOvb4lZLfXNwuAXpo6darb7/ffLIRYAicvgaJU4jMM4wO/338zkr1SQGJNUvszk8Ba1RHI5hx8fQt0f32zAOgFn8/nq6qq+kBK+RfYc0kWpS+3lPIvuq4vLi0tLUlarwJLk9aX2SScfjQzWUzCwdc3ur++WQD0kN/vv0AI8SU6TnMjsqsJsVhshd/vPzspvbnwPgAnHogl4caHqkOQvbkNt2Ovb1fM0+31zQKgG6WlpRm6rj8kpXwMzl4TSuljgJRyjq7rs8rKyrxWdiQuxCZIOPFbmGU8CZC603GanvO+9ZLAsu5OAgRYAOxVaWlpYSwW+xDAhaqzEMXhoubm5iV+v7/I0l4EnrK0fWs4MTMpIZx3rfTwnmQBsAc+n+/wWCy2HHD0aWdEY6SUy0tKSo60rIco5gBosqx98zUhirmqQ5AzxAzpuOvbiMkeXd9OPOfYasLn810uhJgJwN3dX148ZB/rE1lo8ndbTWsrLy8PBQUFGDRoEPr374/c3Fzk5uaif//+yMnJQZ8+fSCEQHZ2x5sUr9eLjIwMtLW1ob29HQCwY8cOSCnR2tqKcDiMxsZGhMNhNDQ0YNu2bdi8eTNqa2vR0ODk5blKRKWUN4VCoelWNC7/hX8AuNKKtk0ncZe4BNeojkHOUXRH9T8A4YjrWwpx14brC3p0fXc7wKWTsrIyb3Nz86MAzlGdxa4yMzNRWlqKESNGoKSkBMOGDUNBQQEKCgrQp0+fpOVoaWnBxo0bUVNTg+rqagQCAXzzzTdYt24dWlpakpbDQdxCiDv8fv+o3Nzci1asWBExtXWJmRC4EECWqe2abzsMzFQdgpzFiMqZmls44vp2CXePr2/OAHQqKirKdblc8wAc3pt/l8ozAH379sUBBxyA0aNHY+TIkRgxYgSGDRsGIex72RiGgdraWnzzzTdYs2YNVq5ciYqKCrS2tqqOZifvCSHOCAQCjWY2Kv+F6wHcYWabphO4RlyMu1THIOcpur3megh7X99Cymuqbijs8fVt3yd5EhUXF+uapr0BYFRv/20qFQD9+/fHuHHjMHr0aBx88MEYOXIkXC7nb3cQjUaxdu1arFy5EitXrsSnn36KHTucvMV34qSUFUKIE4LBYJVpbc6CBxLLANjtxMKdPofABHExzJ39oLRQPmu5Z0vDUFtf34Nf62VlAAAgAElEQVRyN05YcfGYHl/faV8A+Hy+8UKIVwEMjuffO70AOC+zP37yk59g/PjxOPTQQ+F2p/5boVgshm+++QaLFi3CRx99hDVr1kBKJy71TdhGTdNOWrdu3QqzGpQPoBQurADQ36w2TbIDBsaIS7n7H8Wv8PYNpZrQbHl9uwTGBK8f1qvrO60LAJ/Pd6oQYg6AvvG24fQCoO/rb6uOoNzWrVuxcOFCvPPOO1i5ciUMw1AdKZl2GIbxy6qqqjfNalD+E6dB4AXYZ7fMGAycLi7Fq6qDkPMV3157mhTSVte3FDh9w/XDen19p20B4PP5zhJCzAbgSaQdFgCpZcuWLViwYAHeffddfPHFF+kyM9AOYFowGHzRrAblLFwEiVlmtZcACYGLxMV4RHUQSh1Ft9deBCFtcX0LKS6quqEgrus7LQsAXdcvBPAvmLAPAguA1LVp0ya8+eabeP7557FpU8pvGhcTQlwYCAQeN6tB+U+cD4GHoW61UQwSl4lLbFGIUIoZfnv1+UIItdc35GXr/1QY9/WddgWA3++/VEp5P0z6/50FQOqLRqNYtGgRXn75ZXzyySep/IpASimvDIVC95rW4CycConZAPqZ1WYPbYOBczntT1YaPr32VCGlkutbCpwbz7T/rtKqAPD5fNcLIUxdxsECIL1UV1dj7ty5mDdvXqruNyABXBcMBk1bKy//hREA5iJ5X09/jhjOFJehMkn9URorvHPDCM3Qknp9G9I4s/qG4Qlf32lTAPj9/ps7j/E1FQuA9LRjxw7Mnz8fs2fPxubNm1XHMZ0Q4sZAIHC7We3Jm+HGEFwG4BZY92upGRIzMBC3iV+i3aI+iH7sZuku6rPxMkBafn33awvfVnFzmSnXd1oUAD6f70ohxD+saJsFQHprb2/Hyy+/jMceewxbtmxRHcds15o5EwAAchaGArgWEhfBvF3VmgDMQgwzxGX4zqQ2iXqt+NbQULi810pIU69vATFLaO4ZoesGm3p9p3wBoOv6ZQDut6p9FgAEAJFIBPPnz8esWbOwdat55ysoJqWUl4RCIdM/opP3YyBcOBsC5wAYh94/iySAZRB4Gi48K36HerMzEsVr2G3VA90ucTakOEdCxnV9S2CZBjwd8xrPVl813JLrO6ULAJ/P92shxGOw8NRDFgC0q5aWFsydOxdPPPEEtm/frjqOGQwhxLmBQGCOVR3If2IwBI4AMAEdu3HqAAYByO78KzsAbAEQBLAGwFJILBSXIPXevVDKKZnx3eD2aOwIIeQEIcQoKbu+voVAUEq5Rkqx1Ot2LVx37RDLr++ULQD8fv8ZUsrnYPESDRYA1JXGxkY88sgjmDt3LmKxmOo4iYoBODsYDL6gOggRmceyX8YqFRcXHyelfBY87ZAUGTBgAK6++mo8//zzOOyww1THSZQLwFPFxcVHqA5CROZJuQKgpKTkAE3TnkWCO/wRmcHn8+G+++7DjBkzMGjQINVxEpGhadrLfr//QNVBiMgcKVUADB8+vMAwjDcADFCdhWhXRx55JF588UX86le/gqY59rbrL6V8Vdf1fNVBiChxjn0S7W7kyJH93G736wCGq85C1JXs7GxcffXVeOSRR6Druuo48fIBeD0/P9+sJU5EpEiqFACu9vb2ZwCMVh2EqDsHH3ww5syZg3POOcepswHlmZmZc2Gf09CIKA6OfPrszu/3PwDgJNU5iHrK6/Xij3/8Ix588EEMHjxYdZx4nODz+WaoDkFE8XN8AaDr+oVSyotV5yCKx9ixY/H888/jmGOOUR2l14QQf/T5fL9WnYOI4uPofQCKi4sP0TRtCYC+qjJwH4AOIrIdno3vwL1pEVzhr+Bq3gARaQSMSGINax5IzwDEMocjlnsgooN/gkjB0ZDu7O7/rcP8+9//xowZM9De7qht7FsMw5hcVVX1ueogRNQ7ji0Ahg0bNtDr9S5Hx0dJyqR7AaC1bkKfijvhDT0HEUvO6XjSlYn24p+jddQVMLId+zFdl9asWYPrrrsONTU1qqP0Rqi9vX1MTU1NneogRNRzTn0F4PJ6vXOgePBPZ8JoQ9+vbkf/18uRse7xpA3+ACBizcgIzMaAtyag7xf/B8Takta31UaNGoXZs2djwoQJqqP0hs/r9T4B5z5PiNKSI7/i1XV9OoDzVOcAgN9kZ6qOkBDPtHN7/W9EWx2yF58Nb9VcCJngFH8ipAH31qXwbF6EaMExkO7UWJnWp08fHHvssWhvb8eqVatUx+mpfXNycoxwOPyh6iBE1DOOKwB8Pt8xQogHYZPXF+lWALgav0a/hSfA1bjaokS9p7XUwrvhZUTzp0L2cfRue9/TNA3jx4/H0KFDsWTJEhiGoTpSt4QQhw8cOHBxQ0NDUHUWIuqeo6bsSktLBwkhnoBNBv90o7VtQfZHv4TWbL/301pzNbI/PANaS2odB3/yySfjvvvuQ3a2Iz561AzDeLKwsDBPdRAi6p6jCoBYLPYogCGqc6QjYbQha/E5thz8d9Jav0PWx+en1DcBADBu3Dg8/vjjGDp0qOooPVHo8XgeUh2CiLrnmALA7/dfCm72o0yf1X+Hu+4z1TG65a77FH3W3K06hun8fj8ef/xx+P1+1VF64gzuD0Bkf44oAIqLi/eTUnLXMUW01k3IWPuA6hg91mft/dBaN6uOYbpBgwbh0UcfRVlZmeoo3RJC3O/3+0eozkFEe2b7AqC8vNyjadozAJz9tZ2D9am4EyLWrDpGj4loE/qsnqk6hiX69++PBx98EAcddJDqKN3JllLOhgM/NCZKF7YvAOrr668HcIjqHOlKRLbDG3pOdYxe8wbnQESbVMewRHZ2Nh588EGMHTtWdZTuTPD7/ZerDkFEXbN1AeD3+/cF8GfVOdKZZ+M7Sd3kxywi1gzPxndVx7BM3759cc8992DMmDGqo+yVlPJvpaWlJapzENGP2bkA0KSUjwDoozrInjhgGjZh7k2LVEeIm3uzc7P3REZGBu6++26MHm3rU7Azo9HoQ+DSXSLbsW0B4Pf7LwYwRXWOPRk1ahTuvfde1TEs5wp/pTpC3FzhCtURLLdzJmC//fZTHWWPhBBH6rre+y0nichStiwAhg8fXiClvE11jj0ZMWIEHnzwQfTr1091FMu5mterjhA3V1NIdYSkyM7Oxr333gufz6c6yt78vaSkZLDqEET0X7YsADwezwMAclTn6MqgQYNwzz33YMCAAaqjJIWIbFcdIW4isk11hKTJy8vDfffdh7w8227CN9AwjL+rDkFE/2W7AqCkpORIKeWpqnN0JTMzE/feey/y8/NVR0kew1Fn0/9Qiu0I2J2CggLce++96Nu3r+ooe/IrXddt+1qPKN3YrQBwGYZhy23cXC4XbrvtNuy7776qoxDt0X777Yc77rgDLpctl98LIcTdsN9zhygt2epG1HX9fwAcqDpHV2644QZMmcIfL2R/kydPxhVXXKE6RpeklIf6fD5+EEhkA7YpAIqKinIB3Kw6R1fOOussnHbaaapjEPXYtGnTcMopp6iO0SUhxPTS0tL+qnMQpTvbFAAul+tmAPuozrG7gw46CFdeeaXqGES99qc//Qn777+/6hhdyY/FYterDkGU7mxRAOi6PhLAJapz7C4vLw/Tp0+Hx+NRHYWo17xeL2bMmIGcHFsuqLlK1/Vi1SGI0pktCgAhxM0AbDXKut1uTJ8+HYMHc+kyOdeQIUNw++232/GjwD4AblIdgiidKS8ASktLy6SUv1SdY3eXXXYZDj30UNUxiBI2btw4/Pa3v1UdoysXdJ73QUQKKC8AotHo/9khx64OPfRQTJs2TXUMItP87ne/s+PZFS4pJQ/7IlJE6cBbXFx8qBDCVp/X9+vXD7fccosdp0yJ4uZyufC3v/0NWVlZqqPsblpxcbF9DzIgSmFKCwBN0/4PNjsl7MYbb8SQIUNUxyAy3bBhw3DttdeqjrE7l6Zpf1EdgigdKSsAdF0fB+AEVf135aSTTsLRRx+tOgaRZU466SQcddRRqmPs7hd+v9+WG4ARpTJlBYAQ4k+q+u7KwIED8cc//lF1DCLL3XDDDXZbGqhJKW03NUGU6pQUAEVFRX4p5ckq+t6T6667Lm1O+KP0lpOTY8etgs/y+/1FqkMQpRMlBYDL5boagG2+sps8ebIdp0WJLHPyySdj/PjxqmPsyiOl/L3qEETpJOkFQGFhYR6AXye73z3JysrCn//MlUiUfm666Sa7HR18sd/v5zQcUZIkvQDweDyXArDNWqSLL76Yu/1RWiooKMD555+vOsau+kspf6c6BFG6SGoBUFpamgHg0mT2uTc+nw9nnnmm6hhEypx33nkoKChQHWNXV5aXl9tqW3CiVJXUAiAWi/0CwNBk9rk3V111Fdxut+oYRMp4vV67fRBYWF9fb89zjIlSTLJfAVyU5P72aNKkSZg0aZLqGETKHXXUUSgvL1cdY1d8DUCUBEkrADqP/J2crP72xuVy4aqrrlIdg8g2rrrqKmiabY7k+JnP5/OpDkGU6pJ5x18Im2z7e+KJJ4LPF6L/GjVqlJ2WwmpCiN+oDkGU6pJSAJSVlXkBnJuMvrrjdrvtejQqkVKXXHKJbQ7B6iwA7BGGKEUlpQBobm4+FYAt1tqddtppGDZsmOoYRLZTVFSE4447TnUMAICUcpjf77dHGKIUlaxXALb4qMfr9eI3v+HMItGeXHzxxfB47LEKj3sCEFnL8gJA1/V8AEda3U9PnHHGGdz0h2gvCgoKcPzxx6uOsdPxnTuHEpEFkjED8HPY4F2ey+XC2WefrToGke2df/75dlkR4HG73bY6NIwolSTjLv9lEvro1lFHHcV3/0Q9UFRUhClTpqiOAQAQQnCrTiKLWFoAFBcXDwVgi912pk2bpjoCkWOcc845qiPs9NNhw4YNVB2CKBVZWgAIIX4JG0z/l5eXo6ysTHUMIsc49NBDceCBB6qOAQAer9d7muoQRKnI6lcAtpj+/9WvfqU6ApHj2Oi+4WsAIgtYVgAUFxcPFUJMsKr9nho8eLBt3mcSOckRRxyBvDxbfIQ/lasBiMxnWQHgcrmOtbL9njrllFNss7sZkZN4PB67LAl0u93un6kOQZRqLBugpZTKd/HSNA0nn8xVRETxOv300yGE+iM8NE07VnUGolRjVQHgAvBTi9rusfHjx6OgoEB1DCLHKi4uxujRo1XHgJTyWNjkMDGiVGFJAeD3+ycCUP7O7rTT+PEwUaJOPfVU1REAYEhxcbH6SoQohVhSANhh+j8zMxOTJ09WHYPI8Y488khkZGSojgFN05Q/V4hSiVWvAJTfqFOnTrXFQ4vI6TIzMzFpki328+J3AEQmMr0A6Ny1S/lU3c9+xo+Gicxy1FFHqY4AABPy8/OzVIcgShWmFwBer/cwKP5YJysrCxMmKN+CgChlHH744ejbt6/qGJ7s7OzxqkMQpQq32Q0KISZJKc1utleOOOIIeL1epRkotUSMFmzYvhI1TRWob1mPpuhWtMWaYchoQu1qwo0MVyay3PtgYN9iFGSVYXi/0fBofUxKbo4+ffpg0qRJWLBggdIchmFMAvC+0hBEKcL0AkBKeZjZbfbW4YcfrjoCpYiWaBifb56HyvBHiMp209s3ZBQt0W1oiW7D1tYA1jYshFvLQMmAw3DQPieivzff9D7jNWXKFOUFAGxyuBhRKjC1ACgvL/fU19eXm9lmb7lcLowdO1ZlBEoBMRnBqi2v4su6NxA12pLad9Row9qGhfg2/BEOHHgcDhl0OlyaJ6kZujJp0iRomgbDMFTGmIiOfUZiKkMQpQJTvwGoq6srB5BpZpu9ddBBB6Ffv34qI5DDtUa3462q6fjPlnlJH/x3ZcgoVm2djzdCt6Il2qgsx065ubkYOXKk6hj9dV0/QHUIolRgagEghFA+PWeT5UrkUA1t1Xg5cBO+a1qjOsr3NrdU4tXA/0NDW7XqKLa4v+zwnCFKBWavAlA+937YYco/QSCHao1tw9tVM9AUqVMd5Ud2ROrwVugONEfDSnPY4f6SUo5TnYEoFZhdABxkcnu9kpOTg3333VdlBHKomIzg3aq/23Lw36k5GsZ7G+5BzIgoy3DAAQcgM1PpWz4IIQ5UGoAoRZhWAJSWlmYAGGFWe/E4+OCDbXFyGTnPqi2vYnNLpeoY3drc/C1WbZ2vrH+Xy4UDDlD7Cl5KWTZ16lTTVzARpRvTCgAp5QGwYFlhbxx88MEquyeHaomG8WXdG6pj9NiXdW8o/SjwkEMOUdZ3p4xgMKj0xwZRKjCzAFA6/Q/AFseWkvN8vlnt1/69FTVasXLLy8r6t0OhLYRQ/rwhcjrTCgDDMJS+l/N6vdhvv/1URiAHihgtqAx/pDpGr30TXoSo0aqk74MOOggul0tJ3zvxOwCixJlWAKi+IUeOHMntf6nXNmxfackOf1aLGm3YsGOVkr779u2LkpISJX3vgjMARAkyswBQ+vPbBhuUkAPVNFWojhC32h3qso8aNUpZ35043UeUIFMKAJ/P10dKOdSMtuI1YgS/CaLeq29ZrzpC3Opb1WUvLS1V1nenYnRsCUxEcTKlABBCFJvVVrxYAFA8dkS3qI4Qt+0RddltUAB4SkpKClSHIHIyUwZtKaXPjHbiJYSA3+9XGYEcKhJrUR0hbu1Gs7K+7bDhlmEYPtUZiJzMrF/tukntxGXo0KE8AIjiEpNR1RHipnJHwNzcXOTl5Snrv5PS5w6R05lVABSb1E58nRcr7Z4oLfl8PqX9SylZABAlwKxvAJTeiMOGDVPZPVFaUn3faZrmUxqAyOHMmgEoMqmduAwdqnQBAlFaKihQ/g0ep/6IEmBWATDIpHbiovqXCFE6GjJkiNL+pZT7KA1A5HBmFQBKb0Qb/BIhSjs2KLxZABAlIOECoPNYzgEmZIkbXwEQJZ8NCu+BAHj+N1GcEi4ANmzYkAeFN6HL5UJOTo6q7onS1sCBA1VH8I4cOTJbdQgip0q4AIhGo0qfAv369YOmKd2EkCgteb1e9O3bV2mGtrY25VUIkVMlPHJqmqb0PRx//ROpo/r+U/38IXKyhAsAKaXS7cAGDFD6+QFRWlNdABiGwRkAojiZMQOQaUaQeOXm5qrsniit2aAAV/sOgsjBEi4ADMPIMCNIvLKz+Q0QkSr9+/dXHUHp84fIyRIuAIQQXjOCxMvrVdo9UVpTff8JIVgAEMXJjM/nWQAQpSm32606Ah8ARHEyowBQWoHb4AFElLZsUIBzBoAoTo5/BeDxeFR2T5TWVBfgqp8/RE5mxkeAfAVAlKZscP9xBoAoTmYsA1S6F7eUUmX3RGlN9S6cUkpuA0oUJzM2AoqYESResVhMZfdEaa29vV11hDbVAYicyozqWekNGIkorT+I0lo0GlUdQXkFQuRUZswAKL0BWQAQqcMZACLnMmMGgAUAUZpSff9JKVkAEMXJjI8Ald6ANvgFQpS2VN9/mqbxAUAUJ8fPAOzYsUNl90RpzQb3H2cAiOJkRgHQakIbcdu2bZvK7onSWmNjo+oILACI4pRwARCLxerNCBKvhoYGld0TpbVwOKy0f8Mw6pQGIHIwM74BUHoD2uAXCFHaUn3/qX7+EDlZwgVANBrdakaQeIXDYe4GSKRALBZT/g2A6ucPkZMlXABkZGQorcCj0SiamppURiBKS42NjaqL79j69es5BUgUp4QLgMrKyjYASn8GfPfddyq7J0pLGzduVB2hHoChOgSRU5l1kIbSWYDa2lqV3ROlpZqaGtUR+P6fKAFmFQBK38PZ4EFElHZsUHizACBKgFkFgNIR2AYPIqK0Y4P7rlp1ACInM6sACJnUTlz4DQBR8qkuAKSUQaUBiBzOlAJACBEyo514VVVVqeyeKC1t2LBBdYSQ6gBETmZKAWAYhtJKPBQKKT+UhCidNDc32+Hbm5DqAEROlhKvAGKxGIJBzgYSJUtlZaXqPQCgaRpveqIEmFIA2OFG/Pbbb1VHIEobNrjfpGEY61WHIHIyUwqAQCDQCEDpqTyVlZUquydKK6rvNyFEbSgUUnoSKZHTmfUKAADWmthWr9ngFwlR2lBdAAD4RnUAIqczswD4wsS2eq2iogKGwV1BiawWjUaxevVq1TGUPm+IUoGZBcCXJrbVa9u3b+eHgERJsHbtWrS2qp19l1Iqfd4QpQLTCgA73JArV65UHYEo5a1atUp1BAghOANAlCAzZwBWAVC6LsgODyaiVPef//xHdQSjqalJ+TsIIqczrQAIhUJhKN6bmwUAkfW++EL5j+/KTZs2NakOQeR0Zs4AAIo/zKmurua5AEQWqqqqwtatSg//BPgBIJEpzC4APje5vV775JNPVEcgSlmLFy9WHQEAlL+DIEoFphYAUsqPzWwvHh9/rDwCUcqySYFtiyqEyOlMLQDcbvfHAGJmttlbS5cuRSQSURmBKCW1tbXh88+VT/JF2tralqsOQZQKTC0AKisrtwFQ+nVuc3MzPwYkssDy5cvR1tamOsaK2traZtUhiFKB2d8AQAixxOw2e8sm7ymJUopN7ivlzxeiVGF6ASClVH6Dvvvuu8qPKiVKJYZhYOHChapjwDAM5c8XolRhegFghxv0u+++Q0VFheoYRCljxYoV2LJli+oYEELY4itEolRgegFQVVUVBKD8nO533nlHdQSilLFgwQLVEQDg61AoxI0+iExiegHQ6S2L2u0xvgYgMkcsFsP777+vOgYAvKk6AFEqsaQAkFIqv1E3b95shy1LiRxv+fLlqK+vVx0DsMEPC6JUYkkBkJWVtQCA8vVCr7zyiuoIRI5nk/uoSUr5keoQRKnEkgKgoqJihxBC+ZZ877zzDpqaeGYIUbzC4bAtvv4HsDAUCrWqDkGUSqz6BsAWrwFaWlrw9ttvq45B5Fivv/462tvbVccAOP1PZDrLCgBN05QXAAAwb9481RGIHOvll19WHQEA4HK5WAAQmcyyAmDdunVfAfjWqvZ7avXq1fj6669VxyBynC+++AKBQEB1DAD4orKycp3qEESpxrICoNMLFrffI88995zqCESO88wzz6iOsNPzqgMQpSKrCwBb3LhvvfUWNm3apDoGkWPU1NTY5eM/CCFs8RwhSjWWFgDBYHAVAOXz79FoFM8/z2cIUU/NmTMHsZjSk70BAEKIzwOBgPJXiUSpyOoZAAghbPEa4IUXXuCSQKIeaGxstMvafxiGwcqdyCKWFwCGYTxrdR890dTUZJsvmons7MUXX0RLS4vqGAAAt9v9ouoMRKnK8gIgFAqtAfCV1f30xOzZs9Hayr1EiPakpaUFzz5ri5odAD7l1/9E1rG8AAAAIcTjyeinO1u3bsVLL72kOgaRbT311FNoaGhQHQMAIKV8THUGolSWlAKgra3tSdjgbAAAeOyxx9Dc3Kw6BpHtbN++3U6//lsAzFUdgiiVJaUAqKmpqQNgixfw4XCYKwKIuvDUU09h27ZtqmMAAKSUz4VCobDqHESpLCkFAAAIIR5OVl/dmT17NrZv3646BpFt1NfX2+nXP6SUtnleEKWqpBUAgUDgfQCVyepvbxobG/Hww3y+EO30wAMP2OnV2NdVVVWfqA5BlOqSVgAAkEII23zU89xzz9lln3MipdauXYv58+erjvE9KeVDqjMQpYNkFgA7v+q1xTq8WCyGu+++W3UMIuXuuusuW+z616kpGo3OVh2CKB0ktQAIBoObADydzD73ZsmSJViyZInqGETKLFiwACtWrFAdY1ePVldX16sOQZQOkloAdJoJwFDQb5dmzpyJ9vZ21TGIkq6lpcVus2Axl8t1r+oQROki6QVAMBhcC+DNZPe7J+vXr8cjjzyiOgZR0j344IPYuHGj6hi7eok7/xElj4oZABiGcZeKfvfkiSeewJo1a1THIEqaiooKzJ1rr312pJT/UJ2BKJ0oKQCqqqoWAvhURd9dicViuPXWW+30IRSRZWx6vS8KhUJLVYcgSidKCgDAftX+6tWr8dxzz6mOQWS5xx9/HGvXrlUdY3czVQcgSjfKCoBQKPQ8gC9U9d+V+++/H99++63qGESW+frrr+34zcuKYDD4muoQROlGWQGAjpUAtyjs/0fa29tx4403clUApaTW1lbcdNNNiEQiqqP8gJTyJgBSdQ6idKOyAEAwGHwJwEqVGXYXCARw//33q45BZLq77roLoVBIdYwfkFJ+HAqF3lKdgygdKS0A0FH1/0Vxhh+ZM2cONwiilPLBBx/g3//+t+oYP+Jyuf5XdQaidKW6AEAwGHwVwDLVOXYlpcRf//pXbN26VXUUooTV1tbillts9bZtp8Xr1q17X3UIonSlvAAAACml7WYB6urqcM0119jufSlRb7S3t+P6669HOBxWHeVHhBA3qM5AlM5sUQCEQqG3AdjuPeCXX36Jf/zDVqsViXrl9ttvx+rVq1XH6MpLgUBgseoQROnMFgUAABiGcRUA2/3cnjt3Ll599VXVMYh67cUXX7TrtduuadqfVIcgSne2KQCqqqq+BvAv1Tm6Mn36dLv+iiLq0sqVK3HXXbbacft7Usq71q1bV6k6B1G6s00BAACxWOwvAGz35V1rayuuvPJKux2cQtSl6upqXHvttXbdz2KT2+2+Q3UIIrJZAbB+/foGADerztGVuro6XH755di2bZvqKER7FA6H8Yc//AH19fWqo3RJSnl9ZWUlbyIiG7BVAQAAxcXFswB8pTpHVwKBAK655hq7/rKiNNfe3o6rrroK69evVx1lTz4LhUJPqQ5BRB1sVwB88MEHUSnlhejYKth2VqxYgVtvvRVScudSso9YLIabbroJq1atUh1lT6Kapl0Cm97XROnIdgUAAHQeC2rLDwIB4LXXXsP06dNVxyAC0LFx1e2334733ntPdZQ9EkL8fd26dStU5yCi/3KrDrAnXq/3T+3t7ScBGK46S1deeOEFeL1eXKJpgMEfNaTO3XffjQo0tLQAABvySURBVHnz5qmOsTehpqam/1Mdgoh+yJYzAACwdu3a7UKI/1GdY2+eeeYZLCofB+G2bR1FKU3g/vvvx9NPP606SHcu2rRpU5PqEET0Q7YtAAAgEAi8AWCu6hx7c+P817BowiQIj1d1FEojQmgwvi3F448/rjrKXkkpHw8Gg++qzkFEP2brAqDTFQDqVIfYmxtefAlvHTQa8HhUR6E0oAkXWr4sxr9useUuf7vaHI1Gr1Edgoi6ZvsCIBgMbpJS/k51ju7c8vobeGVUGeDlTABZx6V5sH1FER678w3VUbo1ePDgxtLSUn4gQ2RTti8AACAUCr0M4BHVOboz490FeKF0JNCnj+oolILcWga++2Awnrzb/oP/gAEDkJWVNULTtPeOOeaYPNV5iOjHHFEAAEBzc/OVANaqztGde95fiAeHFQP77KM6CqWQDC0La/7dFy88skB1lG55vV7k5ubu/D8PjUQi706ePDl3b/+GiJLPMQXApk2bmjRNmwbA9tvwzVmyBNcbAoZPVx2FUkCWaxAW/asJ7/z7E9VRuiWEwKBBgyCE2PWPD83IyHjjuOOO668qFxH9mGMKAADo3EjEEeuJl6z+GhdsqEHbAQeqjkIOlquVYO5NlVix+GvVUXokLy8P3i6+g5FSTmhra3uLRQCRfTiqAACAYDB4BwD7bnm2i3U1tfj5Z5+jbvwE1VHIgXLa98d9l32A9cFa1VF6JDMzE/3773V8n8gigMg+HFcAAIhFIpFfAgiqDtITDY2NOP21N/GfQ8q5YRD1iCZcEFUjMf3il7GtcYfqOD3idrsxaNCgnvzViW1tbW9OmjSpn9WZiGjvnFgAoLq6ul5KeTqAFtVZeiIWi+EPb76NBwuLIQfnq45DNtbHNQCht3LwwP++jFgspjpOjwghMHjwYGhajx8nh2VkZLzFIoBILUcWAAAQCoVWArhYdY7eeGbpMvzP9ma0HzpGdRSyoVzNj/m3bsRrzyxWHaVX9tlnH2RkZPT2n7EIIFLMsQUAAASDwafggP0BdlURDOL49xbiyzHjILhzIKFjyj87fAD+cfFCfLu6SnWcXhkwYACys7Pj/eeHZWRkvD516tS4GyCi+Dm6AAAAl8v1ewCfqs7RG61tbbjktTfw0LAiyH169N6UUlSWeyDWzR+AOy9/Ac1Nzarj9EqfPn2Ql5fwHj9TNE3jTACRAo4vACorK9uklKcAcNZPJwBPLl2GMzduxqaJk4Cevz+llCCQG90fT1/3Dd58fonqML3m8XgwePBgs5qblJGRwQ8DiZIsJUadUCj0XSwWOx5Ag+osvVVbV4efv/wq5u5/IFBQoDoOJUGWeyCalpfg9t/Nw8bqzarj9JrL5UJ+fj5cLpeZzU7KyMiYf/TRR2eZ2SgR7VlKFAAAsH79+tVSytMAtKnO0ltSSty34D38cn0tasaO52xAitKECzmtB+CZ677Bk/fOh2E475wcIQTy8/Phseb7lcMjkchb/CaAKDlSaqQJhUIfCiEuACBVZ4lH7datOHP+63hcL4UxrFB1HDJRf3cBKl8ZgNsuegG1DvzVv1OcX/z3mBBishDiTRYBRNZLqQIAAAKBwLMA/qY6RyIeXfIxjlu9FosPGQMMGKA6DiXAq2XBu3F/3H/xUrz1ovPe9e8qLy8vkS/+e0wIMVnTtFdOOumkzN3/W1lZmbewsDCvqKjIX1RU5C8sLMwrKyvjGdxEcRDd/xVHEj6f7wEhxCWqgyRqVNFw3HzQgRi+aiVkxPxzkPq+/vZe/3vu884+ybXhl/V7/e+PVpxjSb+acKNf6wjMnfkZAms3WNJHMvXv3x8DBw5Map9SysUbNmz4WywWGwfgMAAjARQB2P3jgxiA9eg4LfRjAB8WFxd//MEHH0STGpjIYVK1AAAAoev6wwB+qzqIGU4sL8cVg/LQd+V/TG2XBYD5BUCeGIGFT1RjyXufm962Cv369cM+STzeur29Hdu3b8eOHTsS+U5iM4AXADwUDAa/MC8dUepI5QIAAFy6rj8D4EzVQcwghMCvx5Tj3D5eZHz7jSltsgAwrwDI0Xz44rUmvD73I0jpyM9QfiQrK6ur430t0dbWhnA4jOZmU/dDkADellLeHAqFlpnZMJHTpfrpNLG8vLxz6+vrswCcqDpMoqSUeOKz5Zitafj1hPE4N6svvF99CaTIYONUOa5ifPNeO2Y9+Y5j9u/viczMTDPX+u+RYRioq6tDU1OTFYWTAHCsEOIYn8/3hNvtvr6ysnKL2Z0QOVGqzwAAAAoLC/t6vd7XpZRHqM5iJpfLhXMmT8K0Pl5kfrEqrkKAMwDxzQAICOSgBCtfb8RbLy5JqYEfAPr27Yv8/HzLf/m3tLRg69atiEaT9rp+s5TyvFAotPcLnygNpEUBAAAFBQWZGRkZ8wAcrTqLFU4s2x+/KxiKfdZ+DbT3/GNBFgC9KwDcwovMVj+WPL8BH727PJFotrXzl7/Vg39jYyMaGhpUvC4xAFwXDAbvSnbHRHaScssA96S2trY5MzPzJCHEPNVZrPBaxWqc+u57uNiVgS8mToIsHK46Ukrp586HZ+MovHFbI+64cB4H/wTV19ejvr5e1bcSGoCZPp/v70ijH0FEu0vHi9+l6/pjAM5THcRKXq8X55QfijP6ZmDA2jXAHqaoOQOw5xkAl+ZBrizFN4ub8MrsD9HS0mp2PFvJyspKyjv/uro6bNu2zfJ+eujRYDB4ETpmBYjSSqp/BNiVWDAY/I2u6xGkyBLBrrS3t+OxT5biMQAHFBfj14ccgPK2FngrvgIcuAVtsgihIUfzof5bF15/ZiUC3/5bdaSk6N+/vxkn+3XLZoM/APxW13WwCKB0lI4FANBRBFyo63ozgD+oDmO1r6qqcG1Vx2GJ5bqOc0p0jG5phiewTnEyexBCQ46rCE3rM7Hk1Up89vHrqiMlVU5ODnJzcy3v5/+3d+/BUZ3nGcCf95zdBUkgCyywWATSLjLYYIOBAraCbeQ4Tdsk7bgT7DjGvTiXNp1p0rS5dDqTieN0OuNcnMml7TRJ69RObMd2O21Sx3ETG2pjISFkCI5IsFfaFUjCGGSuMmilPW//ACWKDOh2zvnO5fnN+B8Ga58ZGN7nu+w5ARz+I1gCKJbieATwG+rr6z8mIg8gRvchRty4dCmu3LgRjY2NWLly5QXf7hbVI4Dh4WHs2bMHOwv/jZanO9GxZ7/PycwTEcydOxeVlZWef1aAh/9oPA6gWIl9AQCAbDb7h6r6MIC3PHs8LmbPno3169ejsbER1113Herq6iAikSkAqop8Po/du3ejpaUFra2tGBgYMJzOHMuyMG/ePJSXe/9XPiTDHwCwfkZy/9W/fOWaewE+RpgijwXgvPr6+g0i8gMA3t+CCoGqqiqsWrUK96ztx7K5pzHXySMx0I2wvGixNLMGx+06PHTkDuzZswd79+7FiRMnTMcKBNu2UVNTg1TK+3fohGn4j1ifSr1y9f79K+5lCaCIYwEYZfHixVnbtp8CcJXpLEFjWRaWZWpwy8oqrFmkyM45g+rkMZQVe2ANHjWWS5OVOJtK4+hwNTqPz8ZLBxTbfn4c+7qOTOc58pGVTCZRU1ODRML76z9hHP4jWAIoDlgAxqitrZ2bTCYfA/AO01nCwLIs1C2Yg7UNlVi+MIm6eQlUlw2hMjWIWfYZlOlxpJwTsJ2zkKGJr8DVLkMpWYWiVYkzOgtvOmU4WUziyEAS+X7BL3oH8bOuU8j1GHmQTCiVl5dj3rx5sCzvr7uEefiPYAmgqGMBuDCpr6//lIj8A2J4OdBLs2dV4LIyIGFbmF81AwBQLFk4duosSqUSBgYVx066+jIYwrkjnaqqKl9e6hOF4T+CJYCijAXgErLZ7LvPXw6sMp2FaCr8vOwHRGv4j2AJoKhiARhHNpu9UlX/E8A1prMQTUYqlcL8+fORTCZ9+bwoDv8RLAEURdzeHkdXV9er5eXlN6jqI6azEE3UrFmzkE6nOfxdsrNYXPqLZcs67o3vw9MogrgDMAmZTGYzgH8B4P1j04imwLIsVFdXo6KiwrfPjPrwH407ARQlLACTlMlk6gA8BOAm01mIRisrK8O8efMu+ERHr8Rp+I9gCaCoYAGYGru+vv4TIvJ5AP7ssRJdwpw5c3DZZZf5cst/RByH/4j1qdSrV+/fv/xelgAKMd4BmJpSoVC4X1VvAvCK6TAUXyKyr6qq6v1VVVVH/Rz+R48eje3wB4CXh4auXL/museV/4ZSiPEv7zQUCoUWVV0lIp8DUDSdh2JlSETutyxrze7dux9V1VsB+PJIxv7+fpw6dcqPjwqkmSK4v2o2Vs1I3tZ3/bpvswRQWPEIwCXZbPZaVf02gPWms1C0qWpzIpH4cC6X6xj9601NTatE5KcAqr367Dhv+wPnhv8XqmZjzYxR71FQPJhuafug8C2CFDIsAO6yMpnMBwF8GcAs02Eoct5U1fsKhcKXAJQu9Bu8LAEc/hcY/iNYAiiEWAA8UFdXl7Ft+8uqepvpLBQJKiLftyzrk7lcrme83+xFCeDwv8TwH8ESQCHDAuChurq6JsuyvgJgleksFE4i8pKq/lU+n39hMv+fmyWAw38Cw38ESwCFCAuA96xMJrMFwBcAXGE6DIXGUVX9+0Kh8A1cZLt/PG6UgKNHj8b6wl+ZCL44pxLXpSbxbV+WAAoJ3l71npPP5x9S1asAPABg0HQgCrQzInJ/KpXKFgqFr2KKwx8Atm7d+rPpfDvg2LFjsR7+I7f9JzX8AUDwp32N6/6V3w6goOMOgM+WLFmyyHGcTwD4MwAzTOehwBgC8ODQ0NB9PT09vW7+4KnsBJw8eRL9/f1uxgiVKa38xxJ8J93c9gHuBFBQsQAYcv6Rwn8H4B7wBSNxNgTgMdu2P5fL5Tq9+pDJlIBisYi+vj6oqldxAm1SZ/7jYQmgAGMBMCyTySxT1c+KyB3glmGclAB8z7bt+7wc/KNNpASoKnp7ezE0NORHpMBxZeX/FvpoujZztzzxxJSPc4i8wAIQEIsXL87atv0xAB8EUG46D3lmAMD3ADyQz+f3+/3h45WAY8eO4fjx4z6nCgZXV/5jKR5LL6rfwhJAQcICEDBLly6tLhaLHxCRjwJIm85DrnldRP55cHDw6729vUYP1y9WAkqlEnp6euA48dut9mblPwZLAAUMC0BA1dfXzxSRPwLwcQBXmc5DU6OqHSLyFdu2v5vL5QLzDZALlYA33ngDJ06cMJjKDE9X/mOxBFCAsACEwJIlS9Y6jvNhAHcBqDCdh8Z1FsAPReSbXV1dzwII5G260SXAcRwcOHAgdhf/fFn5j8USQAHBAhAi2Wz2MlW9A8CfA1htOg/9JhHZ5zjOQ8PDw9/q6el5w3SeiRgpAadPn64+cuSI6Ti+8nXlPxZLAAUAC0BI1dfXbxCRLQDeC6DGdJ64EpFeAE+KyMOdnZ3tpvNMRVNT06rDhw+3nTlzxsdlsFlGVv5jsQSQYSwA4Wdls9lGVd0M4HawDPihH8CPADxRV1f39LZt24ZNB5qO2trasmQyeRyAgaWw/4yu/MdSPJaeWXG3hPzvEIUTC0CEbNq0KdHd3d2Ec0XgXQAWGI4UJT0i8pSIPN7Z2fl/mMYjeoPm/EurnjOdww+BGv4jWALIEBaACFu8eHHWsqz3iMi7AdyEmKzwXFICsEdE/kdEftjZ2fkSAnqZb7oymcwnce5lVZEWiG3/i2EJIANYAGKioaGh0nGcWwH8NoAbVfVq8M9/NAfAPlV9AcAzFRUVz3Z0dJw2HcoPmUzmmwA+ZDqHlwK58h+LJYB8xgEQU8uWLZs9NDS0AcBGVX0bgLcBKDMcy09DAPYCeBHA9mKx+JzpB/SYkslk/hfAO0zn8EqgV/5jsQSQj1gACACwYsWK1MDAwGoRWQVgJYBrz/83x2wyV7yBc8P+ZQAvi8ieOXPm7Glvb4/nA+/HyGQyLQA2mM7hhVCs/McSfD+dqtjCEkBeYwGgS1qyZMkiVb3WcZxrRSQLIAOgHkAdgnWnYBBAN4C8iBQcx+lS1ZeTyeTLuVyux3S4IMtkMntxruxFSqhW/mOxBJAPWABoqqyGhoa04zj1qpoBMF9Vq0WkWkSqVfVyEblcVS8HMBtTe8HRAIBTqtovIv0i0q+q/ap6RET6ARwWkUKxWMz39PT0IaKX9LyWyWR2AVhrOoebQrnyH4slgDzGAkC+amhoqCwWi3YqlUoUi8XZI7+eSqVOFYvF4bKysuH9+/efMpkxbjKZzDYAN5vO4ZZIDP8RLAHkIRYAopjLZrOPqur7TOdwQ6SG/wiWAPKIZToAEZmlqjnTGdwQyeEPAIo7+ooD39VNmxKmo1C0sAAQxZyq/tx0hukqE8GX5lRGb/iPYAkgD7AAEMWcqj5vOsN0zBTB/VWzw3nbfzJYAshlLABEMdfd3X0IwC9N55iKyK/8x1Lc0Tc48D2WAHIDCwARQUQeN51hsmKz8n+r21kCyA0sAEQEVX0EIXqOQuxW/m/FEkDTxgJARMjn8/sBPGM6x0TEeOU/FksATQsLABEBABzHCfwrgbnyfwuWAJoyFgAiAgB0d3dvBfCU6RwXw5X/RbEE0JSwABDRr4jIx3HuxUqBwpX/uFgCaNJYAIjoV7q6ul5V1b81nWM0rvwnjCWAJoXvAiCisSSTyfwXgN83HSTUr/Q15/H0jIq7+O4AGg93AIhoLE2lUlsAtJsMwZX/lHEngCaEOwBEdEGZTOYKANsBNPj92Vz5u4I7AXRJ3AEgogvK5/OHbdtuAuDr2wK58nfN7YcGBx7hTgBdDHcAiOiSGhoaakul0lb4sBMQ2Vf6GiTAEwtmVLyfOwE0FgsAEY3LjxLA4e8dlgC6EB4BENG4crlcj23bTRUir3vx8zn8vaXA5r7B0w/p5s226SwUHCwARDQhuVyu57aysnfX2NaQmz+Xw98vcuehnsKjvBNAI3gEQEST8pkVK9b9dPDsi6+VnGnf0uPw9x+PA2gEdwCIaFI+39HR9s4ZMzdOdyeAw98MBTbz2wEEsAAQ0RTc29Gx850zZm68YoolgMPfLJYAAngEQETT8Jnlyzf8pDj4wuFJHAdw+AeHQJ5cMKP8Th4HxBN3AIhoyj6/b1/r75SnbproTgCHf7Ao9L19g6cfUs6CWOIOABFN20R2Ajj8A0zwnXRz2z0CqOko5B+2PiKatvF2Ajj8A07xJ4euX3ef6RjkL+4AEJFrLrQTwOEfIqJ3Lmze9ZjpGOQPFgAictW9K6++/sdvFp8/XHKSHP6hM+A4VuOi1ta9poOQ91gAiMh1n1m+fMPzQ8XnPzG7IsXhHzq/dJBYs2jHjjOmg5C3WACIyBP7Vq+uq5qZeFaBJaaz0OSI6APp5l1/YzoHeYsFgIg809e4uk41sRVAxnQWmhRHRTbWNu/cYToIeYffAiAiz6Sbd3djGDcL0Gk6C02KJarf4PMBoo1/uETkqYVtbQchw28HkDedhSZlTV/juj82HYK8wyMAIvJF77p1iySBrbwTECKCg8dPvNmwoqOjaDoKuY87AETki4VtbQd1GE0KdJnOQhOkWFRVWbbFdAzyBgsAEflmYVvbQUuGbwFQMJ2FJkjk08rd4khiASAiX6Wbd3eL7dzMnYCQUCztvWHdLaZjkPtYAIjId+nt7Qcs2+FxQEiI4EOmM5D7uK1DRMYcuv76ekdKWwHUm85ClzQ407HmX97aetJ0EHIPdwCIyJgFLS0FHgeEwoyzdun3TIcgd7EAEJFR6e3tB2y13w5eDAw2ldtMRyB3sQAQkXHcCQgBwS38NkC0sAAQUSDwYmDAKapf27DhatMxyD0sAEQUGL8+DpBu01nordR2NprOQO5hASCiQDl3HFC6CXx3QOCoyrWmM5B7WACIKHDS29sPiO1sAktAwOhy0wnIPSwARBRI6e3tB+yS8DggWJaZDkDuYQEgosCq2bkzz+OAQLlCOTcig3+QRBRoPA4IlMShtWvnmg5B7mABIKLA+/VxAA6YzhJ3OlMuN52B3MECQEShcO44wLkR3AkwylYkTWcgd7AAEFFo8DjAvGFIwnQGcgcLABGFSnp7+4GEjVvB4wAjtGQ5pjOQO1gAiCh0rtje1iUyzG8HGJAQ4SuBI4IFgIhCKd28u1tkuAksAb4qJhInTGcgd/DNTkQUaoc3rssOl7AVwGLTWWKgmN7RViYAjwEigDsARBRqPA7wkaDA4R8dLABEFHo8DvCHKjpNZyD3sAAQUSSwBHhPID83nYHcwwJARJExqgQUTGeJIgXaTGcg97AAEFGkpJt3d5fEuRWCg6azRE2ihF2mM5B7+C0AIoqkvsbVdaqJbQDqDUeJivzCHW1Z0yHIPdwBIKJIOn8csAk8DnDLj0wHIHexABBRZPE4wD0q8rTpDOQuFgAiirTFze2dguEbwZ2A6eg/cWLgJ6ZDkLtYAIgo8ngcME2ij6zo6CiajkHuYgEgolhIN+/udlB6B4Ae01nCRkr2v5vOQO5jASCi2Fi046WcpTaPAyZBVLemW1vbTecg97EAEFGsLGhpKVhq82FBEyTAF01nIG/wOQBEFEsHb1jTYMHeCqDWdJYA25Xe0bZeADUdhNzHHQAiiiUeB4xPRT7N4R9dLABEFFsLWloK5y8G9prOEjiCH9Q273zOdAzyDgsAEcXaoh0v5RyUNoHfDhhtIGHh46ZDkLdYAIgo9s6XgCZwJwAAoIpPXrG9rct0DvIWLwESEZ13cMOGKy3L2QpgoeksBj2T3tH2uzz7jz7uABARnbeotfVVx7HivBPQI0VnC4d/PLAAEBGNEuMScFYta3O6vf2o6SDkDxYAIqIxYlgCHBW9u/bF1hbTQcg/LABERBcQoxKgEPxlbfOuJ00HIX+xABARXcSoElAwncUjCuhHFza3/ZPpIOQ/fguAiGgcB962Op1wEj9W4FrTWVxUEsFH0s1t3zIdhMxgASAimoDujRvnJJziD6C60XQWF5y0VN+3oGXX06aDkDk8AiAimoC67duPvXnZG7dC8TWE+WtyglcsC40c/sQdACKiSept/K0/gMq/AZhrOstkKOTh1IyBv5i/reO06SxkHgsAEdEU9DWurlNNfB3Ae0xnmYBeEf1YunnXf5gOQsHBAkBENA09jevfZal+VYElprNcQFEg/5i0kp+d9+KLp0yHoWBhASAimqb8pk0zk2dPf0RE/hpArek8AEoCfNcqyedqdu7Mmw5DwcQCQETkko4VK1JVlRV3Q/RTUCw1EOGkAg8qSt9YtOOlnIHPpxBhASAicpkC0nfDuhuguAuCOwBc7uHHlSB4DsCjKUk9ya1+migWACIiD+1auza5IGndrJY0ieomAdYpkJzWDxUcFMVzEH3WQuqZmubm112KSzHCAkBE5KPXVq6sGCpPXiNiL7PEWaoqV+Lc1wmrAJQrMBMABHpaYJ1ROIegcgCCgyLWXgv2Hg58IiIiIiIiIiIiIiIiIiIiIiIiIiIiIiIiIiIiIiIiIiIiIiIiIiIiIiIiIiIiIiIiIiIiIiIiIiIiIiIiIiIiIiIiIiKX/D+j0GKMlZ/WVQAAAABJRU5ErkJggg==;fontSize=11;" parent="1" vertex="1">
          <mxGeometry x="720" y="309.85" width="61" height="61" as="geometry" />
        </mxCell>
        <mxCell id="TJ1niBv9A0Y08c_3gPOE-124" value="Machine Learning" style="shape=image;verticalLabelPosition=bottom;labelBackgroundColor=default;verticalAlign=top;aspect=fixed;imageAspect=0;image=data:image/png,iVBORw0KGgoAAAANSUhEUgAAAgAAAAIACAYAAAD0eNT6AAAACXBIWXMAAA7DAAAOwwHHb6hkAAAAGXRFWHRTb2Z0d2FyZQB3d3cuaW5rc2NhcGUub3Jnm+48GgAAIABJREFUeJzs3Xe4VNW5P/Dvu/e0U+iIXREsKJEmAmoSSzSJBezYwNR7/SW5atQkRhNvRlSKJjGa6E1yY0wULGCLNVXNjQUQRUSwgbEbRemnzMze6/39MWBQTp89s9ae+X6eh+fhwNl7f+HMOeudVQVENU6/e/EoUzBHS6hjYHR3qNkexjSo0bQAAjUeFICIQkThSajwCuIhp57/rgheVg9Pe17qH7ja/4cga2z/m4iIOiO2AxBVml7wg8+aIPyKBOHBCIOdEZhEZDf3PINk4h31E495CdwsP53xYGT3JiKKEAsAqgl6/oUHoiCXmELhYAmCuoo92PcDk0o85acTV8iPpz9QsecSEXWCBQBVLc1mE2Z9/r8lV/gmcvkBtvMglWiSRPJBNHpny/Tp79mOQ0S1jQUAVR299to0VrzzC5PLnylhmLKdZyuep0inHpeEfEmunvmq7TjUNfriV3shlx8FMdsBXgGBWSxjbnnddi6inmIBQFVD5871zfKV/wFgGsJwG6zfCGluBVRtR2ubJ2rSqQV+796T5Yofvmk7DrVNl525C4LgMkBOBvDJ4aOlEJ0lI26ZYyMbUSlYAFBVKGRnHOYBVwMY8fG/CIB16yGteTvBukA9zyCT/rV37YxvCsTRaqU26ZIpkwC9BUBDJ596F5ryU+TAeS2VyEUUBRYAFGs6ffoAk8f1gExu/5MU0tIKrNsAhA6v0Esl10gmOYUrB9ygS6YeBpg/AejqKpF7MWLOcSJgEUexwAKAYquQnXG4B/wOwI5dusAYYPU6SGuurLlKIgLUp+/2rpl1gu0otUwX/Wc9kk0vo6uvrY8uxNdk1JzflicVUbRYAFDsaDabMkj9GJD/Qg9ew7KhCVi/0d25AQCQSb0hydSBcvUVb9uOUot0yenfAOT67l8pKzFi9h7sBaA48GwHIOoOzf60f4j0nwA5Gz0sYLVXAzCwH+A5/PJvze+iLc3/1At+yJ4AG0S+0rMLdSiWnj4m2jBE5eHwT0Cij9PLrhxqkHtcgENKvlc6BR00AEj4ESQrk8Akdf3GO/S8i8+zHaWW6JKpu0Extsc3MN6Izj+JyD4WABQLmp01zoTBQgDDIrtpwi8WAalkZLeMnKrohuafhudcdJXtKDVDwskoZXhUtHI7TRKVgAUAOU+nzdjfQP8ESP/Ib+550IH93C4CoJDmlu/oORdxclklKE4q8foPI0pCVFYsAMhpOm3GaGP0j4D2LdtDPA86sL/zRYA2N38lPPfin9pOUs30udOHANLz7n8A0HBBRHGIyooFADlLs9P3MQZ/K8s7/0/yBDqgn9tzAgBIc9N54TkXfs92jqqlckqJd1gqo297LYooROXGAoCcpNmf9jeQPwDoV7GH+puGA1xeHaCAtOZm6nkXn247SnWSk0u6XGVeREGIys7hn3RUqzSbTSjycwHsXvGHJxLAgPKNNkTCqGhzy016fnZP21GqSbH7X0eXdBNf7ogoDlHZsQAg5xikf6LQz9l6vqZTQJ9eth7fNaHxtbXpH4osv4ejot6ppd1AnpN9b34hmjBE5ccfHuSUwqWzjgBwtu0c2lgPzaRtx+hYPj8I5zT/wXaM6qGldf+LYfc/xQoLAHKGzpjRz1PzO7iwRbUI0K+32/MBAGhz/hg976Iv2c4Rd7r0lKEARpV4F3b/U6y4/dONaorJ4ToAO9jO8RHfd38oAAptyV2v2WzKdpJYM4nSuv8VS2TErS9GlIaoIlgAkBMK2RlfBHCa7RyfpA11xTkBLgvCel3dMsd2jFhTlNj9D3b/U+ywACDrdO5c3wPc3eq2b2/bCTrXmjtRz7+ktBnsNUqfPXNPCEaWdBMxd0YUh6hiWACQdeHylV8B8CnbOdqVTEAb622n6JhR0Xzudtsx4smUuvnPs+z+pzhiAUBW6VVXNQgwzXaOTjU2FicGuqw1v4eed9FnbMeIHSlx9j+4+Q/FEwsAsso0h18HsL3tHJ1KeNB61w95U5hC+D+2U8SJLpmyF4B9S7qJ4fI/iicWAGSNZrMe1Fhf899lvRuc7wWQXH64fvfiMbZzxIZqqd3/z8joW16JJAtRhbEAIGtCpCYBMtR2ji7zffdXBKhCc+Z62zFiQ0qc/a+c/U/xxQKALJJv207QXeL6ZEAAaM3tr9de6/g2hvZt6v4vbfJpknv/U3yxACArNDtjsACftZ2juzSTLm4Q5DJjPPPqO9+xHcN9psS9//G0DJ+9IpIoRBawACArDPQkuLDlbw9ofcZ2hM7lw6/bjuC+Eo/+FWX3P8UaCwCyQiEn2c7QY3XuFwBSKAzWiy/e1nYOV+lzpw0DMLykm0jI7n+KNRYAVHGanbmLAONs5+ixZML9YQBVmGZ8w3YMZ6lfYve/LpJ9b18ZTRgiO1gAUMWF0M8jpt3/AAAR91cDAJAwONp2BnfpiSVdLtz8h+KPBQBVnAAH2c5QKsm4XwBoEJbWxV2ldNFpA1Fy93/Avf8p9lgAkA2xLwBi0QNQCOr0WxftaTuHcxIYhlJ6oARPsfufqgELAKoozV41CMDutnOUzPcBz/1vH+Orc0csW+ehtAkcyu5/qg7u/wSjqhIgGIM4j/9vQVMJ2xE6JVAeEfxJfvKfJVytMAELAKoKLACoojyJ0da/nUkkbSfonJo9bEdwzj43vQlIT7vwF8jo216LMg6RLSwAqLJUd7MdISqScHwpIAANzQ62M7hGBAqYX/bw6mujTUNkj/t9mOQEhQouv2KXIEzuKWp2FUEfqDQA2gigz6ZPawHQDMEqVVnle+afMPmlks2u33wfgeymUCv/hsi5vhcAAASmt+0ITqpf83O09P8KFPt0+RrBo9h39m1lTEVUUVUxFkvR08sv3zUM/EMFOAzACAB7Aqjr4e1eE2CpQpcC3umADo4sqE35AuT9D22n6JT3m2v4fd4GXTJ1N8D8A8COnX6yYDmC/CEyZt6q8icjqgz+YCAAm97hZ2d9xsCcDuDwWB3Ta0sYQt51vz2QPolt5Cc/+cB2Dhfp0tO2hfH/F9CJ7X0KgNko5M+WsfPWVTIbUblxCKDG6WVX7mHCcKrBzKkABrMm7I6Y/F8l6rcFwAKgDbLvre8BmKTPnjoa4p8GYAyAvgA+gOIpeGaOjLj1RbspicqDBUCN0mkzRxqjF5gwPB0ocV10rZKYFAAaDgKwzHYMl8mo2xYDWGw7B1ElsQCoMTpt+kFqcIkx+gXbWWIvJu0/AjPQdgQicg8LgBqh2Su3MwivNAZTEJ+mi6KgXgw2LCCiSmMBUOU0m/VCZKYYhD8FMMB2HiIicgMLgCqm2Vk7hTC3CTT2h+8QEVG0uBNglSpkZxxuYBZVw9G7REQUPfYAVBnNZj2D9HQA3wPH+omIqB0sAKqIZrMpg9TvAZxqOwsREbmNBUCV0KuuatCm4A4AX7SdhYiI3McCoArozJl9wqbgLwLsbzsLERHFAycBxpxms5mwVe9l409ERN3BAiDGdO5cX5GeLcBnbWchIqJ44RBAjJnlr/4PgBNt5yAiovhhD0BMBdkZXwf0P2znICKieGIPQAxp9opPGeAa2zmIiHpKl53ciCA9ETDjAekPyEaoPgfx7pKRN79vO18tYAEQM3rVVQ2mKZgLoN52FiKi7lLNenhuxQUI9GJA+/57vzLd9Fvzc11yxvVowSUyYc56i1GrHocAYsY0BVcC2Nt2DiKi7tIXv9oLz73yAKBXAujbzqclAJyDDP5Pl562bQXj1RwWADGi02bsB+As2zmIiLpLl315O+Ryj6Krm5UJRsJ49+qi/+Rx1mXCIYCY0GzWCw2uE8C3nYWqhy6aWA+VvQAdBpWhCHUHeLINjOkH0Uao1gOSgJo6AAkIPCgyEGmBqhbvIgYiTcXfwkCxFp63GiqrAPMeJPEufLwJwZtYmVwqk+fl7f2LyQZdOnVvBIWHAOzazUvHIdV8FoBflCFWzWMBEBNGMmeJ6njbOSiGBrZsrwuPOxdaOBAGQ6FmB6jpB0UKLS2V7QXcXqCPfz6AeE3wvA9hvLfhef9EQpej4D0qB/xhQUXzUNnpkimfgTH3AOjfoxsYPRcsAMqCp8XFgGazGYP0SgA72M5CW1CFvP2e7RSdkqNbgCFNgBogLABhCGgAhJt+QW1H/DcRhedvgPhvwfOeh+JJJPz7ZOw9K21Ho+7TZ884HoI5AOpKupEJd5PRt70WSSj6CHsAYsBI5mtQZeNPpREPSKS3/q43wabCoAAEheLHtqgKwqA3EOwDYB8Ak1HA1cVeA/9t+ImFEDyIIHO7HDivxV5Q6owuOePbAH6CKOaa+d7uAF4r+T70MewBcJz+6ldJ8+7qlwEMtp2FPiFuPQBdtbmnIMgDYX5TL4FjRBReYg0873mIfyua1/9ODn201XYs2rTMb8mKH0P0vMhuKjhKRsx5KLL7EQD2ADgv/NeHpwtksOUYVEs+6ilIFz/WsFgMbP6lxm4+YFNPQaE/QnwWwGeRSl6vTx61CuI/AklcI+PvftJ2xFqkrxyZxnMrfgfRUyO9sfE5BFQGLABcp8Jlf2SX+ECyrvgLKPYOFHJA0AqY0G62zYwKTH4QgFMAnKKPfyEHP/UsRP5Hxt/7e9vxaoE+d3o/NHt3A3pwxLd+GyOHrIj4ngQOAThNszN2N8DL4NfJTdU6BNAdJgAKrcWCwObcgY54XgA/9Rw875fY/94bROBAF0Z10WdO3xUJeRCKfcpw+x/KyDlXlOG+NY8bATnMQKeCjT+5zEsA6UagcQDQMABI1ReHEFxiTAKF1jHINf8aT3w+p/OPXqBPHjvRdqxqoYtPHwVfnihT4/8Seid/Uob7ElgAOEuhAsgU2zmIusxPAJleQK+BQH1fIJl2r3w1JoFCbhyCpnv18SPX64Kjf6dLJ3G72R7SpVOOgCf/h3IsURa8C9GjZLffcXJnmbj27UmbFE/885bazkEd4BBA59QUhwjyTYBxteddAD/xFvzkzzHu3h9ziKBrdMmUMwH9DYAybNUrK2HMkTL6lleivzdtxh4ARxnIYbYzEJVMvOKwQOM2QH2/f68scIoCYWEn5Jtn4YkvbtT5R9+gj03qZTuVy3TJlHMB/R3K0vhjAcLcAWz8y48FgKME3qG2MxBFKpEqDg00DgBSdW72P5qgDoXcV4HcGp0/6S+66JShtiO5ROee7OuSKdcD+jOU4yuoeg8KDYfJmHmrIr83bcXFb8Gap3Pn+mb5ylUA+tnOQh3gEEBp1AC5puIQgQt7C7RFROEnl8JPnC3j7v0/23Fs0iVTGwC9FdAyTaDU32D1O9+QQx91dDlJ9eE+AC5avmIvQNj4U3UTrzhpMN0I5JuLv1wrBFQFQX4EgsLfdf5RLwHpr8uEux+zHavS9IUzByAX3gvBgeW4PSDTZOScbBnuTR3gEICDQmCY7QxEFSMCpBuAxoFAupd7ywgBAAoU8nuhsPEfOv+olbpwYtSb3ThLF586GHmzoEyNfx6QM2Tk7GwZ7k2dcPE7reaJyF62MxBVnAiQrt80R6Aebo5QKlDID0G+5VF98qjn9Onj9rOdqJx00WkD4fl/BrQccyHWQfWLMnL2rWW4N3UBCwAXKfa0HYHIms1DA702TRZ0kQII8vuipWmRPjnxYV102kDbkcoiIVcC2KMMd34HRg+RUbc8UoZ7UxexAHCQlucbjihexAcyvYtDA4mU7TRtUwWClkPRuvpfOn/izarZqplXpc+euSNEzizDrZfBCyfI6FueLcO9qRtYADhIgAG2MxA5w/OLewjU9wM8R39kaeij0DIFT85fq/MnftN2nEhIcCIAP9qb6sMo5A+SfW97M9r7Uk84+t1U87gJCdEnJVKbJgo2FOcLuCgMGlBouU6fPGqFLjgq3kN56g2P+I63IFE4UsbOWxfxfamHWAC4iQUAUZukuGywYYC7wwIAEOSHolB4Uecfc4Oqk7MZOyca5QSMazFij6kyfF4+wntSiVgAOKZ4CBAabOcgctrmYYG63u72BqgKCq1fxRNHrtb5x33edpwe+DCCe4QQ/JeMnHOuSNaxTR6IBYBr5s7zwK8LUdck64rLBp08Y2ATU+iLwsY/6YKJ9+rckx3utvgE0SdKvEMLRE6SEXOuiyQPRY4NjWNk8uQQQIvtHESxIX7xjIG6Pu72BgBAvmUidtqwSucf/2nbUbqkbs29AHq61/VqqPm8jJh9T5SRKFosANzESTJE3ZXMbJobUI4D6iISBr0RbPw/nT/xZttROiN7PJQD9NIeXPoq1D9ARt1ac1smx43D5XJ8aTbbWBycDBvhSa/AoA8AL+FpCyCtkGA1Ghr+Jeef3+Y7/TA740UA3A3QdTwMyF35ZqB1g+0UHUuk3kLGO0xG3+/ssbeqECw94yYopnTpAsFTEDNR9r3V/W8MYgFQCs1mM4EkD/BU9gO8PRW6lxT38R/UtTvIWoVZIZAXIFjmic5HXXJR2FR4WCDjyhqeSscCwG1hAWhZB5jQdpL2iR8ikfqOTLjvZ7ajtEc162HJiukQvQAdHSAn+C3UO0dG3lyDL7Z4YgHQTZqdNdZAvyjQQxU4EEAm4kcEAEIADs9qIgAsAGJBgZb1xSOHXZZI/xUT6r8oMs/ZakWfPW04xPsmgKMA7IziJkHvQPAwFNfJyDnz7Sak7mIB0AV6+eU7mjBxElS/AmCk7TzkCBYA8RGHIQE/+R60brwcdNfrtqN0Rh85JIFB23hc1x9vLAA6ULj0is/56n1fgcPACZP0SSwA4iUoAK2ODwl4XgFe5lQ54N67bEeh6scCoA2F7IzDBbhMgAm2s5DDWADEjwmL8wLCgu0k7RMB/NTP5YAHzrEdhaobC4AtaHbWuBDhdQIZazsLxQALgHhSBVpjMS9gCSY8MEYE3EGPyoIFAADNZvsapC8F8C1EfvoVVS0WAPGW2wjkHP9/8ZNvAWakHPin1bajUPWp+XHtIDv9BIP0SwDOARt/otqRbgQyvW2n6FhY2AnqvaaLJg6zHYWqT80WAPqrXyXD7IyZArkDXV63T0RVJVUHNPSD052hptALufxz+tTxR9iOQtWlJgsAzc4YEr774RMALoTT3/lEVHZ+qlgEiMM/Dk2YRL75j7pwUtd25CPqAodf8eWh02bsb4D5nOhHRB/xk0BD/+Ixw64yoYd8y0365LFcHUCRqKkCoHDpFZ8zBn8DsI3tLETkGM8vFgF++7vdWqcqCJqu0QUTL7YdheKvZgqAIDvzdE+9hwD0sp2FiBwlHlDfr9gj4LJCyxU6f9KVtmNQvNVEARBkp08S6O8BOP5dTUTWfVQEuNwTAKDQ/F19ctL/2I5C8VX1BUAhO+MQgdyOjk6xIiLakoj7RQAABM3/TxdO+oXtGBRPVV0A6LSZ+3qQuxH9iX1EVO3EA+r7uz8ckGv+ls6f+GPbMSh+qrYA0OyPBxqjDwLa13YWIoqpzT0BnuM9AYWWC3T+xP+2HYPipSoLAIWKonADgJ1sZyGimBMp7hPg8hJBACi0XqoLJp5nOwbFR1UWAObSmd9TYJLtHERUJcQD6vsWiwFnKVBo/YkuOPbrtpNQPFRdAaDZWeOguNx2DiKqMl6iOBzg8o6BqoJ88691/nGftx2F3OfwK7n7dO5c38D8EpzxT0Tl4CeB+j6ObyCugrDlfp1/7D62k5DbqqoAMMtXfAvAaNs5iKiK+Skg08d2io6ZMIkwt0AXHD/AdhRyV9UUAHrFFdsC3qW2cxBRDUhmgHSD7RQdM0EjwtZlOvfklO0o5KaqKQBMwb+MS/6IqGLSjUAibTtFx8LCttil+QnbMchNVVEAaHbWToB+yXYOIqox9X3c3yiokNtP50+6wXYMck9VFAAG5jsA2M1FRBUmm5YHur5HQMtXdcGxp9uOQW6JfQGg06cPAPA12zmIqEaJV+wJcHppgAKF1t/rgqP2tJ2E3BH7AsDkvbMANNrOQUQ1zE8W5wS4TMMEQn2SkwJps9gXAIBOtZ2AiAjp+uLqAJeFhf7YqeVR2zHIDbEuAHTa9PEAhtnOQUQEAMj0BjzHf6yGrQfowkmX2I5B9jn+Su2YMeC7fyJyh2yaFOi6fGtWnzr6U7ZjkF2xLQAUKoCcaDsHEdHHeEkg3ct2io6p8RCYR1Tj2wZQ6eL7xc9OHw5gO9sxiIi2kq4vbhnssqAwEAuOud12DLIntgWAgRxmOwMRUbvqXF8aCCBoPUkXHX+y7RhkR2wLAIF3qO0MRETt8jygzvWhAAC55pt0/pG9bUehyottAaAwn7WdgYioQ8k6IOn4eQEmzADefbZjUOXFsgDQK67YHpD+tnMQEXUq3au4OsBlhdxndeGxp9iOQZUVywIgKHh72c5ARNQlng9kHN8lEACC3A3cJbC2xLIA8ERYABBRfCTr3T81MAwasEvzXNsxqHJiWQBAwQMtiChe6nrHYSjgWF10NCdY14h4FgAwO9hOQETULV4CSNXbTtG5nOHeADUilgWAQBxfW0NE1IZUQ3FOgMtMYRtdcMyPbMeg8otlAWB4/C8RxZGI+8cGA0Ah/wPuDVD9YlkAsAeAiGIrmQESjk8IVJOEJGbbjkHlFcsCANAYDKQREbUjE4M314XWY3T+pBG2Y1D5xLQAQM52ACKiHvMSxV0CXaYq0JATAqtYLAsABTbazkBEVJJ0g/vLAoPcMJ1/1LG2Y1B5xLIA8KAsAIgo3jwfSDneCwAAil/YjkDlEcsCAPA22E5ARFSyVAPcPzI4v5M+MfE02zEoerEsABR4y3YGIqKSiQek4zCnObjadgKKXiwLAEBX2k5ARBSJVAzmAoSFbXXBsV+3HYOiFcsCwAArbGcgIoqESHFCoOvC/EzbEShasSwAEr7/iu0MRESRSdXHoRdgAHsBqkssCwCEzf8EdLXtGERE0ZB4HBRkClnbESg6sSwAJJs1AnnSdg4iosgk69zvBQjyO+r8SUfYjkHRiGUBAAAq+IftDEREkfF8IJGxnaJzGv7UdgSKRmwLAE+FBQARVZc4LAkMcp/SRROH2Y5BpYttAQC0LgTwvu0URESR8RJAIm07RecCXG87ApUutgWAZLMBoHfbzkFEFKk4TAYMcgfrspMbbceg0iRsByiFEb3dUznLdg4iosgkUsX5ACa0naR9ajxszE8DcL7tKJWimvWw9KU9YbyxEB0LyKcA7ABgAwQvQ/EHvJS/WybPc/gL93GOTzntmGavGmQQrADQy3YWqkGqkLffs52iU3J0CzCkyXYM6o5cE5Bz/MwzP/mhHPjQQNsxykEVguVThiIwYwHZ9EvHoPO25gWofllG3bKwEjlLFZsCQK+4Ytuw4B8q0FECjFBgBIAdbeeiGsYCgMpFFdj4PqC2g3SiofFwGXPP32zHKJUuPnUwPH8sVDa9u8d+APr28HatEJwgI+Y8FGHEsnB2CECz2QS89EhjMBHAMaaAMQIVwP3vCSKikogAfgYIWm0n6VguPw1ArAoAXXLGThAZC9WxADY39sWeDImkdclAcbsuPWW07Hu70+fWOFcA6LQZ+xmDMw1wBgwG2M5DRGRFKgYFgAkm6KKJ9TL2vmbbUdqiy768HQqFsZBN7+wV+wHYDlr2t5G9oInpAE4p94NK4UQBoNkrtzMwXwf0TGOwh+08RETWJdLF44LV2E7SPmM8BLgEwEW2owCALp26NzScBJUDAIxFUNgRm/uNK911rDhBl53cX4bPc3bbeqsFgF5++a4m8M83CP8DQJ3NLEREzklmgLyTb67/TcMpsFwA6JKpuwF6DYyZ6NDUtgQKqYMBOLtc3UoBoNnpexrIRSbAGQCSNjIQETkvDgVAUNhJF52wvYy9610bj9fnTjsAau4DHBwy9sTpieoVLQD0qqsaTFPwXVOsFlOVfDYRUez4yeLugCawnaQDCoTBxQDOrviTl5yxExT3wMXGHwBg8rYTdKQiOwEqVIJLZ5xsmoIXAPwIbPyJiLomGYMDgkxwkpXnqswEMMjKs7tCxelVAGUfLNHsjN1D4EYBPl3uZxFVFPcBoEoIA6DpQ9spOiYAwoZd5OA/vFmpR+qyL2+HoPA23N3Sfh0S+UEyfJ6zvQBl/Y8LLp1xsoE8VfONPzcuIKKe8hPFYQCXKYA688OKPrOQPwLuNv6A6LUuN/5AmeYA6KxZvUyLuQ6KqWz94NCkVCKKpUQKyLs8DwBAEEwCUMGzWWS3yj2r256HX7jSdojORF496bSZw02LeQbA1KjvTURUkxIxmAegwbY6/8jeFXueqKtvrV6ECSfK8HmOH+YQcQGg2ZkHGqN/B7B7lPclIqppiWRxUyCXGRV4qf+s2PPUe6Niz+qaPIBrUchPkNG3vWY7TFdENgQQZKefZKA3A4hBqUpEFDOJNFBosZ2iY2E4GcCPK/IsYx6Gb7UTIA/ocxB5GgaPIZl/0OVd/9oSSQEQXjrjQihmgKPdXaPg/xQRdU8iFYMCIBhRqUfJmFte1+fOeACKoyvwuACCl6F4GpCnoeHTaA6elgPnOf4F6VjJBUCYnXkxVK+IIkzNYONPRN2ViMH2KRqkdeGxB8q4PzxRmefJBYAeDKAxwruGAF4EsAgii6C6CE35JXFv7NtSUgEQZmd8E2Dj32PsCSCirhIvBrsCAtDwmwAqUgDIyNkv6eIpp8LTO9Cz4WcD4BWoLILoIqhZBEkslpE318TGGT0uAILszCmA/jzKMDVHwCKAiLoukXR/OWCon6nk42T07Af0udM/DSM3QDCyk89eCegiQBfBeIuQ02dkwpz1lUnqnh4VAMGlM48V1Rvh8iYMccHGn4i6yk8BcLwn2gQVPwBHRtzytCpGY8kZR8DDMVDsAaAewFtQLIWniwA8LSPmrKl0Npd1u/nRy2btZUKzEEDl1nsSuYhbAVOlqQIb3redonP1vQ+Q/e6abzsGdaxb7+A1m200obkLbPyJiCpPxP1tgQGgEEyxHYE61+UCQKFikLoBwD6Z+TToAAAgAElEQVRlzENERB3xk7YTdE6Dz9qOQJ3rcgFgLp15PiCTyxmGiIg6kYhBAWAMd4ONgS4VADptxmgoZpY7DBERdcKLQwEQ1OkTJ1d8MiB1T6cFgGazXmhwPcp0ciAREXWD7yMWy4e81mNtR6COdVoAGKT+S4AJlQhDRESdEcCPw/uxyu4HQN3XYQGgV1yxPSDTKhWGiIi6IA4FgNF9bUegjnVcABS86wD0qVAWIiLqijjMA0C4s+0E1LF2CwCdNv0ABY6vZBgiIuoCz7edoHMm7KXK3WJd1n4BYHBpJYMQEVEXxaEAUBU8NenTtmNQ+9osADQ7a4JCjqh0GCIi6gLPL+4K6DoDtiMOa7sAQJitcA4iIuqOWOwIiOG2I1D7tioAdNr08Qr5go0wRETURRKHYYBgN9sRqH1bFQDGyH/ZCEJERN0Qh3kAgu1sR6D2fawA0Gy2EcBxlrIQEVFXxaEHwJi+tiNQ+z62m0SI9KkCNNoKQ45JpSD77AXsNhjSpzeQsjzmWChA8wVgzVpg1QfQ198E3l9lNxORLV4MVthpmLYdgdr3ye2kvmQlBTlHRu0LOeJQoL7edpSPkU/+ft066HPLoE89A2zYaCkVkQVxGAJQFV18zB4y+v5XbEehrX1UAGh2xu4GOMhmGHKDHH4I5KCYHP/Qpw/kMwdCDhwPffpZ6CP/AFpbbaciKj+JQQ8AABS88QBYADjoo1eQgZ6AWBwxReUko0fEp/Hfku9Dxu0H7+z/hOwx1HYaovITiUsRwJUAjvro1SPc+IfSacjhh9pOUZr6eshpJ0MO4UFkVAPiMA8gxA62I1DbPADQbDaj7P6vebLPMKC+znaM0gkgBx8EOeaL8dgtjain4vD69gyXAjrKA4BA6j4DoAp+8lNJhg62nSBSst8oFgFU5WLQA2Aw0HYEapsHAJ4adv8TpHcv2xEiJ2NGsgig6hWHOQCi/WxHoLYVhwAAnthEgFHbCcpCxoyETDySRQBVnzi8po3pYzsCtc1TqAiwj+0gZJ+uXWc7QtnI6BHsCaDqE4dJgNAG2wmobR4uv2InAKzQCFix0naCsuJwAFWfOLyW5ZMbzpEjvCDweVwjAQD0hZeL2+xWMQ4HUHWJw+tYY7BlYW3yPCi7/6koDKEP/hnQ6pwLsBmHA6hqxOElrBqHcYqa5AHeMNshyB264tXaKAI4HEBVIQ6vX/YAuMoT6CDbIcgtumgxzE23Vv1JeywCKPbi8dqNRchalDBAf351aCuvvQHzy98CO+8IGTIY6NPH+nHA0rcPsMP20d5zzEgAgN7/x6rv9SCyIw6bFdSmhAD9bYcgR6kCb7wFfeMt20kAAApAhu0JOXESkIhuYjGLAKIyUsP3mI7ywAKAYkRffBl66x1AEER6X64OoHji65V6zgPAbRopVvTV18pTBIwewSKAKGrisVvNUR4AbtJAscMigAiAGtsJuiAWIWuSByBnOwRRT7AIIIoBBXsAHOUBygKAYotFANW0WDStHnsAHOUBwgKAYo1FANWuGFQAAhYAjvIAabUdgqhULAKoNsWgAICGthNQ2zxA19sOQRQFFgFUe2Lw5trz+SbTUZ4Ab9oOQRQVFgFUU0wMegAUG21HoLZ5Cn3ddgiiKLEIoJoRh50rPVlnOwK1zYMICwCqOiwCqCbEYYm9ylrbEahtnioLAKpOLAKo+sWgBwDeatsJqG2e7+k/bYcgKpeyFgGTWASQZSYGE+xF39/yw6mP3zRo4qJfDbQVh/5N9Npr02Z10zoAadthiMpFhgyGnHZSpKcIAgAeWwC96Tanx2Ll6BZgSJPtGFQOG1a5PwyQqL/k9Mav/W9zy4bZTXkcmlf4AJD2NVfvyzNJkR/fMe6Mu2zHrEUCAEF2xpMCTLAdhqicarUIYAFQpVSBDe93/nmWLc8MPuu8wiE/bQ3R0N7nZDzN1SXlH+mUTJ876oxHKpmvlgkAhNkZPwVwnuUsRGVXtiJg6XLonx8BPnRvuFMObQV2brEdw03BesDEdJm6CYCNH9pO0alTE6dseDeo69XVz0/7mmtIeA/7Ke8Hd446bXE5s9W6TT0AMycL9HbbYYgqoWxFAMVT/n1g7QLggweBYIPtNF0X5IBmtyfYq3g4RM/s0bUCoC6B9Wlf/5bxkz+4fb9TX4g2HQkA6OWX72wC/w3bYYgqhUUAbSVsBt78JbD+GdtJuqbQDLS4XbDkvAw+b06N5F71CayuT+gd9YLs7LFT343kpjXuoynMYXbGUgCfspiFqKJYBNDWFHj9GmDdIttBOpfbCOTcntvxod8bJ4QnRHpPEaAhgffqfL3Fq0//97zhk7nTYA95W/z+TmspiCwo1xJBijMBdv5/QLKf7SCdi8ESwNWoi/yeqsDGArZd1SrnfbC2sP7oBbNXnrRw9mVffuSRTOQPq3IfFQCeJywAqOawCKCteBlg0LG2U3QuBgXAG+hT1vuHRmVDHkPez+GHryffbj5mwc3LT1o0+5tQ9Tq/mj62i0mYnfEigL0sZSGyhsMB9DHhRmD5t9w+yXbD+84uPd3s5/6BuCPcs+LPTXkSZBJmWSbhXXXHfmfMqXiAmPhElaR324lBZBd7Auhj/EYgtY3tFO0zxvnGHwCeMttZeW7eaGJ9Xka+36yzj3ji5tZJC29+9OT5txxhJYzDPlYAeH7it4jFAdNE0WMRQB/jd3npeuUZ91+jKj5e1962YyAXSnptTg5+r2D+fMQTN7cet3DOgycvvHGU7Vwu2Gojc5Od8YACR9kIQ+QCDgcQAOCl7wG5d2ynaFuuqbgKwGEb/XocHU62HaNNW+4xkErjonkjp75kO5MNW02UCIFrbAQhcgV7AgimtbhBkKtiMAFwFRptR2iXAmgO0HtNTo5/fwNePGr+ze8ev2j2Nccv+P0A29kqaasCIJm96M8AllrIQuQMffU1mNlzgVzOdhSyYf1iQB0uAGMwBLACMVhKCUBVsLEg233YgnPWBd77xy2cfRtUa+KYz7aXSohcV+EcRO55/Q2Y384GPnB/v3WKkIbAey7Ph1YgdL8AeFx3sh2h2wIj3uocTpm08OaFtrNUQpsFgKetNwK6stJhiJzz/iqYX/8OumBRceY1Vb93b3F37B/Y1Pi7vgJA8LjZ3naIHlub98aeuGjOubZzlFubBYBks3mF98NKhyFyUqEA/eNfYX75W+jSZSwEqpWGwDuzgQ/+ZDtJx8KC7QSdavIzyCPek2hbAvN92xnKrd1xDoVKmJ35DwEOqmQgIuc1NECGDwOG7gbZeSegjjuQxpoWgPXPAu/dBbS+aTtN51rWAgW356a84O+I/xfGe9l90kPwt4OmJG3nKKd2SzSBqGLWdwzME+igUCCqOU1N0IVPAwsWAW+/B/TrC/TvB6RTQH30e5+XSsbkgUFuNxhWaAEorCl295sY/f/EoAfgWQyyHaFkgWq8uzC6oMN/oGQvnG+yM+5Q4ORKBSKKnTVri79ctW0LkHb71DjqIjWxGIJ62OxiO0LJpAYWAnR6YIKk9FsA3qtAFiIi6kiQt52gU4GXwhtePJYA1rrOC4CLL16lImdVIgwREXUgdH+oYlWyL/bqq9imzvWVCh2Ld/qu6dKRiYkfff8PgNxQ7jBERNSBGPQALE/uBE+AnRqAob2BJA/mdVaXvzReg38ugFfKmIWIiNpjgliM/z+R3u2j3/dOKYb1U/RO1sL76fjpcgEg3/1ukwdvCoCWMuYhIqK2xODdf97P4EP5+BkACQGG9gF2aIjXcrJaKFm61Tkj2QsXKvRM8MhgIqLKikEB8E6y/bN0tq1TDOmt8ONSBcQlZwm6PTqTyF58BwTcJZCIqFJUY7H+f0F6aId/3zsF7NVPUee7//5a3I9Ysh5Nz/B/dNEMQH8VdRgiImpDWCjuAeAwFR8Lkrt1+nlpD9ijL9A3VQMtrON6PD/T237A2QL8McowRETUhkKr7QSdei/Zv8tjw74Au/UGtqsva6SS1EJ50uMCQM46qyDIHSuQu6IMREREnxC6P/7/TLrzd/+ftH29YudGrYXhdieVtEJTstm87DNkMoDfR5SHiIi2FOYBE9pO0THx8Gh6jx5dOjAD7NZbIbUw6O6YkrdokMmTQw+5rwL4TQR5iIhoSwX33/2vSfYp6fjfPilgaC+4t0JAq/tAgEhOO5Js1ij0P0125hoA343inlWhLgPZa09glx2BxkbA920noohJzv0fzhgYAnWOv4PsClUgWA/k3gLWPQXk/mU7UWUE7o//P5UeUvI9eqWA3fsoVq4XBO7MdxRU8XSAyKub4NIZp4niNwAcnt5RZiKQg8ZDPnMgkErZTkNUhRRY8wTwzs1AuNF2mPIJ8kDzGtspOqTi4cIBp5XUA7Cl1hB4Za0gcKDZ9T69IvmoZAPbOcol8l2aEz+66FbPwyGA/DPqe8eC50EmHw/53CFs/InKRoB+BwF7XAqktrEdpnxiMPv/3eTAyBp/AMj4xZ4AF4YDNmB7B1KUT1mOaZD/vugpD62jAMwpx/1dJp8/DDJsT9sxiGpDaltg8HmAJG0nKQMFAvdP/3s0Myzye9YlgD362i8ChizvxwKgJySbXe9BfglgQ7me4ZxtB0HG7Wc7BVFtyewCDPyC7RTRK+Sc3/wn9BJYlNq1LPeu29QT4Flsgrd7vZEFQHcpVMJLZ55roA8D6FWOZ7hIxo0BpKpfL0RuGvgFVN3m7THo/n81vQNM+d5Hoj4BDOllrwjYUFdXZS+qj4tu4GYTzWb7KmbeDsXno76362Ro6TNhiagHkv2A9PZA7h3bSaKhYSy6/+/NjCr7M3qlirsGvrqu8tPxP+z1cvmqGwdE+o/T7IwhBunHFbXX+EME6F0znR1E7qmmyYC5ZtsJOrUm2Rdv+v0q8qzeyeKOgZXWN1ndPQCRFQA6bfoBBlgAYJ+o7hk76sC6FaKaVS3ffxqL7v+H64ZX9HkDMsCgusp+jVsTG1gAdEanTT/YGPkTgIFR3C+WVIENtTPfkcg5+Q9sJ4hGodX5yX+Bn8LjqcoPee5YX9w1sFKCjY3pyj2t8kouAIJLZx5pjDyEGprs1x5dUZtbHxBZl/8AyL1rO0U08i22E3RqSWa3sk7+a5cAu/ZS1CUq0xPgJxJfrMiDLCnpK1jIzjhMVO8GUBdRnljThU9zGIDIhg//gqoYAggLxV8OU/Hwh8xIa8/3BRjaG0hUoHO+Oa8/gWrVTgTs8T9Ms7PGesA9AKq6i6Rb3l8FXbDIdgqi2tL6BvDBn22niEbe/cl/r6W3x3qx+54v6W06QbDMz9kYYNtjFs5+4ewHH6zKdq5HBYBeduUeBuZBsNt/K/qXR6AvvGQ7BlFtyL8HvPZTQN1+19wlJnR/8p8I7qgfZzsFAKAxCWzXUP7nrM/Lniv7r/7ncYtv7Fv+p1VWtwsAveqqBhOGdwOoojU3ETIGOu8e6F8fBXLur+MliicF1jwGvPKj6pn8l2uynaBT76S2wdteb9sxPrJtnaJXBXaB3ljA9q2tqZWnLb1l2/I/rXK63YMSZmf8HsCZZchSfTIZyLA9gJ13AnrxOOBqxOOAK0gVCNYBrZuOA86/ZztRdIwBNq6ynaJTP+93FFb6br33KxjgpbWCQgUWTmQS2tQrE4y+c/RXXin/08qvWwVAeOnMc6H6s3KFIYoVVcjb7jdCcnQLMMT9d5c1rXWD8+P/H6b647LeE23HaNOGArBynVRkGmjGl5Z+9f6o20ed+nIFHldWXR4C0GnTD4DqleUMQ0RUc9TEYunfnfX7247Qrl7J4nBAJbSGWremOXz29Md/U55TkCqoSwWAzprVyxi5HQAPuCciilLrRri+hHFVegCWJ7azHaND2zUUDw+qhNZQ61Z7mcVxnxjYpQLAtIRXANi5zFmIiGqLCYGC++/+b6ubYDtCpwTALo3lXxq4WXOAfvlc8oUvP/JIpkKPjFynBYBmZ40F5JuVCENEVFNyG20n6NRb6e2wMhGPXd7rEpU9L2BjAdt9UPf28kM0W6G+h2h1WADo3Lm+gf4KAKevExFFKQxise5/dsMBtlN0y3b1QLqCLdb6AnbrvXDoE5V7YnQ6LADM8hXnAjqmUmGIiGpGDN79r8jshH85tO6/KzwBdmms7DPX5mX/45+a89vKPrV07RYAOnNmH8C7pJJhiIhqQpAHArc3CjPi43f1B9qO0SONScXACo/Mr87pV05cPPtLlX1qadotAEyrngdorGc4EhE5qdX9o8Mfb9gHGyW289uwQ4Mi4VVuPoAqsK4JN5zy9G17V+yhJWqzACi++8c5Fc5CRFT98k2ACWyn6FBrog53Z0bZjlESX4rzASopr/DX5YP5Jy+bW+FBiJ5pswAwrTgXQL8KZyEiqm5qYrHn/7yGCTClnRbvhIEZIFPhKezNAXq3bMz/o7JP7ZmtvsKazfYG9Ns2whARVbXWjcW+Yoe9mx6Ep5O72I4RCUFxKKDS1ucx6vhFsy+t+IO7aasCwCA9BXz3T0QUrbDg/KY/Kj5uaPy07RiR6pMCGpIWioAcfnjyM7P3qfiDu2GrzQsU+iWp2F5KRFWgf1+gfz8glQLq62yn2dqOeaCPQzPOTStQWA3k3i52idcCVaBlve0UnXq0YV98IL1sx4jcjvXAy+sq+8yCgdeUx18B7FDZJ3fdx1p6zU7fx0CW2QpDFAuNDZDhewO7D4HstCOQSdtOFE/BBmDtY8D79xZ/X81aNxYn/zlsQ7IXLulzgu0YZfPPDYK1FurgARn88u79p3yj8k/u3McKgDA740oA37WUhchtg7aBfPoAyPBhgBf/CVLOCNYDr18DNL1kO0l5hAHQtBpOH/gjHn7S9xi86Vfv6G9rALy4tjJHBm/J86D9Mzjwrv2mzK/wozv1UQGg2WzCIP0GgO0t5iFyTyoF+dzBkP3HAMLhsbIweWDlNKDlNdtJotf0YbEIcNj8hn1wW527x/1G5dX1wLp85b+H6xNYv40xe9x80JnvV/zhHdiiAJj5WQP9u80wRM4ZtA28yccDA/rbTlL9cv8CXr4Q0NB2kujkmpzf8rcp2YhL+hxfFcv+OrOxALyyzk4Rn/bR2pjQexIJfRBe5uF5oya/bSXIFj6aBGhgjgAn/xH92+Bd4J16IpDmGH9FpLcD+h4ErPk/20miEQbOr/lX8XF94+E10fgDQGMSaEwAGy10yORCZHKhnIqcnArkcehjszXlaUvCl38lRV7yxbwIlWe8htSD84ZPXl2JTB8VAAo5gs0/UZEM3Q1y6olAIpanfMZXn/2rowBQBVrWwelxfwB/bRiJt/0+HX+SYC0MPoRgLQAo0EuKbUcCwDYAHFz60r5B9YqN6+23dqFCWkKpR4ghgA4B5EgAkFwehz8xu5DwsM4TfScheDEF76kwIY/fPfrlBZBsZEtnBAA0m+1rkP4APPaXiI2/TYUPgRfOtZ2idK3rgLzbR/2+mx6EWb2O3PzhvwA8C8VS9fCCiDwfmPDV64aduRoiHVYx31lx06BC6O0Ko7uo6lARbzygE+Dw8rcX1wItgf0ioLtEFCmR1oSPVQlP3xDxXkyJmS+J9EM9GVIQAAiy008QyJ3RxyWKFzb+lplW4Pmv205RmiAHNK+1naJDgZfEZX2Pf2SdV/8AJPzLNXudubSzhr67zl120y7iyUGqOAoejoHCmcPlVrcCr2+MXwHQkaQHk/LxXl1C71m938pzHpVspwMdAgBhdubV3P6Xah0bfwfk3wNevMB2ip7TENj4oePb/QqaMn3PbNx/3s2VemJ22dzU2kT+c0b1BFGcDKCTcYfyUgWeXy0IXP4ylaA+gTWZZGL/e8aeurKjz0sAgEA/VaX/D0RdwsbfEc2v2k7Qc6pA8zrHG38AycyNlWz8ASA7fHIewEMAHvreizec36rpLwv0bAB7VDLHZiJAv4xiVUt19QJs1hygn0jwBFS3h0i7cwY8AFBgeOWiEbmFjb9D1j5pO0HPtW4o7vfvMj+9TCbc91WbEa4c9rUN1+495ef9hq0cBshEAAts5BhQ5Yt7mgoYdOIzt3Q4oUY2TQBcU6lQRC5h4++QppeBlZfB9Znzbcq3AK2O7/XvJzbCkx1lwkNuBVWVc1+YMxmiMwDsVslHv7xO0OR4zVaK3il94f7xU9s9kMiDl+K7f6pJbPwdEqwD3rgOsWz8wwKQc6tN3Yp4Bl79Ec41/gAgotfsM+V2k1iztxa3oq/YwRDV3guQCzsuqLxQMaxSYYhcwcbfIa1vACsuLS4BjBsTAi1rHa9bBEimvyMT7nJuL/ot/XyPc3LX7j31x4F6+wpQkV1p+6UVfnVOAwAA5EPJHLf4xnZXX3gC2a6SgYhsY+PvAgWaXwHeugF45RIg79QW6V20abMf4/iRxqn0HBl/39W2Y3TVdfuc8frbw9Kfg+L7APLlfJYnQJ9UOZ9glwLwC8lj2vv7BBTVe/wT0SeUrfFfuhz6p4eB1e5Np5FDW4GdW2zH+DcNi13+6vYBOZ1qWe/+pL9E+gkZf/8U2zG6a55MDgHMOnvZ7//sed49AHYp17P6poHVFo4JrpQQOBzA7Lb+LgGwAKDaULbG/7EF0Jtuc3f5V1OL82fRx05uI1Bwe6c/JFJvYcL+BwMP2E7SYz8f/qXF31x24/ikl7gXQFmOK+ydVPgiCB399i1VaDCmvb/zBMJjzqjq1WzjT9ErtDh/yA/8RBOSfUZLF3aDc931w7/yr3WZ4LMAbivH/UWA3lU8DFBQDG7v7zwDZQ8AVTUZMrgsjb8uXsLGv9YEeaClYpPUe8bzAiSS42XsrR/YjhKV3+32ldZ+w1aeAcX/lOP+fVLV+z3caqTxEM22+cPPA5CscB6iipEhgyGnnVSGxv856L0PsfGvJSaMwQl/AqTqvyrj7ltmO0nUspI11+w95VuA/m/U9+6dRNUeiGyMSr9nhh7e1t95HqSKpz9QLStr438fG//aosUDftT1Gf+Zq2X/eyq6zW9Fieg7wzLfgOjtUd7W94DGKu4FgMqRbf2xBygLAKo6bPwpUi3rAeP4cHoyvUTG33e+7RjlNk8mhy0bW6YCen+U9+2TrN4NAUKDcW39uQeABQBVFTb+FKkg5/6Mf/EDNPhfsB2jUn499qxCwWROA7A8qns2Jqv3+zofapuHLnnKHgCqImz8KVKqxXf/rkskvy373vue7RiVdP3wyRvF15MQ0dbBmQSQrNKJAHkjbU729wCJwaubqHNs/ClyuQ3uj/snUi/KhPuvsx3Dhp/teeYLojgTEc3MbKjSKfGBgXf6c7/b75N/7gHypo1ARFFi40+RC4PiKX8uE1F46VNtx7DpZ/tMvUegv4jiXo1VvDt4Sz4x6ZN/5qmY122EIYoKG38qi9xG2wk6l0r9XcbfvcR2DNuam1q+D+Cfpd6nmlcChEY//ck/81SFBQDFFht/KgtTKE7+c5mIIqiP3T7/5fDrsWc1A3JOqffJ+ECiShcDFELZ6uRfL+EHLAAoltj4U9m4vtUvACTSC+TAeW/bjuGKa/aecj+AO0u5hwBoqNLVAAWDQZ/8Mw+DBr0FwPEjrYg+jo0/lY0xQMHxd/8QwPMvsJ3CNaEkzgHQXMo96qp0HkDeIHHqkzcO3vLPPDnrrIJCa34MieKDjT+VVb6k9qMy/MS7Mu4PT9iO4ZpfDDvtHYj+upR7ZPyo0rgnSCSP2/JjDwAEMt9OHKLukWF7lqfxf2YJG38qChyf+Q8A8H9vO4GrxMiVAHr8Rayv0h4AAMgbHLLlxwkAUMiTAv0vK4nIXSLALjtBdhsM9OkNpOwukpW+fYEdtov8vvrMEuj9f2TjT0BYKA4BuExE0ahX2o7hqp/tM/Xdb79w028UcnZPrk97gCeAqcIfByHkU1t+nAAA3y88acIqLnuo22S3XSFfPBwYtI3tKGXFxp8+xvUtfwHAT74hIx5YYzuGy8TTWWrkG9jUxnXv4mIR0BJGn8u2fKg7bvlxcQjgkkv+CeBfVhKRc2TsaMjUU9n4U+0J8rYTdM6TP9qO4Lqr9/rS2wo81NPr66p0R8B8iMxxi2/su/njLXc+5ouKIHsMhRz1+WL3fxVj409bUeP+iX8AEMpvbUeIBZUbe3pptU4EVABJ9Sdu/tj7919oSesnqQr4PuTII6q/8V/8HBt/2loYh3f/XiAH3r/Qdow46K+pBwCs6sm11VoAAEBY8I7Y/PuPCgC/f+NfAPBgoBome+8J9Ovb+SfGGGf7U7vCGLz793wO1XZRdvjkvChu6cm1Sa96fz7kgTGbf/9RASDnnJMD8ICVROSG3YfaTlBW7PanDsWhAID3ku0EcaI9bNNSVXosMAAUQt1l8+8/9s9U6F2Vj0OukH59bEcoG3b7U6fiMP7ve0ttR4gTr1f6MQDdXtrhe8VtgatRLpReJy+bmwI+UQD4/RvvA/CelVRkX5WO/bPbn7rExGDdl3qLbUeIk6t3ntyikMe6e50ASFZpL4ABYPKFw4FPFADFYQD9XyupyDpdt8F2hMix25+6RB3f/Gcz3zxvO0LciOpfe3JdtRYAAKCBORL4RAEAAF5SrwcQg+mwFLlXSz5O2ym6aDEbf+qauBQAyRznAHSb92RPrkpUcQEQqowD2igA5Ac/eBfA3IonIut0+UtAcwwOQumMAvroY9AH/sTGn7omJvu+ysg/x+CcYrcEEizryXXVPBEwF2J3oI0CoPiH5urKxiEn5HLQvzxiO0Vpmpqht86D/r3bw35U02LQAyASjyrFMdft/aUP0YOdbv0qLgDyir5AOwWAZH/wjHBJYE3SZ5dCH4vh4ZBhCF2wCOYXv4a+stJ2GqLosfkvxfLuXuBVcb0VhPBOffLW8e0elCDQ7yjkC+jJYQoUa/q3R4EPPoAccRjQUG87TsfWroU+txy66Blgw0bbaYjIRYIXoTisO5dUcQcAACBImmPaLwCyF78YZmf8BsD/q2AmcuukHSIAACAASURBVIQueR76wsvF3QGHDIb06WP9OGDkC9B8Hli7Dnh/FfT1N4FVH9jNRFQpHALoOdUPuruy36vSZdGbFUI9qMN3915K/9vk5TQA1btDDLUvn4cueR5Y8jx7H4ns47dhD4l6a7Sb9ZNX3e0/CophHfZyyMUXr4JgVqUCERFZEY/VIjGYqegmha7uyVXVLG8wsNNhDk9zVymUp08RUfWKQwEgXgz2KnaTJ7qm+9eUI4k7QtOFrQ4kmw184EsAqmCBOBFRG+KwEZAIfwb3kKp0+wtc7ZMAPVHTpX+jZC9+EcCFZc5DRGRHHHoA4HEToB4ykFS3L6rySYCZhLza5SLHy37/OgEeLGcgIiIrNAYHAUE/tJ0gvky621fEoijsGRFFRrwLulwACEQlab4O4K0y5iIiqrw4nAQoUl2HdVRWt9cwV2v7L6Lol5Hr7xx3+n3dGuaQH/zgXQ/mSADrypSNiKjyYjEHwO/2bnZUJPB6dfca0819A+Ig7WvrwLT52j1jp3wL6ME8B8n+4HkVOQ0AZ6QSUfypxqMHAN4/bCeIK/Gwa3evqaYhAF+g/dJ6d98+6T537v+l327+8x5NdEz86PsPAXpBdPGIiCwxcXgvI8AbyUdtp4grhel2AVANzb8A6JXS53t5uucfxk09Yd7wyfkt/77HKx387MXXAuCpgUQUb3EoADy/WSbPy3f+idQmlcHdviTmFUB9Aqu3bfSOf2D81H3vPXDqirY+p6Sljn72ovMBnVbKPYiIrAoKthN0zvPa/AFOXTa4uxcEGs85AEkPQd+0XvPHA6YMmDv69Hs6+tyS9zrwsxf/CILvl3ofIiIrghi8sZbEn2xHiKvzl966M4Btu3tdEIN5oVvyAPRN69971Re2uXfc1G939ZqS+T+6aBaAb4F7VRNRnJgwHnsASPAb2xHiyiTD8T25Lk4FQENCX++fxrh7x0095J7RX1nb1esi2+3Qz150vQL/ASAG5TQREeLx7t9LtMj4B1+2HSOujOoBPbmuEIMCoM7X5m3q8I2HDpg6+K5xU57q7vWRbnecyF70Ww/eQQDeiPK+RERlEcagAPD9ZbYjxJkAE3pyncsFQMKD6ZvWubummvveOXbKL3t6n8jPO5DshYu8lI4VyCNR35uIKFKx6AHw77UdIa6+vfjGvgDG9uRaF4cABEDvlC4Z0JDa5d5xU0/59dizSprBWpYDj+Tii1fJ9v2+AMiPAcRggI2Iak6Qj8EOgKJoSHO5dQ+ZTPJYAN0+CChU9/YBaEzig0H1euT946eOmjdq8ttR3DMRxU3aImedVQDwXc3OutPA3AhgWLmeRUTUbYVW2wk6l0guleHzNtqOEVeemuO1B6f6tTq0NUTaR74hJZfdM/aMy6O+d9mPPJbshfO93ukxgPwU7A0gIheoAkHOdorOifcz2xHi6pvL5jaqyBd6cm3euLEHQO8Uns6kmvqVo/EHytgDsCU5//wWABfoZbN+o6G5UoFjKvFcIqI2BTn3u/99Py8T7r/Rdoy4Snj5EwFkenJtqwNvVesTsur+8Wf0aP5CV5W9B2BLcsmFL3jZiyYa4AgASyr5bCKij8Sh+19Sf7cdIc4Eek5Pr3WhAMgkzS3lfkZFC4DNktmL/urtM3Q/hZyiQLfXLhIR9ZgJYtD9L4Dxv2c7RVyd+9JNnwYwpqfX5wL7UwDTSdxU7mdUZAigLTJ5cghgLoC5Om36wWrkuwocCUtFCRHViHyT7QSdSySXygH3PGs7RmwZ6dJWuG1SoNXyHICkh+D2kVOfKfdz/n97dx5uVVn2D/x7P2utvfcZmVFQS0qJwbHAeNNMMvMt7a00yOGA5VtZpiIOPxkUt74KmhMHtZ/a8OYBNEGcUnvLUvtppaKZA3AwJwRExjOfPay1nvv94+AvJDjj3vt51jr357q49JLDer5eh7Ofez2jFZ0tzZvzJ5WefbJyw4+B6EIAL5vOJISIIR0CeduH/wmg5LmmU0TVBauXHgzg67398zk2fxNgyuH1pWjH2AjAntDll28EUAugltPXflqDTgXoRABHwpJiRQgRYbkIvP17iTdo0oPPmo4RVaT0T8C979vaLbgc0nPwXCnasaoA2BWl5/4NwN8AzOX584eFeXUCgScD9GmAD0EvDncQQvRjOozG4j9455tOEFUzVy3+vGZ8oy/PaLPgDAAHWFGKdqwtAHZFc+ZsBXDPzl/gO+/0sHnHIaHG4dRxz/PHCdifwaMA+qTJrEIIS+XbYN/5bh+1LTlEpyv/Yy3Q6TXuYk+YKVyz+EZC3+bv232z8/9KgbdPeOvhUrQViQJgdztPGXwZu60VCK5acDoxir51QggRMWEA5DOmU3SKifCzimOVS+FtAL5mOk/UzFiz+GwQHdWXZzAD7SEDfSwi+qLc4Y2PU7ok4xCxmldXjCmmMwghLJRtNp2gSy+Xj8ZmVQ2ATr6wfsm3TOeJkvPq60aB6Oa+Pqc9JDCbHQFIOvRoqdqKTQHA6XQlA/9uOocQwjJ+OxBasLKrE3kniXuS/3x5ZeZFM167Zx+DkSJjCi9zFOhuANV9fVabBX9NlOv3uZDpdlulaqjYQkqeBKDMdA4hhEVYA1n7V/6vqJyEQH3k43gE3PCBH7x4p2cqU1SMrM9fSozPF+JZphcAVnjcuOLI7/6jVO3FpgAgpuNNZxBCWCbbbP2Z/+tSI/G8d+Cefutz5RXl80scJ1JmrF56LMBXFeJZDKAlX4gn9Z5HVNLjn2NTAAB8jOkEQgiL5NsB3+4jf3NOCrdXTt7r7zNw8Yz6OlnbtAfnrb1nDEg/hAJtCW8LgNDwJpEkq9tL2V4sCgBO3zgUwBjTOYQQlggDINtqOkWnmAh3Vn0J+c43YxGY/vvC+iVHlypXFJz/j18Oc3T4GIBBhXpmc9704j9klk8644lSthmLAiBEfhJM7tsQQtiDGcg0wvY9/3+sOAJvu0O686UVzPzYzPq6ol4NGxXnrlpWqQLvIQCfKORzm/Nm/75UeCjZ6v8PxaIAIKLxpjMIISyRae449c9i7yVH4NHUYT35IwM06InzV919ZLEyRcFlby0b4Knc7wB8rpDPDTSQCcy9QxIBntaXlbrdWBQAYDn9TwiBjmH/wO7jfpu9aiyq+FLP/yBjoFLq8fPXLj688Knsd/Hae4Zm87knUeDOHwCaDW//q3Dx7vLPTn+n1O3GogAg4CDTGYQQhuXbrb/qN+OWY371ybtv+euJfZXGMxeuXnxSIXPZ7rz6e0cGWj8N4NPFeH5jzuwMcsrVt5loNxYFAINlBECI/szPAtkW0yk6FTgJ/GTASchSn7f2VzHh4RmrF5d8yNiEGWvrjnE4eBHgokz1hmx2+19CIdjxmbdrTbQdiwIAQLdW0gghYijIAZkm0yk6FSoXNw/4KhqovFCPdEC4bsbqJf935vpl8TwAjZlmrK6bCU1PARhRrGYacwSTJ0WUe/jj0yU6+393kS8AGEyQEwCF6J+CPNBud+cfOAksGvjveF8NKPzDiX+oW3IvXbBm6WcK/3BzfvTq0kEz6pfet/N8/6JeWrfD4FERDoHLQ/+HptqPfAGA9FUViMP/hxCiZ/wM0G73dr+ck8L11SdjnSriICVhLEE/N6N+8XVxODp45pq6ryU8/RrART8AyddAq8Hjf6s8fv7X//bdd021H/2O0/MqTEcQQpRYvr1ju5/FnX+LV4WrB52CrU5VKZpzwbisvKJ85YzVi08oRYOFdl593agZqxc/rkGPANivFG025GDsrxARwwGMvf0DRR5aKQkiuw/6FkIUVralowCw2JbkUPyk6kQEJf6IZeBwEH4/Y/Xi3yoOL71l/HdWlTRAL1zyZt1wP0+XgPFjEAq2SKI7TA7/VyXw+oNHTXvFXII4FAD5fAuQNJ1CCFFsrDve+gOLz/cnwqtlB+GX5QXfqt7DHPiKJufLM1Yvvlcprr1lzPQXzQb6VzNeu2cfuMGlvk8/BKHkI7mtgdnDf8rA5xlrfKdYHJ8bphfkAUR+7ktEDDNo42bTKbpEJ2WAT9i9P75LYd76E/5ClUBd1efxire/6Sh78mcmLBq8af8H0pMnm5v1ZqaZq5ccoxWdDfBUoLRv/Lt6twVoMLT/v9LDuscn1RxopPFdRH8EoEMrCngphBDCIrlWIGd3AbM9MQgLq76MFkqZjrI3RxPj6IZ9N2y5cM3ih0LQilxb21N3TTinJGfgzVy1+CDt8GmoX3KWVjjI9NqNQANNBg//KXP4AWON7yIuBUADpAAQIl7CAMg2A6Hhc1o7ocnBMxXj8WAqMkf0D2fgBwr8g7KK8oYZqxc/BsKzWuG5D0YnX19OUwsyxHLx2nuGBhxMBuMEgL6kgVEdO7btsC0Lo3v/mdmKtWuxKAAIeJsLfDOUEMIQZiDfCuTsXui3Mbkv7qo4Fk0qsseQDAKhBkCN0sDI+lzrjDV1K0G0hjWvI6h1GljnurTFUWFrW7vjA8A+20e2tIzcNNAPeRBxOJgdGqQ09mfCOACHABgf6HCkrTPMDGCb4aN/fXas2KkRiwKAwWsB6sXtGkIIqwR5INsEaCtekPYo7yRxf+UkvOAdaDpKoVUCNBmMyUQEgKEA6JChQ0LC6/ieNOy7AdAdN9iBCMSw6eW+S405gm94KUmrz4d+8/m7hzz42bO2m8wRiwIApNaC7d0PLIToQpDr2NoXGDyUvQu+k8SzZWPxm9Sh0DE4QqW/2pwxnQAIGQTlXAPgRyZzxKIA0Mxr5cdRiAgK8h2L/Cye5/edJP5cNhaPSMcfeY15QsbgyX+7ygR8OqQA6Ds3wS/pPGnE4WRDIWKPO27vy7UD2pJP4z1odavwZPl4PJn4lOkookA2W7SspD2gAaeurPvqionTHzeVIRYFAM2Zsz1MX/cqwEeYziKE2IvQ7zi/3891HOpjocBJ4O3Evng0dTjecwabjiMKqCkPtFtWb+ZZXQlACoACeBKAFABC2CT0Ozr8IGPtwr5AJfC+NwR/TI2z9RAfUQBbMvatVGwLMOHM5xZVL510QbOJ9mNTADD0UwS6yHQOIfo1HQCBD4S5jn/a+KavHB+Osx5w/vKH5Lj/92jqkDsg04ex1pQHWi1cZhKEUG3u4HkALjHRfmwKAAf5pzWS7TB4tKQQ/YYOOzp7DoEwBLTf8U+bOnxSIZRqBdFWkPMGWP0VLh6jiY+8/M8v+g1m1NeNA9OF5oKKYmIAmyw+SDKncRYMFQD2jYn0QZievxSgM0znEP1ERO4C+OsoB+vKe7nxmXf7l15utw01w/cJ7XlGazujLcvgvh0Hy6GGH4aU14ywIxqFmqFDjUAzBd1+PAEo9/Yhz/Eo5UENLQOPrASPGwzynL5kFBbYmgE2tNnb1RGAYZXO0fcfefpfSt12bEYAAECDFitACgAhdrFhSxKvW/RiDgBaM4LQRzafQxD0amUWAUgAnChIoKZdMmxoAP4O0G8JTmUSzthhwNEjgVSsPi77hZCBDyyc+98VA8j74QIAXyh127Ga93LHffIJAJtM5xBCdE4pQsJLoLqiCgOqqpFMJNFx+pw9mBlBSxa5F9bDX7gSuK8e1GTxVcTiX3zQRggsK373pM3H0VNWLStMMdsDsSoAaOrUEOC7TecQQnSfoxxUlJWjurIKnmvnrd6aNXJvb0fujpeAh980e5OM6JZc2HHpTxT4Gk7Ynptd6nZjVQAAgPJ4IQALDnsUQvSEoxxUVVSioqzCdJS9Ys3Ird6M8LaXgG3yMWOz9a0UqTotG9I5pW4zdgUAzZ27GcAvTOcQQvROMpFAdWWVdVMCuwrasvB/+QrwZoPpKGIPdmSBFgu3/XWmzceIU/9+b0nvlY5dAQAAyg1/AsDeW0WEEJ1yHRfVlVVQyt6PKB2GyK9YA3ptm+koYheBBjZavOp/bxhA4AfXlbJNe3+6+oAuv3w9gJ+bziGE6L2OKYEqKLL3Y4o1I/fYG8DaHaajiJ02tBGCiF4O2+bT5OM4XbLtJvb+ZPWRSuJyAFtM5xBC9J6jFCrK7V0TAHTsFvAffgOQHQLGNeWBhgh/G/IhvMEvfWJGqdqLbQFAs2c3MHCZ6RxCiL7xXBepZMp0jE7pMES4ZJXpGP1awB0L/6IuF6jzS9VWbAsAAHDSs+5m4GnTOYQQfVOWTMFx7P64CpozwJPrTcfot95rIfhRWva/F20+Pn7qq/eMKUVbdv9E9RGB2AG+D6DJdBYhRO8REcpTdk8FAID/4gZwJmLLz2Nga5bQFJNl3xpAkAsXlKKtWBcAAEDp2W8y4fumcwgh+sZzXbiu3cfx6lADv3vXdIx+JRsC71t82U9vtOfxVTAXfT4j9gUAALhXzl4O4A7TOYQQfVNm+VoAAPDXbgPCGIxFR4AG8E4zQUd01f/e5DQlvvW3pScVu51+UQAAgEJuJoNfMJ1DCNF7nutZfUAQALDWwAsfmI7RL2xo6RgBiCOt+RvFbqPfFACUTmcdJE4CUG86ixCi95Jeye9M6TH9muxALrYdWWB7zu5isC8YMgVQUJS+ZJuCOgGALNUVIqJsXwcAAGFjBtAyDVAsrT7wXgy2/HVGwXm5+G30M5S+bINSdBKA7aazCCF6zvPsvDFwVzrUoPdaTceIpXxIeKeFELNp/49IOpRfMeGMnxa7nX5XAAAAzZv1mgIfA+A901mEED1DIKvvCPgQr282HSF2NANvtzCCGA+uEIBqT18MoqL/X9r/U1QklJ5Trzw9CcArprMIIXrGiUABgK3tphPECgNY10LIBPEd+lcAhqb4+hUTp91Wqvb6LZo7d5NC8osEesp0FiFE95HFFwR9iNsD0xFi5f02oDEmh/3siUPgoWX48YqJ02aVqk37f4qKjNIX7aBxnzgBwFUAYrqhRIh4sXwnYAdfPk4KZVM7YUsmCt/03vEU/KGuOvH+CTVFn/ffVb8vAACApk4NnfTstCZ9AoBNpvMIIbpQ/B1SfacikDECtmYJH8R4NqXcRfPQCveQ5ZPOeKLUbUsBsAvvyrlPKbhHAKgDYr3IVIhI04jAKrCEfLz21Y4ssDHGmykqPbw7hHDAfUec9oaJ9u3fUFtilL50C4Cz+Or5P9eabgdwqOlMQoiP4iic/Vph/4FFNmvKdez1j8B3ulcGJvlPj0ys+WIpVvvvjZSoe0Hz5jyjRgz+DIguALDBdB4hxD/pCByyQ/tWmo4QWU15wjut8RyGVQAGJ/Vdjxw17TiTnf+HWcRe0Dnn+M6Vs25VyH2SQWcBMDJMI4T4J601NNtfAOATA0wniKSGHOGdZpTiMryScwg8NIWZDx01/RzTWQApALqF0um8m55Vp5Abz4SpBDwGQPb4CGFAENr/o+ckXGBomekYkbMtC6xrieebv6cQDErx1+6fWLPQdJYPxa/EKhFO3zBcU3g6M59GwEQAjulMosSYQRs3m07RpeUV5XglAi/M3dXa3oq875uO0anEAQNBNeNNx4iUbVnChpgO+5c5aB1cribde8QZq0xn2ZUUAAXA1103IMzhWGI+HsBxAMYCkBVAcScFQMkxMxpaGq3vJVLfGg8+eKDpGJHxQTthU0y3+lV62FhRlThs+fipO0xn2Z0UAEXA6bQLp3xUqPVoAo8B4wCAKglcDWCABioVKAOghcHNAJoJGM3Alw1HFz0hBUDJZfM5tGfs7imcVALuzImmY0SCBrC+hbAjZzpJcVQn+JXWo96a8DSlrZy3kgLAEmF6wa0AzjOdQ/SAFAAl19jSZP0OgOSxBwJH72c6hvUCBt5pJrTaPZvTa4OTvOyho6Z923SOzsgiQGvQ50wnEMJm2XzW+s7fLU8C/zbCdAzr5UPCG43x7PyVAg9J4mrbO39ADgKyAi9alNQ72g4znUMIW2mtkclmTcfoHAHuVw8CR+GmQoNa8sA7LUDYjXUcDoHLXKwrc/hB5TjLgyBIhFCzm318WWv7RrA9hbA6qU9/cML05aazdIcUADbY0XIwoOR7IcRetGXawWz3yr/EwUNl4V8nGMDmdmBThjpdxJlQCJIu1ycV7nVamxctP+bHux8G/KdvPv/r0XkdrGgJcEgxM/dE0kFmuIsvLJ0wfaXpLN0lnY4FQlJjye7PNiGMyWQz8AO7x4rdqhTom58yHcNaIQPvthCa93Cdr0cIUi6vTxCe8Ty1eNmnz/xDV8978LOnvQHg0G++WDcl46s72wMMKkLsbqtwecvAyurDlh76dfsXBe1CCgALEPMoWY8pxL/K+3lkcnYP/auEG7rfPcxhGfnfo/agY7FfXgMuIUw63Og5WOsQPeUS7ls+oea13j5751D78lNWLrm+2cfMfAivgNG7ZUASr6UqkhPuHf/1PZQ3dpMCwApqhPUbm4UosVw+h7as5Vv+HKfFPevwl7jCO850FgtkAWwnYJsGbSXw+z6rdVuzXFVdjpWs9B8ePHz6lmI0/MDEmsvOfG7Rta3uoPua8upEXYJzhAnAoAQefuiomm8Uu61ikQLACryP6QRC2CSTzVj/5u+53oaEmzgyGJr6leksBuSZ+QYmPOEgXJfXFdt+On6q0Yt7l066oBnAV6Y8t2RcVmFZUx7ji/VeRQAGJXHTQ0fVXFKcFkpDCgALEFAt7/9CdJz019reZvWcP4GQSHrLa3+2aCoAzJhZx/1sCi8A4+RF46Y/YTrIniyfVLMawCFTXlxyRnOAn2Z8FPRWJldBD0zyOQ9MmPbzQj7XBJm1sgKlTCcQwrRsPofG5iarO3/XczclUonPf9j5d6B+1fuD+OLacdOs7Px3tXxCzT2/m1QzcHgS1yRUYS5vSzjID07w8XHo/AEpAKygwXJvgOiXmBm5XA6NLU1oz7SDLVwLQyC4jrsxWZacdtsvbhtZe1fts7t9SWgkmAmMJbVjpi8yHaMn7j+q5opBAxP7DE7g94p6v9+q3EXDcM6Ovn/itKcLGM8omQKwgAJ8+z72hCgOrTX80EfgB8gFeSvXvxIRO67zgYL6k6vCK2/+2W1vdPLl75UsmEEEvNLe3m7FPfY9tfMinhNP/fu9R+ZywdKWPI3tyV+7ag9v5sv0Efcc/r22YmU0QQoAO7SYDiDi68iJR+KA/YtzNn0uGyKT6fwFmDUjCHxks1m0tjYjny/xbinS2frXX7+/y69jbCVF7zPxM7V31T7f3ccz85+JKO73eGwDgm/cNeEcu7dldGHFEae/DGDc1JeXnNWc5VvbA6rq6s8MTPKTj0ys+RL6MHpgq/41d2WpML1gMYAa0zlED0XkMqDwezXQhx9alGe3NPtobrZ3zh4AEp7auv+BA4cX6/lTeJkzsj63CkBcTwIKWdOJi8bX/NF0kIJiVqesXHJbk08/8DWc3X9bKfDgBN/+wMRp55uIVwqyBsAKLCMAQkTUcpoagvB1AB+YzlIMDMyKXecPAET6gaOmnTs4zI8YnMSSchcNSQf5lIu2QUm8MMQJj4hz5w/IFIAttpsOIITovdox09ZeuHrxp5lwJYDvAEgajlQov140dtqNpkMU0/Jjz94KYJrpHCbICIAFGOofpjMIIfpm4bhpm2rHTvthKpHcB4yzAH4UgN3zI5171cvz90yHEMUjIwAWcEBvaBuXQgsheuz6T05tAlAHoG7mqmWDNeVOZqJpBD4e0Vl31aDd8JQbx34nVqvexUdJAWCFTH18RgyFEB+6pWP7WR2Auoteu/eAwAtOIcYUAEcbjtYZTYrOvPXg77xlOogorqhUo7EXphd8AEDuBIgS2QUguwB66cI36sYipG9r4HQCRpvO81E0u3ZszXWmU4jikzUAliDgOdMZhBClsXD09DULx05LLxo77VNKh4cQcBWAd0znAuGh2jFnXm86higNKQAswURPmc4ghCi9W8Z/Z9XCsdPSg8a8dRAUfx6gRQCKcm1u57heO3RWHA+8EXsmawAsoQhPavmxE6LfSlNaA3gWwLNTeNlF+6/JTGblTGfmbwDo8sS6PmohB6fcenBNc5HbERaREQBbzLvsdQD2TygLIYpuOU0Nbxl31h8WjqmZ3pQKhivwfxDRYgDFOIpXA3TGwtHT1xTh2cJiUgBYgkAM4DHTOYQQdvnVqO9mbxk7/TcLx9RMp2yw3y5nDBTkiltmpGvH1jxaiGeJaJEpAItoYLECzjadQwhhp4VHfrcRO7cV/njN3UMcqFMJmA7gc+jdrq5HBo9969qChhSRIdsALcJg0unr3wJ4lOksohtkGyCam320WL4NMJlQm/f7+MB9TecopvPq60Y5TKcDOA1A977ZjDXao0ky799/yRSARTqmAfge0zmE6C7WphN0jRSypjMU221jpr9TO3ba/Nqx0w7Tmsbv3FbY2RHjrytHnyCdf/8mUwCWUcAvNXAZ5HsjIoDZ/q0rzBTpO+x76tbxNasBpAGkz1+9ZJIi/S0CTWDwPoBaB9bLtde4pPbgC3KGowrDZArAQmF6wRIAZ5rOIbogUwDYti2HXDYsyrMLpazMfWrE/tVfNJ1DCNvIFICFlKOuBRCBwVXR34WB/X9NHUWvms4ghI2kALAQXXHZGgI9ZDqHEJ3RmhGG9k8BwMWzpiMIYSMpACxFCvMQ7bvERcz5eQ3blwCQAg8bVinFtBB7IAWApWjerFUAFprOIcTe5HL2D/97Hm0iooIcmCNE3EgBYDGFXBrAOtM5hNiTjOWL/wDAdZ3HTWcQwlZSAFiM0ul2JlxsOocQu/N9jcC3fwTA8Zx5pjMIYSspACznXjl7BYBfmc4hxK7a2uwfVU8k1VvDhlVsMp1DCFtJARABqsI9D8Bq0zmEAIBQA+1t9g//JxPqItMZhLCZFAARQJde2qYUTUVxrgIVokdam33rTwBMJtX6YftWP2I6hxA2kwIgImjerFUM+k/IAUHCoDBgtLXZvzvVc5WcpClEF6QAiBA3PevXAM43nUP0Xw2Neev3/qfKnSeGj6x+xnQOIWwnBUDEOOnZPwWwwHQOLmq2aAAACLFJREFU0f+0tgbWn/ufcFVLqKu/bjqHEFEgBUAEqfSsuQDuMJ1D9B/5vEZzk91D/45D2knR8QccQBnTWYSIAikAIohA7KRn/wiEWaaziPgLQ8b27TnrF/6Vp+jcESMGrDSdQ4iokAIgwpwrZ18PovMgCwNFkeiQsW1rFtriS3+IgIpK76phIwfeaTqLEFEiBUDEOVfOup3BUwA0m84i4iUIGFu3ZhEE9nb+ShFXVCdm7TOiKm06ixBRIwVADLjpOQ8oNzyMgedNZxHxkMtrbNuSsbrzdxwKKlLemcOHV15vOosQUSQFQEzQ5ZevcwZXfAHg201nEdHW0uxj+9YsQosnlpJJtbE6lTpo2H6V95rOIkRUSQEQI3TBBTknPec8pfg4AKtM5xHRks+H2Lo5h+Zm39q9/o5DYXWVt2i/jw3cf9DIMrkpU4g+kAIghmjenD+pEYOPBNGFAFpM5xF2832Nhh05bN2SQ963c5+/UqTLy91HB5e7I4fuWzXDdB4h4oBMBxDFxddcc4AOnFkAzgaQMp0nVphBGzebTtGl8AfToQ8d/5H/xszIZkO0t4XIWny4j+epRs9TD5RV8qUDBgzYYTqPEHEiBUA/wekbhmsE5wK4EMAA03liQTPo/QgUADN/hPDAj8MPNfxcR8efz2tobdc4PxHgOCrnurRBOfSUA33HsJEDXzKdS4i4kgKgn+EFCwbpPJ3GzDUEfM50nkgLNWjTFtMpuhQeefjRjVO/PYg53Cf09VDTeXanyH1fE2/MZiv/OmoUZU3nEaK/kAKgH+P0goM0UMPgrxDoMwCcIjb3CoD/AfCfAKzrhHolDEGbtppO0SUa4A6jm27aZjqHEMIuUgAIAABfd92AMIdjifl4BiYS8CkAQ3r5uAwDfyfwiwz1ouMGf6TLL98IAEF6wV8JmFS45AblfdCW7aZTdEn9vFZ+zoUQ/8I1HUDYgWbNagLwm52/AAA8f/4QBBgdMkYTVDXAlWAMALgaIAdAC8A5AE0M9YEDvAs3WIcg2EjpdLCndhRoA8OuuefeIps3yu/EStkfUghhhBQAYq9ozpztAP6681dBMLChUM8yLtxjjWMVct0m0xmEEHaScwBEien1phMUCgcReLl2sMl0BCGEnaQAECWlQa+bzlAo5PumI3SDesN0AiGEnaQAECXlJrESiMkiAN/+KQB2nL+ZziCEsJMUAKKkaPbsBgD/MJ2jz4IQ0PZPASjSclmOEGKPpAAQJrxgOkBfUS5vOkLXXKedbrnuTdMxhBB2kgJAmPCM6QB9xXn7CwDteatNZxBC2EsKAFFyytMPA7B//HxvmEHZnOkUXSKiR01nEELYSwoAUXI0d+5mBp43naPXfB+w/BAgJoKqVHeYziGEsJcUAMIIAj9kOkOvZex/+0fSe4fmz7f/qkIhhDFSAAgjlOOuQES3A1ImYzpC15TzM9MRhBB2kwJAGEFX/J+3CPid6Rw9RdkcYPsJgI4K1eDUTaZjCCHsJgWAMEaDbzedoae4rd10hK4lEispnbZ/m4IQwigpAIQxDvKPA3jbdI5uC0JQ1vJ+lQiUKvuR6RhCCPtJASCMoXRaA3yr6Rzd1toGsN3LFjjpvU43pP9uOocQwn5SAAijFPJ3AHjPdI4uhSHI+uF/gkom5O1fCNEtUgAIoyidzjJx2nSOLjW3Wr9ngcu8tXTTtc+aziGEiAYpAIRxztiD6gCsMp1jr/wA1J41naJzBFYp7zTTMYQQ0SEFgDCOpk4NNXARLH3HpsZm6+f+qaz8Prphvsz9CyG6TQoAYQUvPfv3AP7bdI7dUXsGsPzmP/acdgxOnmU6hxAiWqQAENZQyF0MYKPpHP9foIHGZtMpOkeAKkudI/v+hRA9JQWAsAal041MdI7pHAA6hvwbGgFt99A/ylIP083zl5iOIYSIHikAhFXcK2c9BuAG0zmotQ1k+dA/Et4WWlR2iukYQohokgJAWEchN4uA35pqn3J5oLnNVPPdwo4KyaVjCGnLLyYQQthKCgBhHUqnNSFZA/BbJW88CIHtjXav+iewqkieTotu+IfpKEKI6JICQFiJ0hftUI7zNQBbS9ZoGIK27gC0xS/VBFBF+SV083XLTUcRQkSbFADCWnTFZWsU9JcAbC96Y5pB2xqAMCx6U71H4LLyG2nhgptNJxFCRB+ZDiBEV/jqBRO1xhMABhSlAa07Ov+8X5THFwpXlP/CqV3wPdM5hBDxICMAwno0b/ZKpfhEFGM6IBKdP4Eqyq6Xzl8IUUgyAiAig//rv0bp0H0MwNiCPDAIOzr/ICjI44pCEVNl+fl08/zbTUcRQsSLFAAiUnjBgkFhDg8QcFxfnkPZHLDD8oN+XCdPZWVT6ZZrHzYdRQgRPzIFICKFZs9ucJA7ER2HBfVquT61tALbGqzu/DmReJcGDzlQOn8hRLHICICILP+qaycrVnUA9u/WHwhDYEeT5Sf8Eaii/NdUO/9000mEEPEmBYCINJ4/f4jO4zaATtv7FzGoPQs0tdi9xz+R2E7J5Bl0yzW/Nx1FCBF/UgCIWOCr539Ba6oFcPhHfsMPQI3Ndl/pq1RI5ak7aOGC80xHEUL0H1IAiNjgZcscvfqt7wNIIwz3QXNrx5u/rcf6ElinUn92qqqn0vy5m0zHEUL0L1IAiNjhRYuS+s33byPfnwY/SJrO8y+U0pRMPo2EczbddO0603GEEP2TFAAitnjKFEfvf9A85INzKecPBQyPBHhuKye8x5SXuoBuTG8xG0YI0d9JASD6BZ5xyWdZO1ew70+mICwvWcOOE+iE95zjetfSLdf8T8naFUKILkgBIPodPn/uJE36ewiDyRSEH0MYugV7uFIaCXcDKfcZeHQ33TT/iYI9WwghCkgKANHv8WVXHIqs/1UwPsNaj2atR0CjklgnwKzATGAmEDETMSmEDMcnRRko2kSK6jXob8pznsFN3l8IaYv3GgohRIf/BVx9g+xkv9RMAAAAAElFTkSuQmCC;fontSize=11;" parent="1" vertex="1">
          <mxGeometry x="720" y="430" width="60" height="60" as="geometry" />
        </mxCell>
        <mxCell id="TJ1niBv9A0Y08c_3gPOE-133" value="" style="shape=image;verticalLabelPosition=bottom;labelBackgroundColor=default;verticalAlign=top;aspect=fixed;imageAspect=0;image=data:image/png,iVBORw0KGgoAAAANSUhEUgAAAyIAAAENCAYAAADzKNGUAAAAAXNSR0IArs4c6QAAIABJREFUeF7svQe4JFd1rr32rtC5T5wZTZCQUBZCIgiZLAQ2yWAwYUCADZhkTLjGAV9zwf8YW2QDxjz2j42xjX0lW1wMGBMvIDAgGRAChZGQRnmCNDpzYseK+86qql1d3afPnDDntKZnvnqmnz7dXV21+609XfX1Wt9agrCAAAiAAAiAAAiAAAiAAAiAwIAJiAHvD7sDARAAARAAARAAARAAARAAAYIQwSQAARAAARAAARAAARAAARAYOAEIkYEjxw5BAARAAARAAARAAARAAAQgRDAHQAAEQAAEQAAEQAAEQAAEBk4AQmTgyLFDEAABEAABEAABEAABEAABCBHMARAAARAAARAAARAAARAAgYETgBAZOHLsEARAAARAAARAAARAAARAAEIEcwAEQAAEQAAEQAAEQAAEQGDgBCBEBo4cOwQBEAABEAABEAABEAABEIAQwRwAARAAARAAARAAARAAARAYOAEIkYEjxw5BAARAAARAAARAAARAAAQgRDAHQAAEQAAEQAAEQAAEQAAEBk4AQmTgyLFDEAABEAABEAABEAABEAABCBHMARAAARAAARAAARAAARAAgYETgBAZOHLsEARAAARAAARAAARAAARAAEIEcwAEQAAEQAAEQAAEQAAEQGDgBCBEBo4cOwQBEAABEAABEAABEAABEIAQwRwAARAAARAAARAAARAAARAYOAEIkYEjxw5BAARAAARAAARAAARAAAQgRDAHQAAEQAAEQAAEQAAEQAAEBk4AQmTgyLFDEAABEAABEAABEAABEAABCBHMARAAARAAARAAARAAARAAgYETgBAZOHLsEARAAARAAARAAARAAARAAEIEcwAEQAAEQAAEQAAEQAAEQGDgBCBEBo4cOwQBEAABEAABEAABEAABEIAQwRwAARAAARAAARAAARAAARAYOAEIkYEjxw5BAARAAARAAARAAARAAAQgRDAHQAAEQAAEQAAEQAAEQAAEBk4AQmTgyLFDEAABEAABEAABEAABEAABCBHMARAAARAAARAAARAAARAAgYETgBAZOHLsEARAAARAAARAAARAAARAAEIEcwAEQAAEQAAEQAAEQAAEQGDgBCBEBo4cOwQBEAABEAABEAABEAABEIAQwRwAARAAARAAARAAARAAARAYOAEIkYEjxw5BAARAAARAAARAAARAAAQgRDAHQAAEQAAEQAAEQAAEQAAEBk4AQmTgyLFDEAABEAABEAABEAABEAABCBHMARAAARAAARAAARAAARAAgYETgBAZOHLsEARAAARAAARAAARAAARAAEIEcwAEQAAEQAAEQAAEQAAEQGDgBCBEBo4cOwQBEAABEAABEAABEAABEIAQwRwAARAAARAAARAAARAAARAYOAEIkYEjxw5BAARAAARAAARAAARAAAQgRDAHQAAEQAAEQAAEQAAEQAAEBk4AQmTgyLFDEAABEAABEAABEAABEAABCBHMARAAARAAARAAARAAARAAgYETgBAZOHLsEARAAARAAARAAARAAARAAEIEcwAEQAAEQAAEQAAEQAAEQGDgBCBEBo4cOwQBEAABEAABEAABEAABEIAQwRwAARAAARBYHQGlxKa/nirlHMd2pW2ZgW8H0rQ8w8wLX5VDKW3DCEy+D5UsKFNYJEgIpVxpWS0plBOS8gJpOJYwamaoXFMqz7VC3zYDr52reuUZ8u55rWivbmBYGwRAAARAYJgIQIgM09HCWEEABEBgUASUEls+crBoiLAgVbAtDOWptiFOtwxxmmHKHUKITQGpMU/J8bqvbFeRQVJKJUkKKYQS8cKPDVNYUkrph+SQFEpKoViWkKSQiEISRmgbIqjmhF+wqG4JMSdEOB2E4n4vVPc0fbpdSHGbYVr3NlvU2LdTtAaFAfsBARAAARDYOAIQIhvHFlsGARAAgaEhcN6u3bZDE6OeHZxpCrowJ9UjDSXOECZtFYImFYmiaYmKGxI5oSCH71X8t6uIAkGkhCAlRXRPyT0/JklEyXNCcGhEkIieFyRl/NiQgnKmINskyhnx33xvG/yYKFA0J4WY9wO1z1d0Z8sLr/dJXEeBuWd0imZ/+ibhDQ1sDBQEQAAEQCAiACGCiQACIAACJyiBMz6xJ0dz9hmSxCOLlnp81ZKPs0x6eKjE5JyjzEPNkOqeIp+0uKBUaEQCIxUe1CU8+ooRPtsk4iMrRiJBwv9YlAgZiRYtVPg5/ls/ZxqCyibReI5o0iayBM0Hodo766kf1Fz6jlTGz0WL7r1lp3BP0EOKjw0CIAACQ0UAQmSoDhcGCwIgAAJHSWCXkme27zvVMPxfKln0zLJtXExEpz5YC4qzbUUc8egIiW7hEUc6OpGPTtQjfi4bBdHRkfS55L2RGEkiIlmREQkRKbuERyREesRI+jjBYEqiUYvo5LwiQ9DdC576Sc1VX/Wl8YM7fkx30y7B6V9YQAAEQAAEjkECECLH4EHBkEAABEBgvQmc8bY9uUAGZ1tSXGZL8TzHC8+ea4UmScGhiI6QyKRU9QqPLoGihUe6fo8Y0dGSJAoSCRMtRnSaVh+RsRYx0stqxKRwxFIHvVB9uRXIfwxa9HP4StZ7RmF7IAACIHD0BCBEjp4htgACIAACxyyB03/nppMtw3xG0aJfU6G6uOmorW2fpMe+DspGPxZ7O1QS/eiKdKSipZ/wiLeXjYLEKVzJfqRctRjh92pxkkZQspGSPuR5l6YgKhhEW2zVliL86awrrgyF/NIdzxX7jtmDhYGBAAiAwAlGAELkBDvg+LggAAInBgGOgNie+5JKjn47Z9Bjmq4qzjVDagVRmapMGtXiVKtYSGjx0EegJNEOnabVLTx6/CI96VxxVCX2gqQG9iXSr7r8I0naVpcYSYzvS7kd+QSX49QtW9GYScqQdNtsW/2lK+Q/3PFc4ZwYMwGfEgRAAASOXQIQIsfuscHIQAAEQGBNBM5908/OrNjW60Zz8g33z3jj862AFBvOF6VdxSKjK/LRE/HIvqevByQRLGnUIxEZaQWtftvrJ0Z0Ja3EuK69IFp4pFGRPqIlMruz4DnCwq+OWESnFlXLD9Xnph35kV88l26OyghjAQEQAAEQeEgIQIg8JNixUxAAARDYGAIX/tbPL63mxLuEUk/ZP+3nfNWJbHRFLlKPRx+j+ZHESMb70e37WJx+tbwYiY3rvdW0oipZmfSrfmJEV9pKSwGvQIwwcU7ZOqWoaMRUvzjYln98a52+TDsFZ6lhAQEQAAEQGDABCJEBA8fuQAAEQGCjCJy58ye/PFmij0/NuI8ISJKKPBmcBpVEQ3TJ3b7pUktVveruD5JWx0q8H2GX72OVYoTHoccSeUviqln9vCDZClscHekq85uNpiwTGcmyP7uspu5vi7ftfb74t406JtguCIAACIDA0gQgRDA7QAAEQOA4IHDBy354/kTZ/Jdaw79wthaQkkYsRHrESKf3R3cp3kXldnUaV1YoCEFhJlqit7ViMZKpnBWlfOltHUmM6FK//XwkyXPZviMrSdPSh3vEJDq9pGburosX3fNr4nvHwTTARwABEACBoSIAITJUhwuDBQEQAIHFBJ7w0msKDdf751JOvGi2HgiPneaRCDGSiEgiSPqU6c32BUnFSKZDeuwf6ZjLtYAIM6V4O8/p9fo1PuTn4qpZaVngpcSIkHHnde0XOZIYyfQk0elcKxUjhiAas4iUUj9aCMSvHHqBqGF+gQAIgAAIDI4AhMjgWGNPIAACILAhBM54+rcfUy2G3245apS7oKciJLrwN5LHqxAjPf6R3kpXRxYjsYBI08G6hEciRLIelIyBPk3T0sJHRzyy9zoy0mtqz6yjhUgkZpZZeJVNNtG0S78y/ULxreXWx+sgAAIgAALrR2D5b+n12xe2BAIgAAIgsAEEzv+Vr78rb9HltVYYRUFiIZJERNLUrMxzafndTHqU7pieiYZ0RUt6eoCwGOmXprVUxKMTBekjRrLNDzP+lS4T+0rESPLebKrWctW0+HCUTSI3DN8/9QLjXRtweLBJEAABEACBJQhAiGBqgAAIgMAQE3jpS68y9nvVb7QawTNaruqJhkhSRuIViaIMHc9ILFQSg3rq1cgY0/uW3e1uSKjFSBQCYSGTSbXql37V3ak93j9nkWXLAne6vHeqefFz2sSeraa1otQtHUE5wjHOG0SGUN848Hz57CGeChg6CIAACAwdAQiRoTtkGDAIgAAIdAg84llfH5+YtG6aO9DY5vmqOyIiMlGRJEKSFSPZalravxH1A+kp0bt0ZOTIvo9u4dEn+pLtwp5N0coKo2SdXjGySISswNS+1LyxBDc+VHfs/zV5JuYWCIAACIDA4AhAiAyONfYEAiAAAutO4ILnfHVH4eTKDa3bp8d9j4VIHPWgPiIken6Jalod8cHvXUaM6N4faff1Pib0JVK8OtGPxR3dswJIV+TSjRKjNK2ktG+Xkf1IPhL+KD1m9n4HgHuLVEx14J7nye3rfoCwQRAAARAAgSUJQIhgcoAACIDAEBN4xK99/QzzrMnrw5/vr4QtP+mgnjWpZ8r4pv6RuJpWKlqyHdczXc9TYaA9JanwSCpfpWV3j+z76I2MdBorZpotdlXqiqMnkRjJGN9188NsT5Guxocr8ZH0MbCzEBmz1NQdvyo3D/FUwNBBAARAYOgIQIgM3SHDgEEABECgQ+Csy64+R549eb28Y6pA++dJtLmHiPaCaON6HzGSESKxwT0WF139PbLPZZoPapO6Fgtx6lbi+ejj+0j7hWhDfDYlKyNuYuGRbb7YKQPc8Y7Evpb1FCMsRCZsNXv7c+U45hYIgAAIgMDgCECIDI419gQCIAAC607gzN+99lzaOn69kiJv/fhekgfmiULt3Yg9Il1VtPhC30ieE70CpVcIdJoepk0LM1WtIkGSRC46PhLeZ8dovkjcZIVH2jSxJzKyTOf3bDWtrg7rfUr7ymxPkl4fSXIGZCGyKafmp2tix9ROUV/3g4QNggAIgAAI9CUAIYKJAQIgAAJDTOCUXbvPy5XN6/2RUs7aN0vmLfeT2DsXe0S60q86DQ6jiEk/MZJW1spGJZYXI72Vrnq7pqePe0zoadUunYJ1RJO8boTYuT9SZCRrZpcy0yCxjxhhIbI5pxYOKnHyzHPFwhBPBwwdBEAABIaKAITIUB0uDBYEQAAEugmc/uFbzhdkXuePlXKGH5D1wAIZe2dIHFwgNdsmpVhUxJGPKDKSjYKwGOk1tS8lRpJIRhitT5F/o286V4+PJPV6ZEv7Jl3TO68dIYKSSefqpHgl/hEeRxQFiQ32kV8kIzSyjQ35NY6O9EZQeB1LEm3JUe1AW5wy9+tiDnMMBEAABEBgMAQgRAbDGXsBARAAgQ0hcOrH7n6U5bs/ccbKpmFKshyPzFqb5HSDxF2HKHywQcrRvpE+wqMrdasTNYnTuTqpWnHVKqJUiKTRjW5fSSwuenqKaON5P/9Ianjvjnh0e1X6VPHK9B+JxEhUKSxTJWulPhIhyDSItuapvi8Qp8w/T8xuyIHCRkEABEAABBYRgBDBpAABEACBISZwyl/e+9iC176uOVIiyUJEiuhmBCEZ982Qunua1EwrEiMhG9lDjmZICrNlfHW0RD+XREniCEr/NK3VpF9FVbOi7WQiH71GeN0QcalISzYykqnilZb55fSrpTqrZ8v4ZgSK9o9YhqCT8tTYH4qTIUSG+D8Dhg4CIDB0BCBEhu6QYcAgAAIg0CFw8l/deVHR8X7SYCFiGGSyEDFiMWIakoyFNtFUncIHFijYv0DBgkOKGx9SLDJiE3p/z0jac0Rf+Pfttt4p5dvdWb3TMT1tnLgmMdJpmrhUf5NuMaLTtThKktyWEihJOpdtSI6INPY15SkLO8UM5hcIgAAIgMBgCECIDIYz9gICIAACG0KAhUiBhUiVhYiMxIcp2ffAgkSSSUQmqShCQnWXvHtnyL17lvzpFoVuGPlH4nSrxWIkTs9KKmutRozo1KxMdGNNYiSb4pVEZ5YXI0njw8THoo3qS0ZLBJHNEZGCqN+/YJwy/0qkZm3IRMVGQQAEQKAPAQgRTAsQAAEQGGICWz95z2MqrfZPayxETBYhSTSEIyLJ3xwh4b+NkEi0XaKmS2rBoWDeoaDmkrvgkDvnkN8OKYzM7R1TeypGIiES+0b6VslKeoDEr3V7RLI9QDq+kz5pWj1+kS6/SdrwMDacHyllTHdh18b0LjHSx9RuGcSpWbUH6tbDIESG+D8Dhg4CIDB0BCBEhu6QYcAgAAIg0CGw/WN3P6roOT+rVYokLCOqAGXKjCDRaVpRqlYsSLhcrfBDEm2fiLuxtzzya25085o++e2AXL41fPJcncbV6cTe1e087QWSeElW0AMkFSOZrulaWKRG997Ghl2lfVchRlg3Jf4RnarVW2GLhdqWvFo45NmnzO4U85hfIAACIAACgyEAITIYztgLCIAACGwIge2fuOvCYsv5+UKlRIIjIlpsSEl2JD5YmCQChF8TsUjh9K2sYJFKkWr75Nfd6ObWPHLmHHJZmHiKgoCiaAlneAWKKAxVdM/P+4HiHoqdKMUqxEj/Clt9qmQtEQWJ08oyjRV7OrXral9ajERREl3mNyn1y0JkU4Hm5pr2w2ZehT4iGzJRsVEQAAEQ6EMAQgTTAgRAAASGmMCOj991Qd5xboiECJvTWWAYsmNYz6RoRQKE1+GStZEQSdK3IoGSPCcEGZRETzgK4QXktnxyGx55Tki+E0dL2q2AnFZA7YZPrYZPvq/iyliJEEgN5NnHUfWsJG0rKgUsSBE3go8N7wE/J0UscCh+nKZgJeKGt9vV0V33N9EeEl0+OONp0WIk22Mk/VsIsk1Bk3k1c3ctv51eK9pDPB0wdBAAARAYKgIQIkN1uDBYEAABEOgmsOWjdz6y4rk3LpSLxCpEJhERXTVLl/NNhUcqRNhLkogR/Rw392NBwvcGNwBkUUJkCCJDiUjksAfcUPGNX+dIiuTHkXVERJERfhxZSaL1ucmgirZDoaCAWGSE5AcB1ZseBY5HrqfUwUZw6FAjnK+5ZNadsDznqOKco9jWIqUpLd38UPtD+oqRJDqihUea7pX0MeltZqjFSM4QtLUgDt7+0vxJmF8gAAIgAAKDIwAhMjjW2BMIgAAIrDuBLX95x/nllnfTQqVIKoqI6DSsOPUqEhZpOd+kx4heR99H0RDtHxFksfBgEZL4SThawiIk6k+SCJUoaiIoiqTEYiXxniR/R+KF/46r6cb3xMKFc7gUKcXpXiEFRkB5O3RvuNf98xlH/dPt++cXDMsypMrlbp7zRpQKNgckTy9Y6oLxsvXonKFOUyS23zMfikaghM8hlp4oSLYD+0rESM4UtLkg9t21s3Dyuh8gbBAEQAAEQGBJAhAimBwgAAIgMMQETvronkeUHP/m+UohjoiwWNDGdMHCIynny2JEp24lZvbYuJ71i8TCInqeRUTX67HQiAVHIki4NLAWLRlRws+x6EijKYkgicUIi5JEkDB3U5FdUKrWCv7ZmbPf9NpLl0iN2qXk04jkzPjMSQuOt11J+Yi8SU8s5+iXDEOcuuBR+WBTUStQFKQVtjoVvnS1L07t6o2M5E1Bozlx477LihcO8VTA0EEABEBg6AhAiAzdIcOAQQAEQKBDgIWI3fKub1aLNkdE4ibpLCa0KT2OgugSvrFPpBP9SCMhXdGRRJCwyEjFSFaIZAUJ9ylhYZIRJTqdKyNGYgGihUgSHeFywkJRyClitppteOqlr3qM9e0VH9+rlHHKofmq7znnqlA+3jboKSVbXpCz6OEPthQdclTkNemUDNbRk24xUrIicfWPM68pvXbF+8aKIAACIAACR00AQuSoEWIDIAACIPDQEZj42O3nFhvez1vVUiRE+Nf+yNsRpVLFVbS0T8RIxAmbs7UAYYGQFSk64hGnYcXiIupBkkRKdAqWfp4jH1EURYuPKA0reW+SjhX5R1Jx0vGZ8AlIsJ+E7y2ihVD9a+lO41U7dwq2kqx+UUqc8jfzo4HvPdFR9HI3VE+3DLm1FZLw2PyeiBIdFeF75jOaE+0FL3yx84aRr65+p3gHCIAACIDAWglAiKyVHN4HAiAAAscAgcm/uPOsfLN9Y2ukmOOGg3Fp2iSSofuJRBGQ2OMRRUrSEr8Zb0gS+YiqbunoCIsMfqx9IalHRPtDYtGTvt7lD4nFiI6ExJ4RET3uvbEY4WpbDoW3hnXzMUumZ62S9/gnpnc0A3q2pPBlnqJHeUqMSkOYaUUvKWg8L5x5N/yU742+k94unFXuAquDAAiAAAgcBQEIkaOAh7eCAAiAwENNYPOH9pxut52bmyOlfCxEON0prniVFRydqEfHM8KipEt4ZEzrLBwi4ZJ6QnSaVictK/aHdD+OIx+xCNGRke6UrCQtKzGxR9EQNrDzItRMIIzzf+Micf+6cv3AzIht0yluoC4yTPW8sZx8tG3JQjNQP3J8cUXeCr8x+6ZxNDJcV+jYGAiAAAgsTwBCZHlGWAMEQAAEjlkCo++/9dSSG9zaGinmOTUrKkkb3YgMg1O0ZFSmNxYiHd9I6hXRgiVJwUrXSaIqXEFLm9NZtKSpWYlIYSERpW5FxnUtQOL1uJgVp2xp43oUCclESaLG6qw/tBgRVPMpeMJrLs7t3ijg45+YrjalHFOhMG0p52pvrU5v1L6wXRAAARAAgSMTgBDBDAEBEACBISYw/hd3nJyrObc5I4VCGAmROCKiu4dn/R/R3z2RkkVm9SQtK216qNOyUo9Ip7KWjoakUZGkIlb8OImMaIM6C5NMWpaOkkQiRN8ENdq+euYbn2hdM8SHBEMHARAAARBYIQEIkRWCwmogAAIgcCwSmPzgL7YZDe92d7RUiszqqRBJTOuJH4SrX+lSvmlfkbTMr4yjGUbiD9E9RLJ9RJJu66mBXZfwTUztupdIdJ9ESHT53qikcNLksCNAEmHCDdlZiMQFrVqNgF72lieYXz4WWWNMIAACIAAC60sAQmR9eWJrIAACIDBQAqXL79pSajf2uKPFSpSaxblP0YW9iLqsR80Es31FjGx6VpyyFVXTSv0hPVWyEjHCjREXNTlMtq09IWlPkajTeiw0dHQkSs9K0rJ0ZEQk5vU4RUvxWMNpJ/iobYh/8lz7gQJR+y2XivpAgWJnIAACIAACAyMAITIw1NgRCIAACKw/gcpHbpu0Zp07grHSCDvPObLAV/TZFK0oQhFFRDJd1tMO7LqpYVxBK+7MzgJCC5ZYVOhu62kzQx0JyfQaSVOyVMesHgmhtHxvd3pW0lswTc1yg5CuvX+epupuTRB5eUs6ppRTAYn9gsSNPolrLBHutqQ4+LmdmyFQ1n86YYsgAAIgMFACECIDxY2dgQAIgMA6E/jUddbk/vwBr1qY5MZ9sT8kjohEaVoyrqAVCZGesr3awB5VzoqERxIN0SIl7R+SKeHblZIVl/HlJopcISuNiGQaGmaFCI8jbWwYDy8xq3NshKjpBXTVrdP0iweb1PRCytsGlWxJRdugsaJBI3np5E1jNlR0txOK3Y5PN4ZEP7dt++YfvHJ0dp3JYnMgAAIgAAIbTABCZIMBY/MgAAIgsKEEdl1tbja23OsWctuCHqO6jo5Elaoy3dZjAcKio5OmFUdC9PNxlISrbkX3Ga9I3NxQl+hN0rWSqEdaNYvfk1TI0iV8dbWs3hQtLUZYlrAQ+fythyIhUnOCWOHwLQ7vJEYSScKQNFIwaVvZpBFbzEhJtzZd9XU3VFdLN3fLOZMjC59ba1PEDT1Y2DgIgAAIgECWAIQI5gMIgAAIDDOBq5Sx5a49t7qmcabPnyMrRpIICT/X8YpwOd9EdGQjJNkeItnISNa4njY3ZKERd2/XwkJHQ1jgRBGYqI9I8nf2PqmQxeKG+4fwetqs3nQD+vdbDtFtB5tUc4NUeHSJES1OtEBJ7rlb/ClVYyFvidsaDn3TD8JvWsK84S70Bxnm2Y2xgwAIHOcEIESO8wOMjwcCIHCcE9ilZDG358t5y3iuyxWokqv6yH8RXeXH6VrR9XtWVCQihEVJJxqS+ETYE8LpVtFrbGTXndp1H5HkuR6zelo5K31ed1HveEZ0BISHxgv7T/RzHBH5wi2H6PaDDapHEZFOFCQVI1kBkvmbU9BMQ5JlSrIMSZtKBr/9unrL/5wbqC8d+p1Ntx3nMwEfDwRAAASGjgCEyNAdMgwYBEAABLoJyPfd9q6JnHl5M1CdhoaJT0T7ReK+IrEYyXZcj/6OhEf8vK6MlQqURLzEPpJYUMQpXDKKeHT1EknK9kaNDBMvSdrAsMsfkoiPxMSu+4i0vJC+fMsU3fZAg+ppRCQxoWRTtPqJEa49nEnfsk1JIzlJo3kRmELsb3rqK01H/d3Um8d+hvkDAiAAAiBwbBCAEDk2jgNGAQIgAAJrJ/DePY8eK9APnFAUdbUs9oRos3p3k0OObnSM6RxF4IgHRxHiqlmxcT26180N9X3SIyR6PttFXZvaE6GjDepxWd+khHDazDB+rEv7ZhsashD56u44ItJwfGLzPd/6RkMiVZX4R3rTtXpey5uStpeFKpt0+1RL/X07DK6cecPEvrUDxztBAARAAATWgwCEyHpQxDZAAARA4KEksGu3TdL6j8mi8aw4KhKb07OVs7LVtPi6XRvVdVqW9o3ox1HJXiNJxdLpW1F0JDGqazFCLFySNK60d0giNvS62R4ikQjJlPHVHhEiansBfW33IbrzYJPqrk9KUCxG+omO5Z7Tr2ciKSVL0NaiaAcBfW/BVx+a3j/yXdolwofy0GHfIAACIHAiE4AQOZGPPj47CIDA8UPgfXsu2V4UV9Rc2hawVyTTS4TDD5EQyZT2TQVHEu2IKmklhvWuviNZ4ZFEPlIxkq2olfg94ubunWpaOk2LdQEb3HU0JOsViaMiIhIi37z5EN31YOwRiYWIYyBDAAAgAElEQVQIUZhGPlbuGUnU2OJoSnLEtxfFPdOt8E/bweiV9HbhHD8TAZ8EBEAABIaHAITI8BwrjBQEQAAEliawS8m8vefVm0vGhw61wslYdHQaG3aLkU7H9d6ISFdTQ13eN/GFaIES+0gyJXx1NS1dspd7lyRiRKdgRelaWojoHiJ8rzripO2F9K3dh+ju1KxOkRgJhU7R6pOmtZIUrZ4KWwzRNohOLcvZvY3gz1vjo5+kncLF9AIBEAABEBgsAQiRwfLG3kAABEBgYwlcfvtrNufln9c9tb1LjGjPSBoZScSIjoT0VtHKVNhi4WEaiQE9SdOK/R/ZNC0tTHQn9aSRou6snqRtaf9I3FW9UzGL/3K8gL5z8zTdy0LE9SPzOUdEIjGSpmgdQYws4xXpKgNMRBVL0MOrYn5vLXzjzBtHr9rYA4OtgwAIgAAI9BKAEMGcAAEQAIHjicBVyijde9elm3NilxPSk+qeIjZB6LSstM9IEjGJIhtps0OKqmel5XyzYiRpdqiramkhwhGUtG9I0uzQTPaXFSscGYnTs+LKXZFmSHqKaEHieCF996ZDdN/BBnFPEfaHhMlKfM9ekci83hsF6fWDZBsh9quwpatrEdFYTlDOUD+rBeZzGm8oHzyepgI+CwiAAAgc6wQgRI71I4TxgQAIgMAaCGz+0J7TXSn+x46S+Zo5T1VqbhilOMV9RrQwiUVE3HU922m9T8WsVJR0oiBRKd/k+Wg7adleXRWrUzUrej1J3Yp9IklKVlrCV5DjBvSt6w/SA9Ntavth4g9hs3ocFYmjIz1ipDftaok+I4sqb/WIkYarXu6+ZfTf1oAabwEBEAABEFgjAQiRNYLD20AABEDgmCfwqeus0cbEE5UK32hL+hUpxCYnpChC0itG4ihIHB2JSvmyqEjStnSEJI58JCV+00pasTBhMaN9IKl/RHdU1yV8tTckMbbzGDhCotO0mm2fvvqDAzTf8MgnlYgOnZaViBFdSUuX9V2qv0g2StK7TvaxEFS2uMu7+rvab4++8Zg/phggCIAACBxHBCBEjqODiY8CAiAAAn0J7Nptlwul033hvVwo+XLDEA+TknLZNC0WElqMcLqVxQ0Lk4pasUBhwRE/Fz2f6Z4ePZf2C4kbI8bRj+6O6rwNfo5PPFHT96i3SCxgglDR3IJL37n2/igtK9RRkMQnEntEdFQkKeu72mhIpuFhnBvGoyTKmYLyBv1o/o2jj8cMAgEQAAEQGBwBCJHBscaeQAAEQOChJaCUKH34ni0hqaeUbPq1kYJ8SttTpzQDEoqrXHX5RThC0knZ0q+lvo9EpMTm81icZF+LqmUlnhHdN0SLlbjDe5y+pf0hjZZPd99Xp1/smSU3CKNoSOwL0elYsfjoPMeP5dF5RpKoCQuRrUVx7z2vHjn1oT1A2DsIgAAInFgEIEROrOONTwsCIAACEYEtH36g5JvtU6RUF1ds45ljBfl4KWl7w1e5mhunb8V9RYiMNEUriYro8r094kMLEl0ZK42IpP6QXp9I3D/E90OammrTrb+YpfmaS4FSqR8kFR6pCFlhJa1+0ZKsiT2TulUwJT1i1Nh3T6t93qHXbaphioAACIAACAyGAITIYDhjLyAAAiBwzBJ47Keus6bDie2BMh5lGnSRZYoLy6Y4YyRnnBYoZbmhkG5AFKpYoGS9InEUJI6mRM9nGiCmgiRKv4rTtFKTelIxy3MCmp9z6cD+Ot13by31hXSaGXZSsuJ+IrrbOvcX0Slaq+gv0uMXYT/M5oJBTxi37v/5/vY5d7x9YuGYPVAYGAiAAAgcZwQgRI6zA4qPAwIgAALrQYDFSdPYfLZBxsU5k55uGfJcJcRYqFRJCFEoGqISKkXtdhgZ1TkNK7pPvCPpc4l3pFMli6MiinPBKAwUTR9s0YH7ajRzqE2KEnGRCg42qiepWVEvkU7VrE6kJFNJqzcK0s+wnomKcMPHTQWTHjeZowvLxqGra+7Z1+4cmVkPftgGCIAACIDA8gQgRJZnhDVAAARA4MQmsEvJpxHJfeN3GJv8vJzP5Yw8OSf5nvNc6+6ZD/qGmaecRcJkM7tB0pJk5MzoXkgZ9zBJbqQUBV5ITsOn+qxDzZpLrhvG6VhJhKMT6dDNDHV39YwoMXrM62n3dbm4z8gSaVplW9LFEzl6zcNKNOWEc9c1vHOufAF6iZzYkx2fHgRAYJAEIEQGSRv7AgEQAIHjiMC5r/vh+YWp2jWOTxVlmWwmiStR8S15zIZyfqwEv8biQVBIioJAkeeFUbUsftxJu+oWHVmPSNphvavbeqaSVlaMLFWyN3l+rGjREzfl6Vc25+mskkl3tYP5huef90fPLB04jg4RPgoIgAAIHNMEIESO6cODwYEACIDAsUvgjKd/9fRK4Fzv+KqqpEHRzUjuo4pW2ef047ghYRz1iCMc6d8sVGR3etZSAiVdb6myvn36i0hDUjFn0sNH83TeiE0Xj+Xo3LJJJgm62/EXhAoe8YZLi/uOXeIYGQiAAAgcXwQgRI6v44lPAwIgcKITUErs+Ni+fLhgiAO7tjU3Ese5T/z8w/KmuNH1wi4hEso4MtIRIpm/k5K72b4g3T1CMmIkEixJCpaRMadnSvr2pnHF4iYp65tJycpbBm0qWXTGWJ4ev6VEjyhbtNmSZAsiNyTa5wYLBfLPv+yS4t6NZIZtgwAIgAAIdAhAiGA2gAAIgMBxQuCk9+05jwQ937DFEw0pOfXpRgroh0YQ3LRlU+3Bn77pIm89P+o5F//7RNEK7uKICAuPMI2GxJGQSIxkn4v+5jStWChEAkSnWfVtXJiIkp6oRypc0vckPUZ0E8SoSYkgYUiyTSPqFH/yaJ5+aWuZnrGtRFsNg0yh2K4SVQHzFNG9TlCvkHXeZZcICJH1nCTYFgiAAAgcgQCECKYHCIAACBwHBMY/uOcl5bz5ATdUp/tcGlcQWYaILsILptgXBuH3W211Vc7wv3PH286okeC6VUe3POIJV40XKLy77VM1Fhw9kY/IM6JTtZLXtTDhlCw2nCcio7s6li7Tm03d6jansxhZHA3pPGeYksbKFl24vUrnjRfo3LJN2/Mm5aUkM/rYKqrSxWKEeR1wg0ZJWOftfIq47+io4N0gAAIgAAIrJQAhslJSWA8EQAAEjlECE++7+5xCIfxyO6AzmoGKREhUpYqjAoKoZEsazRs0khOhF6g7Wy31H24QXnHHW0+9/mg+0vmPu/LkvKFudjyqRiIkK0YykZA0TSt5LkrdMjgyoqMiGVHRVaa310cSi5FItKSlfLvN7ZvGc7RjokCnjeXp9GqOthdtGrUNqrAgYx6RBok1mFZiHBHZ6wTNUWmdCyFyNDMC7wUBEACB1RGAEFkdL6wNAiAAAsccgZEP7PmfeUu8v+YqblXeJUJYjOjnuKmgbQp6WNVQ1ZxxsOEEP1tohde0XHVtzlK33PqmU+9fzYc75/FXnlpWwY2uqyraqB6yL6MrRSuOkvQ+F6dx6TQtnVqlU7Hisr06WhIb03VEhMVLLEQMS1KpZNFY1aaJik3jeZO2VG3aUs3RSSWLNudMKnAfk0RxiKR/CX/G7MkvSc1qbTatc1/8JHHvahhgXRAAARAAgbUTgBBZOzu8EwRAAAQeegJXKeOU/Xd+s+6pp7f8OCUr8kdENonEK5GKkzhnS0dMLFPQSM6gzQVZl0rdXmsGP2i76trA82+lnLf/9vvPmqFdgm0UfZcLLv7saTlFN0RCJI12xJGRbrN6xjOSpGp1/CSxXySOjmS6pifeEf4s0pZk5Q2ycgbZOYMsW1LOlFQsGDRWzdHW8QKdPJ6nbQWTSoYkM+rgTlHTRCO5ZywsRKIwCPPIJKaxELnP8dtjdnjuZU8o3PPQH1SMAARAAARODAIQIifGccanBAEQOF4J7LrafPj4KXcdaoYneywZItGRjYokEZGoz59uLJisFwmWOIWLAyfcHb1oirBoiLmqSXtDP7zTb/q3tL3wRn+hfScR3W/unm4Lo+mW7pgP2zY9Kh96/9f1VCmKegjtE2FxoW+xTySMDOodD0lomJl1OLzBt0RB8H0kooiEKahYsWh8U4EmJvI0OZqnyapNm4oWVaOqV9ypPREeRGSo5O9EbHA0JBIlaRREJelZnQnBQmQfhMjx+j8EnwsEQOAYJgAhcgwfHAwNBEAABJYjsG3XgWJ5on3XA/VgixfyVXfig4gERk+aVvJcNiqifSQsSEwZ39jknjME2dG9jO79IGwIIicvhVM0RNuqNRqy7Ylgun5OGAqWDiTDkKRij4okChSpUJFQgpSS1GiHUXoVd1rn9C0/ESIsPgzLICtvUb5oUaFoRpGOYt6gkm1QISfJkjIaUzQ+NuDzWJPxRiKEIx9aeLCgijPUolscGYnFB//NS+wT6ZANFNF+13cmVHjuzksKdy/HHK+DAAiAAAisDwEIkfXhiK2AAAiAwENCoPrR3ePbzfxt++rBJP+yr6MhR/KKsOjovN4RKxwV4Yt9jowYGWESP0dkChkJlPhGUfUpv+lGF/a8PqdBsSAwKI6wxJEK/luQYhN9st1OFCZ+jfdnmjK6WdEtFkE2V7ji1zKBEt6PFh/xPuLHkRBJREk2QiLZF5JNz0pEihYkrEdYiEz5gTcSWGfvvERAiDwkMxk7BQEQOBEJQIiciEcdnxkEQOC4IRAJEatw+76aP9FJzYqjIXxpvpKoSCRKovSsRBQkwiMSF0mUJBYEiUiJRAlHKGSSUcXCJU7tikQLJff8nN4Gi4RIiOjnWMhowZKIjSjSEdlLYlGTiBj+WwubVOgkEY4opSzzOns/uoVIEh3RUZKMENGTIFSKpv2QCio8/ZVPyd913EwOfBAQAAEQOMYJQIgc4wcIwwMBEACBIxFgIbLDyu/ZuxCMu5wKlRjV46hHbExnocEiIH5NR0O0cT0jVhIxoQUFCxMdITEjCwdHKDpRk+g1FhrRLXk+2kZsGNciJHqNIxn6Ob2fJIoSRWKSbehtRVGOSGDE24/EhRYd/BoLp8SMnkZfdHpWEhmJPjp/9h4REjGJmojEZCMhEoRUghDBfzYQAAEQGCgBCJGB4sbOQAAEQGB9CWghct+8Px5FRLKm9OTvNA0riXykYiQjWvRz0UV95MWI06K6Ih1JVCQSJTr6EYkTHenQYkSnd8ViJBY0mfStbGSEOu+NIiBRylcn3SoWIB0xoqMfsa89WS8RKdoHoitmRQKEGWjDesY7okUIvydIhEgFQmR9Jye2BgIgAALLEIAQwRQBARAAgSEmEHtEcnfcNx+MsRCJLryXiIp0mhzqKEgmKpKKlPjCXxvDU78IiwFuB5KNkkTVgRMfRzadK42OJF6TnuhIJwLSSdWKfR7x41h4JH6TJKKhn4sjJRkPShItiQzqqS8lY1TPVNTSJvXYM5I2FyH2+M/4IVUhRIb4fwKGDgIgMIwEIESG8ahhzCAAAiCQEKju2j2+fSx3x30LLES4YlWcgpWNgui+InH5Xi1UdNpWJzWr0/gwjnjoWyc9K/GMaDGSMben/pJEdKR+Ei0qEl+JFhs60sKiQouPOPUqI060GNFRkcSUHkVtVFwdLJuuFRvjOyJEl+2N7DJJNITN6/pvPYlYiBzyQmdEBef+Jqpm4f8WCIAACAyMAITIwFBjRyAAAiCw/gS0ELl33h9zw/jCPOsF4TSrbAUtHkE2YtIrWvRrWljEKViJP4TTproM7dpkHpvWO56RnhStyLyejXR0PCVZ8dGJhCTiJJO2laZoZStkJVW5dMWsKG0rW7ZXP2YBxkJEqbSEbypGBHtEiKbdwCma9tmvR2f19Z+k2CIIgAAILEEAQgRTAwRAAASGmMDYB+4c2VII77pvns3qmWaGmVSr1Lie+keSlKyMn0RXzkqbIUaCo+MF6VTMyhrYO9GLtOxv4v/ImtVjI3qnaWJaOSubgpVEM6IoTJKmlYoUHmfWvJ6pmKUFiq6U1VsxK9vMMBIjSSnfSJAlx52tNdOu365SeNZvXVLcO8TTAUMHARAAgaEiACEyVIcLgwUBEACBHgK7dttnj9gH9i4EEx0h0pt+lWlsmPhHOqlbSanfqJRUJ1rCkZS43K4u4csmdq6GpXuKZEv7JtGObInfqBJWHEmJfSYdD0jqBdHrJylYaUREm9B1x/dM9/Su8r3aE5IxrqdCRFfLylbNyjQ17BIiIadm+a2iFZ755icW92OOgQAIgAAIDIYAhMhgOGMvIAACILAxBD51nXVWY+TA3gV/Mjard/tDYs+INqV3d1pPO6z3lPXtmNqTClq96Vg66sHdzjl9qsdPEhnKk0aEaXlf7qAerRub0KNyvmlvkSRVKzGqd3lFtDFdG9kzkRFd0rcTDVnaI5JGQpISv0kV4+iYsG992vWb+TB3+lsuFQ9szIHCVkEABEAABHoJQIhgToAACIDAMBP41HXWGfWRffsX/M1pRERXzeoSGIvN6WnJXh0l0feZRohpOd9EbCxubJjxhyTNDA0WHV2mdR0N0REWXRGr04MkWymryyuSpmF1+pCkPUYSE3s0Rr4lqWlZgRKlY0Xio2Nu75jV467rUdUsL6jnRO7hb3+qmBrm6YCxgwAIgMAwEYAQGaajhbGCAAiAQC+BT11nnbZQue/+engSV83SUY4uk3oSFek0M+w2sHcqaXXK+UZNEJP3dXdczzQv7O22zqlUbEyPhEiPf0Q3MUwiKHEJ306fkcVlezuG9bi0bzweHW3RYiStnMVj7TGr83tYdGR9IlEFLe0PSSr48t20GyxM2rnTXv9EMYNJBgIgAAIgMBgCECKD4Yy9gAAIgMDGENh1tXlKYfvdDzaCHVFn9aihuu6ivtiUHnda7+6m3tvgMBYznXV6oyLZXiKLGx7GndVTT0g2RStJ6Yr6lKSd1jvRkq7O67qfiI56aDHCqVpJc8Qug7r2ifQp35sVKDpCki3hy6lZc144M2nap77uyaK2MQcKWwUBEAABEOglACGCOQECIAACw0xg19XmNnvrnpl2eGqUmsWfpU/H9KjRoRYYSee/xaIls05PV/ZIJHC39YxZPTKzpx3Wk5K9SXpWHBVJ+pHoClzaT5J0WufoSadxYWKO76qYpSMmyX3SNyTqF8JiJJO2patqZZsa8nqR7tI37Q+JtVhU0jdaFNG8pw7+0dPsk4Z5KmDsIAACIDBsBCBEhu2IYbwgAAIgkCXwUmUUz/3FtUGoHuepuKFhtm9IGgFJIyWx2IivxDPlfrt8Jd0d13WalmRzelKKNxUg2f4huueITtHSJva0YlbWI5KppMU9RigxsKeRkuT1xNAeRWVYuKRipNOXJO0dkqmupVO2WGykgiT5vOxOj0v5xkKFl7of3v3OS3IPx+QCARAAARAYHAEIkcGxxp5AAARAYAMIKGG9a/cVpiFf3g46qVm9YiSqppWW580Y13v6jXSqbvURI6mwiAWF9oJEDQ91ZESX6k1K/5ppmlYsHHQ/Ep2GxT6R2IMSRzh0v5HYsJ70FEmiM5FPRIsRLUgS8RFFRJLX01SsxMSe9g/JRkeSI6EFy4IX/vCPL8k/eQMOEDYJAiAAAiCwBAEIEUwNEAABEBh2An9w09vLReMvG17csS8t2ZupftUp47t0+lXHtN6JqmS3x9uIBERXSlanz0gkHDh9i0VBaliPGyDGwiPxg6T9SVh8JKZ0LWAST0i26WFaFSsRJpFI0R3UM94Q3WFdJtEO/T7tB4kqG+umhhkhwiJozgv/+t2X5N8y7FMB4wcBEACBYSIAITJMRwtjBQEQAIF+BH7v5gvLFXlN01VFlUm30hW0Ol3T40hI1oh+pHX6dVuPPBg93pC0j0jk/eikX6V/J31IYs9Id2REC47UqJ5EOtJO7JH4ScRKtnJWJg1Ld1fXQqRjTk/6iiQlfHUKFyOM/k48IpZJNNuWz3/PpeZ/YoKBAAiAAAgMjgCEyOBYY08gAAIgsDEE3nidRSP210oF8xnNnqhIl2ckTcPq9oesWowkVaviSIdO0coa07UgiSMgkSBJBEoaGYke6+paOlKSpF4lKVVpmpYWN9qcHnlQ4mhKWjkrEVhdndV11EQLj6Scr25mGPlHhCDHVzc4yn7arkvF3MYcIGwVBEAABECgHwEIEcwLEAABEDgeCPzR7idvLsvP1tzwtJYfm9a7Ix/dZX27Te3awK7TtuIO7Z11uv0i/Fo2RSvuot5J0Yp8HJlqWpGgyHpIEj+Hfj4SK0naFlf3SnuQpA0LdZUsLUDiqEy2fC+/JzWoR+laulpWvJ6uppU2OExet01qzDj0hvc+LXfl8TAN8BlAAARAYJgIQIgM09HCWEEABEBgKQK7lDS8W148XpAfmqoHp/YTIYsM7F0VtjrekbSaViJG4spbS4kRSdqsnooPFhppilZ3GV8dHdFNCrt6jmjjetroMNPIMFNNK21wyBGRTN+QyDeSrNfV3DBZRz8X18siylvUbvnhB8+8P/9nO3eKAJMLBEAABEBgsAQgRAbLG3sDARAAgY0l8M7dLxkvyXfnLHnhVNOnUGUqZKW9RLSo0JGPnohIV4Wtxeb3tHt7EumIIhi6jG8aHeljTOdULB3xiPqNJH6TqMt6txdER0U6/pD49ViExAIk9obo+yRCkhEd2tDeK064B0nOoNkFj94vg9zf7LpU1Df2oGDrIAACIAAC/QhAiGBegAAIgMBxRqD4nlsfW7Lp7eWcfMXBRmhmy/p2uqhnGxzGEQ/dX0Q3P0wjKEt4S+L0razg0E0NO4Ija16PBUssInrL+GbN6VEZ3q6oiK66xWKj83e070SMxA0N4/Ho6ljZlCxdItg2SYWK/svz6EO7D+a+8TlEQo6z2Y+PAwIgMEwEIESG6WhhrCAAAiCwUgJ/cEOJTOOVtiXfWrDkI71QEd9UdLGeMav3pF+tRYykFa+6eolkUrIyfpG0P0imDHCnclbiBdH9Q7RHJOoxkhEjiWiK+4bEhnPtCUkrZ+mqWknZYPagKFIHWoH6jGXQX7/vqaX7V4oS64EACIAACGwMAQiRjeGKrYIACIDAsUHgj3afQgY9vWjLy6SgJzgBVbhqbadxYXdJX512pc3ufIWflvyNDPBJCCIxgMdelCTKkfGFdCplJT4PyV6STDf1KK0riaBk/R/J82kzw9Sw3umkHhnTs/1DtBm9xx8SdWs3BAWKbvKC8D+kUJ/be6h0M6Igx8bUxChAAARAAEIEcwAEQAAETgQCu26bNMPwsbZBL8tb8jleQCdxylZX+lUiKlKzeqbyVme9XjHCQiSJSmSbHereIVnxkW1kqDunp1WyMpWxEmETd2LvpF9FkQ9dujcT8eB0rThFLBZNkd9Eqhk/oGvCUF1pSfm9jz2juP9EOMz4jCAAAiAwTAQgRIbpaGGsIAACIHC0BHbtqRL550tFTx0vmE+dKMrH+qEan2krs+0rihsiZgzuqT8kY3DvjYwkXpFIKPT2FdE9RDKVtDqd1jvND2NzeqcscLyt2O/Bndo7j5P1tFFdCLIkUcnkfiZqzgvFLW1ffd/x6Vs53//p3zxvdPZokeH9IAACIAACG0MAQmRjuGKrIAACIHDME6h85LZJvy3PMIzwIkvKJ+cN8YiSLU8hocotn2TTp9hXkoqT7kaIHAmJc7U61bdiU3imoWGmmWFaMStjWtcCJPtaLEDi7ehIB4uRqN+IIShvEOWNKM2rGYRivx+qW92QrgtDeR0F4sbPPh/Rj2N+8mGAIAACIJBUhgcIEAABEAABEKDxD+7Z4QZ0upTqUUKKi8OQTveJNhdMuTm2eAhDSmGGkfG7cwtJRI91Fa0oKpIKkKSnSCYtKy3VqxsjJqKDIxv8WpSOlYgZKYWSpHwphK+UmFeKHjBNupcU3RCG9GNLhDdf8atj9+LwgQAIgAAIDB8BRESG75hhxCAAAiAwMALVj+4dd3x3IvDDbcJQDy9a8gxbytMtS2wLQxpvBaLSDlQhUMoq2aISJXYlvg/dTd2KhIWMzOm654ghhBJCKCekBUkUWFJ4BVO2i6Zo2FLUhVLTQor9IYk7PRXcZit5pwztB7+2szI1sA+PHYEACIAACGwoAQiRDcWLjYMACIDAcUZAKUGfI0m3fFfQ1oqoTJ9UDQq+HQahrSxlK1flTGlaZASmYRqm8qVlWpLbfZCgwCuZ0gsN6RbI8FTou7ZluKG0vLzwvYK02n5jvFU5i9SmKVKfu+VwoGWXCI8zgvg4IAACIAACCQEIEUwFEAABEAABEAABEAABEACBgROAEBk4cuwQBEAABEAABEAABEAABEAAQgRzAARAAARAAARAAARAAARAYOAEIEQGjhw7BAEQAAEQAAEQAAEQAAEQgBDBHAABEAABEAABEAABEAABEBg4AQiRgSPHDkEABEAABEAABEAABEAABCBEMAdAAARAAARAAARAAARAAAQGTgBCZODIsUMQAAEQAAEQAAEQAAEQAAEIEcwBEAABEAABEAABEAABEACBgROAEBk4cuwQBEAABEAABEAABEAABEAAQgRzAARAAARAAARAAARAAARAYOAEIEQGjhw7BAEQAAEQAAEQAAEQAAEQgBDBHAABEAABEAABEAABEAABEBg4AQiRgSPHDkEABEAABEAABEAABEAABCBEMAdAAARAAARAAARAAARAAAQGTgBCZODIsUMQAAEQAAEQAAEQAAEQAAEIEcwBEAABEAABEAABEAABEACBgROAEBk4cuwQBEAABEAABEAABEAABEAAQgRzAARAAARAAARAAARAAARAYOAEIEQGjhw7BAEQAAEQAAEQAAEQAAEQgBDBHAABEAABEAABEAABEAABEBg4AQiRgSPHDkEABEAABEAABEAABEAABCBEMAdAAARAAARAAARAAARAAAQGTgBCZODIsUMQAAEQAAEQAAEQAAEQAAEIEcwBEAABEAABEAABEAABEACBgROAELXs6E8AACAASURBVBk4cuwQBEAABEAABEAABEAABEAAQgRzAARAAARAAARAAARAAARAYOAEIEQGjhw7BAEQAAEQAAEQAAEQAAEQgBDBHAABEAABEAABEAABEAABEBg4AQiRgSPHDkEABEAABEAABEAABEAABCBEMAdAAARAAARAAARAAARAAAQGTgBCZODIsUMQAAEQAAEQAAEQAAEQAAEIEcwBEAABEAABEAABEAABEACBgROAEBk4cuwQBEAABEAABEAABEAABEAAQgRzAARAAARAAARAAARAAARAYOAEIEQGjhw7BAEQAAEQAAEQAAEQAAEQgBDBHBg0gQIRVSmXq9hK5ZVSBaXkBJnCE0FQE0I0XFfWiNrzRNQkIm/QA1xifybRaDmXa20Kw7BIZJmGEVaUlFWplB2Gwg2CcFaIoO4J0SLXrRHRHBE1jpHxH+/DKOfz+ckwNCrKVDkjDItKyVIgwroIgrqUsu449gxRzSUiPjZYQAAENpaATUSFfD4/FoZm2TCCaihlhXyVIwpUEIg5KcNZKWWt3W5PE1F9Y4fTd+sWEY0S0QRZVtlUqqIMo2IoZYShqAsRznqex+M6SER8TgofgjGWC4XCaBAEFaVUORlfwScyRBA0hBAznufxeWYq+W7zH4IxYpcgsGYCECJrRoc3roJAPp/PbyGiM4QQFyghzielTjNNY5Nl2WOzMzPVfD7vFQrFRqjCB8Mg2O+67t1KqR8T0U2u697zEF085svlcjUMw+3CNB+pwvBxhjAuMC1zcy6XK9TrtVKjVi8oUiUWHNWRkZogseD7ft3zvXtJqR8LIX5KRPc4jsMnstYGCSvTLBQeJ4XYYhJRQORTwHdEZJBlmGZAUh5ozs39nIjUKo7bsb3qpk3lcqv1MCI6j6T5SEF0oWnIUwzLHG81m4VGvZ4vlkp1KY1ZFYYPCkF7fN+fVkpeSxTc6jjOAQjFY/sQY3RDSaBYLpdPVUo9VgjxmFyu8DBpyh0Uhtvn5uaKnuexQFG2bdcsy7rP87y9RPRTKeVPiOj2drv9IBG1N/iTl2zbPpmkvEgodYk0jHNNwzzJdZ0Rx3H4xzKRLxSauXx+qtVqzaog+IkQ4r+EELsdx+Hx8o9kG7nk8vn8VmGajzGIHmUY1pm2bW33fW9ro9EYc103x2NkTqVSaW8QBFNKiRuUCvicudt13XvX+7vNtksXCIu2yVBUDSPad8gnGSMeBy98L5SUIvNcyigI4nOPECHfq4DPRclzZJCUUhrKp1nLEv89Pz8/u5Fwse1jiwCEyLF1PI630djVavXRQohnEIlfrtdq55uWVTJNoxgEAYVhSEop8n2fv4U6N8MgQ0py2s6CNORUGIbXhqH4QhC43yeimfhae0OXXKVSuYjHLYTxpHa79UhFqmzbdsX3vGjcvARhSKHvp1f2pmlGn4GEiMZv2Ta1Gs1Zy7Zm/CC44bCQ+Yppmt9otVoPrOdnKJfL51Wq1SsWFhbODsMgDILQZ65CCFEqlcrFYnFWmuZ/Bq775gMHDmz0CXRDDwxvfHx8vOo4zhOEMF7gh/4lnutsLZXKYx4fG55XSkXHKPB90seEjwv/LYSgVrM1a5n2PSEF3xNCfKXdbv/oIRK6G84KOwCBARKIvjfDMHy+CtVzPN97WD6fH4n+LwZBetPfn4ZhpP8/LctSrVZrSkrjZiL1JSHEl9vtNv8Atd4/nJiFQuGxYRjuJCGeqZTaYZnWKJ+DwjA+J/FYeeHx8Y2/M/i7vN1qz0lh3BGq8MuGIa50HOeu9fweT46TVS6XzwqUepbyghcHQp1VyOUng4DH1+Goz53R95plkeQxWja5rjMnDXmPCtXXQ8O40m00bl2PH7+q1eq4lOZfSEHPrjcb/MMbn7vTYyNWdCXZu5ZSfHR5I6xCSqWSXSjkb282mr89Ozv7wwHOW+zqISawounzEI8Rux9CAmNjY6coIV6Xt+3nmqZ1bqPZKM3OsIZY3WLbNo2MjFKowr2Nev2mMAw/67ru15Mw+eo2tvzaRrk8+iRp0gtydv5SKejhnu+NzM3OpuJj+U0sXsPO5ahSqfAJ7WCz2bwuDILPE9F32u32fetxoh0b23xBuVL4yt777t3Rb3zbd+ygYrH41YX5+Z0HDx4c5lQxWSwWH2MY1huKxcJTQxWeVltYyLXbq//xtFgs8TFxHc+9p9VofCcMw097nnf9ehyPtcwRvAcEhpiAKBZHHm0Y4RuLpdJTbMs+e3r6kNFsru43D76o5u/JfKEwW6/VrgnD8DP5fP7bs7OznBJ11AtfTPu+/9JcLvcKy7Qet1BbKKz2u4O/N/KFwlyzUb82CIIrPc/7cpKCe9Tjy+fzpxHRbxSLxWcbhnFWq9WeaDTq0Y91K11YNBUKBapUqs1mq3mjH4ZXKN/nH1tYNK152bx58xYhxRWBHzz90KFDa97Okd7I5/pt27c/MD839xIIkQ1BfMxuFELkmD00wzuwytjYk0qF4lst03jO9PT0SLNx9Ne+gvhXKUuNjI3dVqvXP0tB8G9H++WaJVytVs8UQrwoXyg+xzSNJ0wdOmS7a7jAPdJR45NELp9XpVLpDqfdvtrzvM87jnP10f5iNTExcW6+UPja/n37OE1p0cJCJGfb/Avjy4c1IjIyMjIWCvHCSrH8mlAFT56Znpauy3aPo1v44qdYKrUFiW86Tvszrut++yHKVT+6D4J3g8BDQ0BUq9VnF4vF3w/C8NK5mRnp+UdnUYgvpouqUMhf32q1Pi2E+EKj0eDU1jUvpVLpJMuy3swipN12zpifZ/ve2hYeXz6fV4VC8dZWq/kpIcTnms3m/WvbWvyusbGxCwzD+INcPv/CqUOHKutx7jEMQ42Nj90Z+Or/eJ7zL/V6ffdaxzg5ObnVkMYXHde5eG5u7eyWEyJbt227v7aw8KKZmZn/XutY8b7hIwAhMnzH7FgesRwZmbi0XC2+/dCDU89zXUeu5teclX6wTZs2P9hut/7Fdd1POY5z+0rft8R6olAoPNE07d8UUrysUa+N6ND8UW73iG/P5fK+lbO/67bbn3Zd96tHkxpUrVbPqFSr3zqSELFzuf9wWq3LhlGIVCqVCSHEb5TKlTfff2D/mUku8roeHtvOqVzOvqbd9v7W89qfS/w867oPbAwEjjMCxUK58LyR8sibp6enn+b53ronUo2Ojd3UdpxPtpvN/30UnodKqVR6vWma763X6+X1/H6fnNx0e7vd+st6vf5Pax1foVq9uJTPv9Vpty9r1OumTl1br7kyOja6P/CDf/V9/+OtVmvfWrZbLBa3lUqlb7Ra7fPr9Y2p9cERkS0nnbSfIyILCwsQIms5UEP6HgiRIT1wx+KwJyYmHlcqlf58aurQM1ut1YXlV/t5ytWRZuC5XzhcZesPj+LXqFwul3tGsVh8e61Wu9T3fTZRDmwRUob5XO523/c/6nneVWtNNxsdHX1YsVT67oH9+0/tN3iOiNiW9SXP8y7bt28fG+aHacmXSqW3livVtx184P5TNnrgxWLxTs8LP+B57X8mImej94ftg8CwEqhUKq8pFku/d/DgA49c7jNov4VeL/LXsXt5BWlHY2NjP2232+9vtVqc0rraxbBt+4WC6BN+GG5j31i/JfKrWBZZJhfRihc/8Mlz3dQzstSOt2zZcl2z2XxfrVb7wmoHl8/nLymVSr83PT39XCLiWiNLLtrnpldgwaJvy+13ZGTkARYijUbjL/ijLbd+7+uFQmF7Lpf7bttxzmi3NuYUwkJk85Yt+xbm518KIbLaIzTc60OIDPfxO2ZGz/m3lp3/TBgGz5ubnTFWcILhbzN2BfJNl0Tk+WgQEQsCrgqy5MInjkKh0Gy77p/5rvspIlptlY1cPl/amcuZf9Bqtx/hue5KxpwdD+cF8Rd6VAEk+ZVecrnK1RwUNkEKEg+EYfAJ3/f/johWnYA7Pj6+I58vfP/AgaWFiGXbX/Rd9xXDJkQqY2PPqxSLHzs0NXXGClOxOA8wO6f4cPBx4ZN8cbljk8vl+OR+q2mar2+1WtfCM7IcMbx+AhIwRkZGXmhZuffW6wvnrcBnUSNBc4V88UH+qjRN0/I9f1Or3eL/j9XlIpylUonC0P+PVst53Rq+Hy8tFAp/4nre05YSIXz+sW171rKsW3zf/7HjOA2u4BSG4dlE9Cgi4pTXjkLpOeClUol9219tNptvJCKuxLeixTTNJxUKxXcFgf+cZrO53LUYf681LNu6j899lm3lVKDG6vU6G8fzy513+HvNNM17lFIvbjab7IVb1VIoFE5WobrG870d6xlRyg6ChcjY+NjdtYXaTvZSrmqAWHmoCSw3+Yf6w2HwAyMgtu3Y8bZyuXL5nXv2lLnCR7+Ff9EJQzUnpfh6GIYcemUDHdc+18n+LD62EtFFJMSzpJDnhGGw5MWjZVlUKBb3eq77R61W6/+swmtRqFarv27Z9ntcxzmnVltZqNmy7ZZl2gfCMLjedZ3dYRhyGUd+MwsRPhlsl1Kea1nWo1QYnuF6Ho992f9jXM2pVCofqjUb7w49j0P8q3JfT0xMbM/l8z84UkTEtM0vBK7/ymESIpOTkxWS8p9Nw3jBA/cfMQXbNU3zrjAM2XTOJUC5CADX/meByyKE+wRwSteTiOjJQoitSqm+vz5y/nd84RN+3vO8P/M874aB/S/CjkBgCAjkcrkzi8XSp4UUT52Z5vYfixfTsrh8394wDPl7+b+I6O5MxUP+vzdGRBzhvNQ07VcoFWxb6gKX/09OTE4+UFtY2OU4Dv9Ys9JeHuOmaf5hLpd7R6PRWPTDFm9XKcXftTzGLxHRz4iISwfzCYy/t/lHpYcT0bMOn6feIqU8qV/aFG9n69at0/V6/b0LCwt/s5LzEP9wZ9v2hwzDeOXBgwf53LFoic+XIVdY/Nrh767/S0RcAYu9Mny+YYYs4jYR0YVE9NpCoXBhq9Xqe75Jvtc8IeQna7WF967BYH+qZVk/8n1/c++PjOVyOVBK3SqEuMuyLM4ysLkYlu8FXhj6nud5fhCGvgpVyLW2ePzpAQxDwRWzlFJSSBkYUt6rlPrYUWQ5DMH/IAyxl8CyF0lABgLLEeCKGrlC4UuNev2XljoxlYolt9lqfk8pxeFr/lK94wjb5S/X84joksMnhxdIw3gMh/H7LYZp0sjo6Fdq8/N80chlWJdbZLFYfVapUnhvbX7+ouV+zePtm4Z5QCn6oe+7Pw7DkHtx8AmBr4x7T4j8q9lkcvI6X5J8bK6Qe24Yhtscx1n2/9rI6Nj19drCnwZBwJVYVlwqJRYihR8e2L+0Wd00zS8E/nAJkVKp9OxytXrl3MzMqOMszpLiE7VSdJ9S0cUOm/65Z8tSioUvRPjCh0/aLy0UCs9ptVqVvnPKMChfLDVC33tXq9X67BpO2svNQbwOAkNJgItGENFvF4ulyw8efFCE4eIfnSqVqlerLXDRh78lomuSi+elPi/3l/rVfD7/u4ZpPrJR79/TcHx8gn/E+k4Y+py2s5Lyi9KwjZ2lfOmdCwsLj+63c9u2fdd1WdiweLjpCAeEx/gG07Z/53D0nX8oW7SMjY2TaZnX1n3/Za2ZGf6B6ojL+KZNv1Utly4/sP/ASf0ivfl8IWi3W3yu4bF967DQ4L4gSy38gxf/wPLmarX6vPn5+b4/snDEoVKq3DE9O/3y5LtyuWFmXz/LNK1rfN+b6H3TxOTk1OzMzMdN0+TzFnsuTd/3Ayml43leSwgRtIQIqdnU2QPZTUS9R5IfjPh5/lGSxSCWE4jAshdHJxALfNQ1EsiXy5eYRF+sN5ujlPTYyG6qWCqpZqPBhuwPJb+OrXRP/Ev2Lx/2TrxDCPEEpVQ6X6PUrGKRCvnCdC6f2z314IOXO47zzeU2XCwWLyoUy++Ym5u5LAgC/kms71v4IrdaHQnm5+dYPP0nEXF+Mv/SvpplnIUUEb2kXKk+tdGol1UfPnqDuVyebNv+kuO0/8R13RtXuiNOzSoUSz/cv29vXw8Fe0RM0/z3wPdfNUQRkfLk5OSHXNd788JC/+qdVs6a8hzv74noY6s8eXG6xaulIS8Lg5AvMtKFU+VGqtz6ILhTKfEPnud8ul6vc9QOCwic8ARKpdKzDveC+vBhv8Yj3T4/DhSKRbfdan1DKfVxLlG+QmCcivub+UL+Xa7jntYv6sDf9/lc/iAJelaj0Vg2SlksFrfatv1XhmG8eLpP1IZL3Capl68moj0rGCcLkA8XS6VXNBuNRddNUenharXpue4rms0mR1eWXLhM7+j4+BWe6z5+uk8pXK4Y5rrOT4Mg+AQRXbGKXiVPJSHeY0j5y/2iS3G1rwK5rv+KIHCvXMFnzq7yGMu2v+25Lp+Tu5axsfEba7WFP/R9f9nz7yr3idVPEAIQIifIgd7Aj8ndx98lDePdC/PzS80nzve8/HC+7RfXMA7e5tOJ6J+llNGvUXzB7vveg1JKrpj1L4ZhfPlwfu6yubnlcnlzqVT5X81W43W1hYWoKVO/JQmJs1eDTyjvT1LIVhyh6LPNbSymDMN4fRiGo0fyz2zavCWcOjT1VxSGv7tSVuPj4ycXiqUfLCdEBNEr77nnnlWlfa10DOu9HvehmZzc9I29+/ae088cyRcmQRD8QzKv7lzD/rcfThV5uxDi95VSBjcDU2FQJyEOCCl+rEL1Gd/3uanW0dcIXsPg8BYQOAYJbLHz+be67fbv9/MkJN+bLD449ed7qxy/KaX8dKlUevVSqbKjo6Nhs9n8Ddd1+eL8iEu5XH55oVj48NSDU317K42MjEzPz8+/m4j+/+W2lXn9xVx5y/d9jtYvWtgrIoS4ol6v83f3kl4/w7ZfahvG37fb7UrvuYAZGoZxq+d5/OPKp1cTGU8G9DuGYVweBMEiwaAHbOfzl7vt9gdWWab88fl87hvttsPpYF1LtVr90cLCwjtX+SPjKrBj1eOdAITI8X6EN/7zbd28ZfM/1uuNZx6hX8j7Dn+h/n9rqdaRDJ9zaN8piP5QEXE5LhYIXNWIQ9ds4ltRznC1Wn3L2PjEO/fdd+8pXLXlCMt+Ivqrw6k8n0k8LOtBkU8Mrz28oV1CiOpSYoQvsCuVyi2NRuN1nuetqIQhX7SXyuXv79u7dETEMIzPSyFeNURC5MkkxNVzs7NmP1amZU75nv+Ow94PLuu51uXc5GR/TpKqwNti8cGpFaiYtVaqeN/xSmCHlPJ1YRjy9xinaKUXpYkIYf/Cq5JUolUzsG37FYVC4T3z8/P8/3HRUi6XQ9/3L+cKWsuU1y6PTUz8dalQfOW+fXvZI7ZoMU3z+9zccJm0sd73cVoSX8D/ViaVKF2Hf8woFgt3z8/PP4eIblsCAI/nJXYud7nrOByN7U0P5SYdf5akZK2lPNWFpm2/z3ddrsLVdymVSlc1Go0/XGWE/5mjo6NfnZub42IyXUulUv1arbbwx0S0bKRq1ZMCbzghCECInBCHeeM+pG3bj9y8Zcu/Tz04dYbjLP6xnaMXjtPmaid8UX80C/tGOM2JDYXs0VhVfeByubypVKle4TrtZ8zOzCxp6FNKsfvyPUT0r2uoxLXc52P/yNuElL+vwnDJiMzkpk2+4zj/UimX37KSvh8nnXTSqZXqyHV7br9tUf4uD4hTs4ZNiJimyQbRr/tLlNu0c7mbXMd502EjKVe2WuvCFwWcpsU51hxV4QupFYnate4Q7wOBISbA35scleYO4GckkeqnEtGpdi7nu47DnhCOMqy2gmGExLKsx9q53Icb9fql/RiVy5zZGv51s9nk7+cl91EoFHZUqiNXNxr1M/p5TjZt3kxTDz7IPzS9fQ3H4m2FQuEjrVZrUan3xPzOxUtenPggl9o8m+AvOHyOYcH1RCJ6yuEf1k5PKnP9e3L+4XPcWpZJKeW7wzD8H0u9eXx84pv1eu33XNddTYPDF4yPj39xZmaxPadSrnyxVq+xEPnFWgaM94AAhAjmwFERKBaLjxsZHf3yoalDWzxvcRaLlGIuDNXrE4/FUe0rKe3b37W+zJZHRsZfMjo+8jd77713cqmGUUneMHsO/ucaykSu9LNxKchPFYrFX241m4t+XeKNcKnFXC53n+/7v76SUotbtmx5+Mjo2I9vv+0Xx40QORzteuFhY/mSdfktK/ddz3N+JxGlK2WP9UAABNaHAEepuW8RC/knm6Z58uEfDXYlPxStdQ9bC8XiJ1vN5ov6baBYLCol1JWtRotTw7iaVN+lUCg8ybKsr9TrdTZ7LVpnfHz8rpmZmT9ZYzT1aeVK5W/rtRpX4VtqeQt/x6/A28FihlPHuA/LxaZp/pLv+9zng6tkrXXhH1V4/5we17ca18TExDULCwu/t8LiLjwOvk589djY2D/Mzi7Wf8Vi8bOJOFyth3KtnxHvO84IQIgcZwd00B+nUCg8vlKp/ufs7MyE53mLdm/bdst1XRYiy+b1btTYd+zYUfD88CpS4fMOHux//srl89xg6zbP8165hooiqx36S/OFwp97rnfWUqWOi6VS4DrOB3zf/9PlykFu3nzy6aNjJRYibI5ftAxjRISIdhLRvy0FNpfPf99pt1mI3Lxa+A/B+vwL6EnRzTRHDKU4N5yPlSmEeYgoqAdBwOWCOC2DI3Jsjj/a1DAjnx95GJGjKJ9X1G6HQgjudyCI8lIIx2u1WlydZvF/WqIyUW6rZYXcIGFEKVUUwgwsSzaCIFhwXZcvONqVSqXseR6nlvB5JBBC8D74h4LovNJsNjlPfr08Nizai1QoZHPUudiEzBNxBVC32Wwyu7Vy4ws49nJtTtJlOGLJwt40DIOvvvizcxSW/+b9cPRsPfxWXGCC/WfZ3jcyn89bUkpvCYbMgrlvI7LyRF7ZNM2cT+RYQtQ9KevkOOyZ61+Cav3/AzCzk5NU2TX9UJQMaaJULn2yUW9wVadFS6FQUMIwvtis1996pH4dhULhbbl8/hNzfS6aeaOjo6NXz83NcVrnWlKJthUKhU+0Wi2Oeiy16MjQaopc8LzmVFGO+B/N/xmuDviGpDBM355W45OT1y3Mzb3D9/0frHAqcOT4HSMjIx+Zn19cOMQyrY97vsce0FX3wFrh/rHacU4AQuQ4P8Ab/fEsy7qIIyLzc3Mn9RMiyf45wvDBjR7LUtsvlUoXSMP4XqNeH10qGrJ5yxb3wYMHuaoXh/03euHyin9VrlTeUK/V+kZFuNSiaZq3NJtNjgwcsarLph07zhwrlf/7OBMiLxJCfH4pL00+X7i73W5xahaXgj4WFz6u3MfgfCL5JMM0n+K0m5yOwV6hfr9UzpqmtVcIusELw/+iIPhxkme+pgvrarV65v9r7zvgLCnK7TvnmyZsmNll2V0WWAlizhJNoMjDCIJgBkGR4B9FBAMIDxBBRVHRh4DgM2JGEMUAgsozIoigwKaZnXRT56ru/5zZe3F2bvdNkzZU/R7Kc/pWOFVdXV9933cOhNwgzBZQ4nNxFPExH/MCL0mSpAQheTz0/e+Wy2W0Uy+GpmnP5QThsIiQQyVJWuo4DnIBejienygUCpsEQXws8L1vB0GwVZCk/VVV3UeRZQU6AREhAY0iaAFIlFISRtGdbrWK+SnPdoJkWX52zPOHyqI4EKFwUSQIkijwvDiZnCvzHDcWhuHtnud1kiSN7x/CJZ8iSdKLJUl6oed5uJ2GEZIkgAnRO+SP/SUMQ2hjQLMGhBndHfhVda0uimfxgiCGvm/HcTylXyHKsqYpCgyjEd/3b/M8D23VyDKM5arBPVPixUMoJS8UBLHPcapYU7hddzVdf0yR1c0kpj9yougHnG2neg5mOyfz8PtlGSvz2Uq1knjIRzI4pfSLnuedV9MkSeqClMlkroui+CTbbpyWmp7G16rVKsKy2qEBntmGpigKWA0RipRYZFm+KwzD9yzSJYkhcNxpUROPSF9f/y/K5dJ7gyBo9xJHlCTpo4ZhfKhcTnyV4Qm7vNNw6XlYP6zKnRQBZojspBO3o3RbVdW9s7ncLZVy+elNNDmQWI6E9UWJIRUE+VRVk690HSfRVQ0srUzmz9VK5b9qwlsLAe9/ZbO5y8vlEmKDG0ot3hi7/mtbHbYHBwf3NjOZ3z78ULpHhBeEb0mCcOLOkqzOcdLBlqXdZds2RMca8Mlmc1y1WjkziqKru2CWme/5zeq6fqQoSm8MwuBZmqYNQCsAdKdphjDmG8KWU+xdcezHcfRvQuhtPM/dFIYhlJA7Ym0zs9mX+bbzHU3XEwVBs7nsE77nXTA2NgYBTRAk7KPq+vkkCA+NIjoI3Rb0FTk6wB/JyBAQFQQxNi3rp57r/I7nxf3iOEq9Gc7msveWKpWP2uXybbMEXNR1/UpN044LQ4JcsYZimMYDdrV6hm3b0K9op2QURXkZz4tvoDR8nqbrywkhQrtzFEWRG8fRY1EU3RnH8c2EEDADJnmXUvsiSdIhhJBbLSuTS3rIzFhPgD3J0LQvgHY7n+8/yDT18zzPeVEYBssS50iSOFGSuVyhcFelVPxotVq9qx0wdoRnFEU50DCsK4vF8cOT+pPNZiPf98/yfR/vfGLRdX1Q1/VvOI7z/JTvkacoyqeCIICnuSsjHzoqtWTyxD5kM9mHy5UyvLXtrsW5hL9XkqRzCSFIRk8sPT09Xx0fH8ff2/XY5GVZvkjVtNOqyeK/YAlLnZO5HByra9dEgBkiu+a8LuSoCvl8/tOE0BOq1WSFctM0x23bhrsa3PIIaVjI0gNXOs/z4HdPXO+ZbNYLfP9G3/fh8p+NW7yTcfXLsnxVGIbHp/2oxkSDpMOmar3tGiKaopzwyCOPdPvx7WRss34WJAhWNvvzcrHYl5SwDnYxnud/RQi5kuO4H82CkW3WfZ1egWVZ+0uSdGYmm32567rLQYyQphjdrGFN07h8oYc6tn0/IeH1oih+s1KpdBL6AOYeaPckllWrVldLpYnTisXiDb29veszmdzVxl1LbQAAIABJREFUvMAdvnnTJiFJPHJaJbFhWJ8NQ//GmOdfRoIADD+JZWBgMCyVih+ybRu3pV0XaEJQGv9EEDgoRzfUk8lmOU3V73Jd+/XtaL7A6KKUnpHJZl8RUbpqfBZzVCgUqOv6f/SJeyMf8d/sUBEatORgALSSwFmxYmV5olq5wFbV63oJv1+hJ385pcEL25gj2tPT8xXHcS7yPG+nidvPZDJHG4Z50fDwELxSDaVQyFPHcY/2fT91XSuKst6yMrdXKuUVSR56wzDGPM9DMncntL0z+3J0jcwkMfQpl8+XqpXK6ZTSm7pe9N3/cD/dNC9wbRuhrYlFM4yPeI4DQ6zdskQ3zc8IHPd6XAwllJMnCQymLjRYYQh0gwAzRLpBjf1mOgKqJClnyIr0cddxGphE8CBuelVVe8L3PWgzQH0VYn2Nkrzzg+u+2Vz2u57r7ZukYIsm8/n8w8VK5XyO0m/OTxdSaz1nUoX2Itd1Edeb/NFQtK96gYfEytQDxcDAwD5WNntPK4/IzmSI4PCZKxRunxgb2z/N05bNZEmlWrk9juPPcRz367kIAZrN/FuWdZiu66fFHHc0aIfTGL86aUOW5diyrEf9MPxqRMjNnuf9q83fv7Sm25N4WFq1alV1bGzsJE3T7pUU5eKYRieOjY2KzfoMwxjipL7nvSMMQyjOHyXLynVRRHuTjK3JEJZI04wbyuUiNAbavX1tGJ4kSYdNhrh9a/ImvJDkHcvl8psEgb95YmIC70nTvA0kMouyfKrA88e4jmM2CSdtE2YOIqRcLp9/zPe8r0BHolQqtatrczDHcd+fToM7vdGBwRWl4aHhs0WRv2/J8sELie8dOzo6IrSaI1lRAp7jTvU87/qdiAWO7+npuUDXjfdt2rQxUQNDlpVxnucOCYIgXQVdkl4oRBEwLSR5H1VV/Rsh5AJKaSoRRhsTD6aw7wuCkJgML4iiy8UxjB1ckix0eXVfX/9lo6Mje6c1LIriyZTSTgyH5dlc7n9IGL7McRLJKhFJ0I1G2EJjw9rbQRFghsgOOjE7WbeOVFX1a0EQpIr1IaxD0/SqIPA/833/h1EU3RcEwWNdx1e3D9Bhkih+O4rj1PwQ08zcZtsV5Bss9O3hK8xM5hq7UgEdZmLJmJnfV+wKXN/3pD0DQySTzd3zj4ceTE1WFwThm6qinLizeET6+/stSulngyA4qVpND8EHpWcYhn+OY/67UUSgDYDwP8TFdxTK1P5ySnxSVE3zMFPVz3Bd5yjXczkuIZxsNm0sHxgc8z33s2EYfqZSqSBZulXBbfsPk4Tn8MNVq/asDA+PvFcQ4mIcx/AGWmlhY/WGcOBWNfWflXIFatSgTd5XVdXP8jx/eJqxODCw4g/lcvGcarXaSe7G9LFlzUzmwyQM3+N7XqLBns/lfhGE4eWO47RiGzrYsqwzPM9/JaVEbiYs2grcpL8vWbJ02HHsa+I4/qJt2+14fp8Hiuo0Q2RwcEVp69ZhxN9XNFW9xnYctZ05EgThAUrpW8IwRA7LTlGy2WyPlcl8w7Htw4tFcDZsX8AkyMXcg37gwwho5hmEtwLEKIn06LIs3x2GIQzWdlXfk/B7hmEYPw6CYEmKUQiv+kLlG07vnzbJ/PiRTCZ77uS6aeh3TSyxGIYh8g47eR/3KPT03OK57vOTPJI1YhHsNbhcRNI9zpUIU4T3fS4IHXaKNcw62T0CzBDpHjv2y/8gsFJR1R+KgnBgyka1HVaqolRkVf0jCaPbOI7eCyVZe1tmYXdJn+kzMUU7OHnuggJ3WokVTbkh8IJ3LmBYVr0v6w3D+LTjOEekdc40rVHbriLeONVbsysaIjU83miYxhc818u2OoDh5tc0rUcIIb+MIgo2GCQUb6wJXnYjDNb2+z1JFfosRVE+bDvOK7g4RpJz2iHA52LO53iOcAIXcREXczwnIgWD35ZsbNRzMpLqGBxc8a+JifFLHceBJk8rdiIc2HDITfaI7LnaHh7agtytvOd5b6gzXTUbtKbrhOf4a13XuagWYqkKgvAORVYu83wvsZ09Vq0q2tXqZWNjYziYtepzQ/PIG7AymZvsavWApJAx5NTohvY5nuPPL5VKqdoSmCNVVREmdlTcfI682hxRThCQEz/FNBbHscDzvMrzvNlsjgYGBv/pus6VExMT7YT+PKuW/5WYI7Ji5R7V4aGh7ymalrcr5aPaWZCqpoW+5316kgUcon/tGKztVDvfz4i5XO6t+ULP5Y8/9u9ELHLZbKVULgNTJKo386Zjv0coa+J6FEXxp5RShCV1rT+EsFFDN35sO3Zi+BcO4QInfDbiImiqdKR3NRugNU07JJ8vXD40tOWZSfWAnp7n+TscxwFGWzpoa21Poed7tmPvlxK2eZEoin+XJGm5okj7y7LKh2E4Tgh5HPsEpdSL43izKIojnufByoRxwgyUDiZgV3+UGSK7+gwvzPh4w7JO1TXtgrHRUajFNi24mZm6Xd0mdjghCMIWEpHfUxr/UuT5+4MgQGgDbpU6Sv5MaBTMRVB0T2XCUlUtiuPokiAI8NFY6FIQBOHiKIpOTWvYsiynWq2CgSVVEHJbaFbunod3IY9IDY+8qqo3mZZ11PhY6zMVDqWKqnCUUpeSqCIr0mMRpb8gJL5LkvgHPc/DNSFu6ebSW7JMVpTLLdM6fqI4ISR5Qmq5PlsFTrgx4qLbJ+k1wbxUwsEgiiLV930kYD9fEPiToijeB1IySevBME3O0M37ymX35CCotCJ+wG07kmUTD2QrV+5BgiAoBUFoTUyMzWwP716dTraOFQysMidJb+YI+VndqFAUZX9BEO7E7XCSsZjL5fGuf8c0jTd1Q5SgKOLrFMX8huNUExP9LcN6JOKiyxzH+VKTl3eZaZpX6brxhrGx0UTyg9ocbeE44SaOi37BcdxGTdNKoCR2XVeuKYk/h+M4qIrvn4Yr5iibydxLCDltdHQUJAPNytNrN/PJhsiKlQS0znEc54eGGs6N9TmqG3f4lmOOwASFgybmfqcQ55z0pq8r9PR8PfD9pycJ5gFAURR/Syl986Ry+yNNAAXNLDQ0kJOU+A7BMxxFEfKa0sO7Wkyaoij75vP5W0ul0j4pB/NQEIRroyiC0TTXl2uJvcvn83lRFD8pSfIJw8NDiSHSiiKXgyAEhshL6qSs7+3t+V6lUl2XFN6saRq+04GmaSYh25YjL/CcKIic57nVKZa7KA50XavQKHo4ovRejuPu8jwPBA9IOpnL/biTcbFndxAEmCGyg0zEzt6NTCbTR2l0hapqb0w42KQOD2xBcLvn8nnsRuNhEAx7rvuo74e/EQTuPlVVH7JtG3oH3XxU+0RR/CilFB6FxLJ8YIAODw2dEUXRNYswBzg4QJzr0rS2RVH0KKWgikSif2IZGBjYN5PN3b0rhWbVByrL8nMNw7zWcZynJglmpmGyjabT4jLZTEAI2Rr44QbXtR8ihPxeFMV7wjD8xxwYJaphWe+3TOt9Y6OjvUmaMLpueJ7n3hXHMVhl7kaYTZN1Bnrfk3RdP8l13QZxSoxp5R6rXM/1Ltm6dQheiWYf8Oc2u/XVDYPjOZ4DpvU8if7+JV6lUv1VEHj3RFEEfBDiBsMNxswqSVHWkyDAWp1Oe2rqun6LbhivSjIWRVHiCj2Fv/ie9/pKpYI6Oym9qqqeG4bh+1M8YpEsy/DqIGQNh5qkoluW9YF8Pn/mli1DmaQ5mmzD9X0fxgfUtlvNEWLv4UFCgu6amQ1OzdHKPdxKpfyZSfE3hFU188Y9tRYik2iI1OcoCPwp9jKUQk9vZVJ5/JdBEP6a4yIYowhTwjpAHWslSVpFCIH3qRNig07mZE6fNQxjIJvNXiQIwlu2bt365DinN6Lr+rjruvCGfKhF41inZ00aZHg30gr2eRgquK3vqmiatiaXy99cLpeekxIBEHKc8D8cF4G2viuV+Q47JvX29r7fsjJnDw1t6U0yjvL5POe67u2+75/Qab4WKPoN0/ixXbX7Z5P3hu+8YZhg6KNVu/pI4Pt/oJR+RxTFX7dDMtEhJuzxnQgBZojsRJO1E3T1YMMwzp/8SB5OSNj12kJyO5hHwiB40Pf9PxKf3Ec5el8X9L8rFUX5RBAE2HwTy9Jly8aHh4bAKf+1RcL3bZPqutc1aRs3n7jBS/24whCxsrm7d0GPyBQsgiC8z7IyZ5bLJYi/dVVwIDYti5MkYTMh9G/4CMZxjLDA+x3Hgfhbx8U0zYNUVbvZD/z1dkIeSzabi8vlEpI4ESbTbrw+hOE+0tvbd/LY2ChueLcruVwOhjv6fGS1WoWBnlbgEUnNK5r+o220wfJG3/e/FEURYr2hW5NkMEFzY+YBV+BE7oRsJn9puVhcntSZVXuucoa2DJ3t+3474UpPViFJ2iGZrPHxifHxF86st0ZvjT6eU3t3E+l8jHz+aZai/q/t2OuazNF3ajH90zVVmq0HeLDOEQXhLTSKGuiEMUe6rv+1VCq9wnVdeL/SCgxPkCxMF2lMfBZzJAjCY0EQ4CANwo80ow796ZoYoOOXYBY/ACGFoiinmoZ55vDWYSvtkCtJ0h2EEHgX0ozNei+sSWHL86IoStX4qM0zLgW6eufRkKZpq7LZ7A2VSvXFrpsYeQWPyI2TFM/nLoBBqJimeZxpWRe6jrO6kkyvC0/xw4EfIDoAIrEdeSAkSTpYFsVbA0Ly3TAAJi0ReCBx+ago6gOB7/0A5AEzNI1msbLYT3c2BLo+LO5sA2X9XRAEJI4Tj9E05f2yqjzbrlRSdRPa7Y0oSpGsyEMcjX8e0vDblFIcrpodwKZXvU5V1Cv8wEcCY2JZNjCweWjzZtD2zoZFpd3hJD0HFeFbmlQQCoL0ySgiqR/X5cuXr8/k8r9paojw/DdUVX3zzpKsPgMPhPu9yzSNd/h+sGI2t3L1eqFcL4kiPCTfC4LgNkLIn1p4K2ZOkZnv6Xl/4PsfdGy7IRSCFxClFd/NxTEUh1slUc+s+xCRFy+I+fjQmZ4AfMBVVR2P4/jVnuc1U0Z+fu12v+naRIikrMgjdtWGx+0LXeYVrOR5/npBEA9L8jj09vXFJAxvK5VKoKpuzERO7qGSzWZPg3jc6OhoA4sSyC/imHuAkBC5XWkGl9nT03NWSMiFlXK5QTi0Fo6FpN1P1g73nbzHCKuCYOSrk+ZI13WM8zjbtptpqICmFnPY1BCpiZsOOY4DT8eXF5sdrhOQUp/NZPqsOD41l8+/Z9PGjYnaMPitJEnDhBB44drRC8oJgvDhKIrgZU4rENZFXZ3kSGxXFwwRK5O53q7ahyyyIYLk9KOtbPYj5WJxfRrttmlavm1XwXIH9rp2378nxyyK4ivjOMY3qiWhRTdrY/ny5XZM4594gXdNsVjcaXRvuhkr+00yAswQYStjrhHABx/JchdomvbiKIoshH7MlqGmHmc/GXrwP4QQsKKAArhVOUBV1at93z807cHBFSse3bRxI0K3ELu/GAWChc1og4koitdO5j3gdi3x+m2bIZL7TTP6XmHnNkQwLziMHjsZ6nKulcns7ToOckFmP188Hwqi+DeR568JwxAGQ1s3pdls9lmWlf3a2NjIupQDAMKX4MlCuE+nHYXw5pm1xNwGjQncuJdKJRwqrmhyu/mC2iG3KUa5XM6pVCrwhCCPqlnYWCusr7Qs6z3VarUhWR+3+ZIkbZiMCz+kXfrhKWE6w7i4Ui6flESxa2UynOe6l9V0ZBIZqqDGXij03lgqTeydMkf4HQ6mmKNO6cThrcK+AaHWzExwMEdxHH+8XC7jEJ2WsIxcE4SCNTVEcvmcWyqWQFGNOZpX4oVWkzwXf7csa4kkKe82TO2UzZs2J+YUbgvZ1ZBjgHED42aepXq3egRB/FgUUeSJpJW6UdO14jwMEdMy/8ex3UObGCI31DwirZPbugPVUhTlVblc7gMjIyPwrCUWRVG5IPCRE4J13lWC/iSZzBsopSB8Scw366772/8qn88TSZDuCWl4ZqlUapVbNRdNsjp2IASYIbIDTcYu1pVlHMcdI4riWyml+yZ9rDsdL4wRSZIRs35nEPgIUfhpi0Pe0xVFAQUswlQSC1huNm/ehA/XHZ32Z46eb2mISJJ0DSFTHpHEQ8i20Kzs3bu4IQK4cfhbP0mz/FZBEN8YRRQ3qUgk7rpMKZrLMhTNi3FEvxpF0ed833+4RYW8mc2e6NnV62gUT13NJxRoOODQ02leRL2qwwVBuiKKyEEz6zYMgwuC4FuEEFBOT8/XmP7oiziO+1UrYGpJwPBUgEp7NuUlkixfRsKwob+oVFbkUkjDt3B0Sm+gZWiIYRhH5/OFj2zZsvlpSZcYkiiOczz/ekJImnq1oGnaSUEQfCGO4zSqXrArwRPUar7TcHmeIAjXRFH0tKQ50jTtR77vv60JlW9bhogkSUh+h0AdjLmdufAQk5Rl+RO8ILykXCpbaXlfsqxQnud+GgQBcj7afYcGRVG8hFJ6YhOQcDnw2Q686g1VwRAxLPMrru0ethiGiGmaywRBOFvVtDdVK5XladTZ6LgkyfcQEta9si3fuxTckBMFshQj4e/4JtXzN7E/d2Ws4NtuWRaVRfmHFbvyoSAIHtiZFzrre2cIMEOkM7zY050hgNtRsAA9j+f5l/M8/8IoinCznSrg10712Ww2oJTeEUXRJ1zXbRYHf6Cqqtf4vt8QY15vZ3DFikc2bdwIQ2RH9YggRwS3WeC+Tyy9vb37GqZ5+4YnnkB+QUMZXLGC4/j4f3VVP2knDc2aOSbcICPR96WiJL0konRfnucTxcXaWU94BkrthXyh6HruDbYgfIxrrtWR0Qzj/3mOk8a0hnyFMyaTh5FIjfnrpkBbBkm1r5n5Y4TqiKL4F9d1X9VE+6alIdLT0+ONj4/jII4k4G7IIKZ3DZ4bCLi9I2mwlmUhKf7zvu+DOrWlxkYmk7mkp7f3PY8/9liDHgRICOI4+qPjOK9OO5xDlwL5AsViMS1MB94fsNUhZr5Tb8iT20fNmwJBt+0K5sjKZP7p2PbLm3iB9qt5RBKT1VFhf3+fXylVP+UFXrO8h27W10L/Rs1kMi/Rdf1MCFSOjo7CmE7sQzaX48IgxAH6zDAM283bQV1LZFG8MqT0TU0Gh3wthGa1XINpdbRpiCBHBF7LOfWIWJb1FEmWPmiZ1tFjY2PZNLp8hC4ipzIMQ3jRIPDY7T6E/LFn6qZ+YbVc/VsURf+usVki8gGe3tI0TyrW8XJBELAX7CEJwjJeFPf0fX8daK9bRUVgD85kMi7P8xdFUfT5ZnTcC714WXvziwAzROYXX1b7NgSwK66qHR4P4nn+KYqqrpNlZXW1Um4IPWkHtKXLlhHHdW+gYfjhJsnG6yRJupoQ8oq0OlesWLlh48YNCLFAku5iFNw2fb1Jw+BbR6Lmp9Ke6evr20fTjTs2bmhiiMTx13VdP3kXMUTqUMCohbcNB7qnq7K6n6Kr+0x6NZbY1WpDoneryZ0iSSgUHgs876JKpYKY6jT66P1N04QmBfJ7tiu1JGow5cCAABNTt2WgxqiGG+HtCm4POZ4bi2gEZe60m0PoiDQVLcvn838vFosI+Zurtf8uURQvo5Q2hBqBWlmWpQfDMESoVdPE/Uwm06so2tcICV9WKjWGtBfyhbLt2F+cPMiClSoxST2bzT5X143zh4eHGvQ3anOEAyIMua7CVWoTgrAiGHGg126YI0EQoKUAYck/pywCePfQfqohMjg4+GilUnlvuVz+cbcLabF/hxt8RVFea1jWW8ql0tNBGpCmC2SaViQIPMgYPkEpxQG6EwM5LwjCpVEUwVOYVhDOiL20rRDMpEo0TdvDtMzrW4RmfTmKplizcFCfiyIbhnGEaZrvpjR6aaVSUsIw2X7WNI2TJGWD69sfp+GUgnrXRkit4zgn7lXDLPF9Sxgg9mbsA7gcA4Pf82VVfQEfx0vTDNB6HcuXL7+/XC5/wLZt0ISzshsgwAyR3WCSd7Ah4oC4J8dxT+E47tmKojxLVbU9ray1ulqpqlDRjqPW3x7c+CiqupWL4/fbtv2NFIGkFTVvAkJPEsuKlStHNm7YAI9IszyN+YQQnP8I40ksuqbbrufidh1Jqokl09e3d1bT79i0cUMiq9SUR2TXNESm4wG627WTScfPEEXxmaqirlc1bYUkS8urlYrUjtAmKiv09ID//jdhGCBWOY2l52WGaX7UsW3oSmxXprE5wXh8hBM5SeRERcR1H64QKcXixk1iPW8E74MkiqLMcUItoTqKgyDomTRkYGggdC+pQJ/gcI7j0m6MW3pEsrncj8ulEg5tEH6ci/JUWZZvCMOwIWa9hos9KWp2GqUURl5qmIiu688pFHq+vnnzJuwTDfgqivIn3/fxzqZ6QwuFwnFGJnPhpieegEc2aY7KNUMPNK64KKkbrvV+4b8xV/XNqK7TMfXNFEVRoJSCJexIjuPSyDAwRy9tYuzAiIamQqohsmKPPX7hOc6bRkdHu06unouJ7baObaFY6pt0Q3vz8NAQqIVTq8rl84QQck/g+18OwxBrpNOC0CF4jmFcpxV47fBPOzkniXXour7SMI2vNjFEcPBHbgs8pu0e3Jt0uZAzzeDYTCb3zrGxkeduM0CSXx/LsiJRFP9p2+6NhAQwuBZMULHFZOE9PEoQhBNkWX5aWmI96sjlci4h5Crbtj/GhA87fQV2zueZIbJzztuu1GswDh0gCMJhsqwcGYbB3rquI+6Vb5WMrGk6Z1nmfb7vn1OpVJIYhEA3is0sVTBw7V7ryBOPP3Z6GIZgDFrogtA1eGMQKpBYBEHYEEXR+2shJInPZLPZdZls9mebNm7cnQ2RmdgshUEiSdIrFVV9MSV0NY2oHvh+S+KEKU2bOL448P0veZ6XpDdwvK4bF7uu03BQXsAFhAMGPH1peSAtPSKaYVznOQ6M3Lk6rMC7iTBCvG+J3xZd169xXbeZjoM6GTL2Ad0w379p44aGsCxVVWNoDxBCQMmdqs7c399/hmFan3j8sX8nxbUv1DQBV3hk0piAcDiDIdLAClbv4LKBga/HlL59eHh4Dg60CzXsbe0UCoX9ZVE+T1aV4zZtSrd1YaRquk4D372V0hihgs3Y4JoNAt8SGCHY89P2089EUQT2sa6Nb3hEMpnMTdVq9UUpFxwwRGDsIAxxVgripmku5TjhDF3XTh4dHUmkx64PVNf1mOP43wWB/7nJvEx42WfrCZmPBfNyYMPz/PpmoVr9/f13jYyMYB9pJdw6H31kdS4wAswQWWDAWXOpCGAt4kYYt9oIeTlJkqTVzW7Q8AHjecE3TeO8SqWCxNOZydyoDx+DVCEsy8pA9fVSx6m2Esuaj6kDOxK43eHCT/5wSsLfIzJliKSGZmSz2b2sTOZnmzdtQvhbQ4FHJOa4WwxNe8suFprVzpxgDeQlSXpGzHFnR1F0SBxFicrD9cpqmg0bJEk6zXEcaDbMLO8yDANq3i31H9rpYJfPYK0jrC+pf6iypUdEluVPhmEIHY65LAhJg3cx8duydNmyv42OjJxHKU3sN8KyLCvzPT/wX5AkkChJ0oOEELzruHFOZSMr9Pbiff7wxFiDavxcjrVVXTiEwhubRg0OcUToI6UaIn1LlnxxdOtW6ByBpGNnKXomk3mpLCvnE0oQigXvUbO+I/4OB3cwM3VtINQawHqGoZtYZFn+ahiGSFh/tFswoQRvmuY3bdt+asrNft0QgUHUNcuZolj7qapwyeRl2ytGR0elJPa4aWPAWvtW7VLr/nYIIbod/yx/h30BXsSbeJ7Ppxkja9as2fj44xvPoTRADhcruzgCzBDZxSd4Jx0eDopglDlREITXRlGEEKu0EmcymS9XKhUc6GfG/WJ9I4QD9JyJBREzVjZ7c2li4u2z+Wh0ifNekiRdQQhB0m1a/35VU1ZPDUPJ5XJrTMu6c/OmxlAWVLqbGyLTccU6gqfgdFC7Th5IGrQl8HAtjMgzDONMx3FwOJp5CDxdUZRLgiDoKr+py7Uy82foEzQ00kJYmhoiqqKGNKIfI4Q0U6Hupqv76pr+fULJuqSDU/+SpcT33IvK5TIuCBpKNpt9tq7rt4+Nj+VIYww8TrM4bIEF6K/NOpfNZj8Sx/EHK5VKU6OzmwF28htRFN9OKU0Lq1xXC61LNESQlK8oyhUTE+O4iNgpyrYbfO4ETdXfFpBgX7ta5dPyQZA3FIYBqFphhHx7tt6DGkB4Jz6dRoiiG/oPXMdFAnda3k5LnBVF2T+TyfyoXC7vkWIcwPjA+oZ3sJsiGKpxpKRK5yqK+vxisSgQkpyuhu8XpRRhZjDOofXxr24aXODfIBLgQ6ZpfsS2kx19q1atohMTpU+Xy8WGHLkF7itrbgEQYIbIAoDMmugaAYQavUPg+dOiOC6k1VIo9Nw+MTEOVpkk/vFX1m5o4X1ILAODK+4dGx05wff9rm/JuhzhYblcDuwguBlNK6BNxA1eKr1qLpdbbRjmnVu2bAbTUkNhhsh2kCAfAEnKpwiiCMatNNyDTCZzRaVSgRE7U3MAt644aCxm2E8gy/L7wESVMgAwxUG1O7EUCr2+41Tf7/t+qpHe5Zo2ZFm+RBDFd/ue16ApgsPnkiVLvuN57nvHxsZmxunL+Xz+PYTSS6uVSgMts6qqvu/70JQA81EakcBUtw3DuDgIgvcTQmZF79wlBk/+TNf1/+e6LkIvk8JkkACMxP1EQ6Svr584nvtRp1qda2NxtsNK/L1hGAOCJL1b1/U3F8cnVqZR826bH91xXe+OOI5hpEH0sel8dtBheNOxZybSyObz+bur1eoHCCHdhn+BRQq5jT/0fb8/yWMvSVKVEAK2ti920O/6o6qiKMeauvVex7Ofi8TuNK9BxspyfuD9LggCJKQjT3K0i/YW6ydPF0XpZ5SSxO96oVCAEf794eHh1Eu6xeo4a3fuEWCGyNxjymqcWwTwscZ0/oNIAAAgAElEQVTBAyEfieu1t7//r2MjIzgcJlHwwrNymyAIg2k3c2v3WjeyaePmszzPvmluu968NlmWT9d14/JyuZRqJNVySK5r9qHO5/N7arrx86FmhkgU3WwYxlt3w9CspEnALTmSwJFQDsatpEJ7e3tvKZfLV4Zh+McZDyCUDkmxXXHmz9Ea8wVBPiOKUnOboJ2T6kUbGBx0xsfGTvc8Dx6fOS2SJB0uSNI3Qt/vSTpErVm79oHixMTZ4+Pj0AF6sqiqulc+l/t8pWof4TiNN6Wqqv7d932EXEGLpGmpeaywJzQYQ61+O5d/13X9A67rImk4yRBBGCoMkcTD2OCKFd742Nh5td/PZbfmvC7QJUuS9F5ZUU4fGRnpTTPwRUniTMMcd13nR2EYIrwOOTJzWZA3hdDAhvwiNNLb1/dQtVI51/d9MHJ1VSRQhkcRPDiI622oQxTFf1NKQd0L711HRVGU4wzTPLtaqTyjWVhyNpt1AkJ+E/r+9ZRSGCGdiqZ21K95eHiA53mEJa5I2iPA/NXX13dPGIYv3Rnzo+YBr126SmaI7NLTu8sMDjGliLNODLPo7e8bGhsZhQsXrumZpZfn+W8pinJIGlNHX38/mLpuGhsbe9sCJvj167p+leu6iYxetfAgxE7j9r7p7V2hUNhD1bRfDG3ZsiZpxqc8IswQmQkNiAxwa4mwl8QQrSVLl91ZKk5c4fs+bmynlzMFQQDXfaJHBIctgefLkzoWAc/zAsfDgMZWG9fJblIZo5CwVG8o5uM49EMkPNfZm+p/A8MTwj8Qjph22Hl2LUk60Vhatedqe3Rk6zts2056Z2a7cWQnySd+JctyYgz9nmtWO7btXDUyPIwQmSdPcqpqvFJRhOsd1+ulM9iV8D4IgoAk3LZUtid1PD7C8/x5vu8nekQwR6BWpYSUZEUxRUHY7ls4fR6SwOB5fmou6p0PfR/zhP9t6n+XJMkkhNiyLH88DEPcWCcdFOHBRDx/oiGyevUad+PmTWeHvp/m9ZrtPM3J7zOZDN6lt3GCcKFdqehJh3PMnyzLcRCGTwi8eH0UTeX5dK3l0aTjYLLD+5roZVq6bPmE5zrnlUqla2cxeIhLpuYuyLL8uzAMkTSfRlKQ1LQEpXRFVS/2XHd9mhFSC8UaF0Tx+xGlCEGbeUkyi2Et6E9zkiT/VhD49Wl0voODK/7sus6Lx8fHwXDHyi6MADNEduHJ3YWGto+maX9ATH7SR65GcYvbbSjmJnH/fkLVtHN8z0s8lECXobe39y+VSuUYz/Mg2LQQ5dhlywc+ObRlcyLzkqwoHCXkj1EUwRBpSjXZ09OzUlHVu5oZIlEc32Tq+tuZR2S7qYXwGaiTE2/Nly1f/tdKuXy5bU95yqYbD6eomnaZ73mZmQsFB1xJEod8z0fdiEOHkSOaphnzPB9Vq1Wsz/qBtZnS8XQaWTRT/830PbvZB/rpNQM20RDZc/Uae3xs9JRyuTwvXkBBEK5asmTpe4aGtjTouSD3wTTNO8MweM3ExERdZ0EpFApnlyuVTyQZIXEcw0Xy1loISsv3U1XVc1RNu7hcKjVcXmCORIHbFAQEyf5/r83RdPremfPzpIFRa3j6vE2fp/q/Y47q89RsjpobImvWehs3PHFWk/C7ljjM9wPICeF5/hQax2cHnpdJS0qXJIkSQqCrgwTu1JDBOejv3ook/Zxy3ODMdYS6NU0PTNO8amxsFB7NbggAZEEQTomiCEZAYhFF8Xu1vL4H2xyPoOv6axVJ+aQf+ivSlNJBokEIwfcJtMA/mkONkja7OaePmYVCAaLEzyuVkqVWBgYH/+w6zsHT9og57QCrbMdBgBkiO85csJ6kI9BjZTI/D3z/qUm3J5quc57rIkcEtIxJhsgRiqJ8JwiChoNjvcmBwcFg68jIRSQIkI8x30VRFOV/rEzm+CRmoG0fTI16ngfD6n2tOtPT07NCUdVfNjNEKCU3WKb1TmaIbIcmdDruqOlINMC8YuUejxYnSpdVqyWExk1fV8fLsnxpGIYNSvbTxPJAU5mmQ9JqSufi79DyQNhLoiGyevUaZ2Ji/LRisZiqYTPLThyWzeauK5dLDXlLMPyXDgz8e3R4+PVhGE5hZJrmAT19fZdtePxx4LZdgUq5JEl/dxwH4XRtHe40TTs5l89fMzw01OC1qs3R1klD7YhWSe+zxKDVz5saImvW7uVv2rjhHN/3sQ/siEXXTfP0Qj7/oaEtW3Jpoa8cx0HgE+F08II0FbOcg0Eu0TTtB3EcPzvJAw6PQn//0v/1POeUYrHYqJbZugOWqqof932/2b586WQ1ENtsy9CB0ryVzV7rOc469DkpVEk3jDgMgrsnc55A1HDnHObUtB7xPDzR399vxTH38zAMnpVkiCCXrL+/794gCF46OjpamYcusCp3IASYIbIDTcYu1BUIdGHzaK1M2N6g8/l8zx2uaz8z6eMiyZJDQoLYcdxSJbWZt0zr5zHPPQ2qvknFME2EfvyjWqngJhvhEvNWTNM8MV/o+dSWzZt608IYJEmaCMOwLXVuXdcHc/n8r5oZIkEYfiWXybx7JzZEIFgIj9bMxPHZzBPyKKA+nugpW7Fy1cOl4vh/VyoV5FFMvwV/mSIrlwZhcFBK41hkmLuknKXZ9LeT3yI3CmKHyYbImrVOqTjx3vHx8VShzE4aS3i2T1GUr3KCcGTgNUop7LX33nTThg1I5AZjEpfP509aPjBw9YN//3uDuJ9hmBGNo8/52y4bkl/gGR3QNO0IwzC+MD4+nhiuWLtNBpFF10nLs8QHP4c3FAQbiaFZMES2bN5yruvaqTpDc9CHrqvIZDIvyuV7Lt+yacNzaEKuBAzOSZVzCDGC2Q2hTAsRRiQoinKDJElvcpxkeZyVK/f4zfDw0KlBEPyti8E/pbe399NjY2MQE20oNa8FNG4Q8tjy+6fr+opJb+mFxWLx7WnhWJqmeQgPjeMY+xBor5t5UrsY0sL/JJ/P50lI7iGUrE/yAMFrahjG7YLAH8tyRBZ+fha6RWaILDTiu257KsdxEFw6QpKk/QghSESDqNJclP5MJvNbz/PWJtElqpo64ns+4v1vTGlMtCzr/Gw294HNmzelJobrpsm5tg2mE8Tez+WB98luWZa1nhfEL/M897xyikvaymQ4Pwh+Gfo+FJtbxseCrSaby/26mSHiue61Y2NjEK/bEUWumq0RGCBPk1X9mCgiMQ1DHFznKnwOqtcIcUgMzRoYGLx/YmL8Etd1vzPj43+gJEkfJ4SkKWojHwDaD/CkLBbeMERSKW5XbzNE3jc+Pv6luXhBE+pAqNOHTdN8j23bmMPtCvKyAj/8YblcROih3NPXd2lM6fsmJia2C+XCYVY3jLJdrcKw+1m7fVVVda2m618qFYuHpvwGc/QWjuO+1s6Bsd12O3wOhggO54n5DGvX7uUPDW39oG2Xkey+w5U99tjzalmW3v3oo480vD/wOk3Ss3LVahV9hyGVJAw6L2OSJOls0zSvSAv52XPPPZ/YvHnzB4MguLmLDhy7ZOmSz2wd3jow87dYq4IgjBFCYOC2lYSvado7+/v6P7ph44ZlSX2pGXMwPuAVgydkMZPSB2sXAcmxVJ2BOSBJ0u+jKBpIuozr6++nJAxvLBaLyNtsadB11jR7ekdDgBkiO9qM7Hz9gajbKkEQXsFxwuvjOFovy5IWkvBPcRQjlGIuDo0HyrJyHyGhluS2Nk3zYdu2cciemVT8JJqapq3JZHO3jo2PHRDNSIStP1QL2UAsOmJwcYs3PpfToWnanvhI8rxweqWSbF+gD319/Vur1cppruu2xbqC2yVN1+9vZohUqtWry8UiErPniiZzLqGZWReM2pwkSQfyAn+iKIiv9DyvJ5cvVGy7+iUShjAU27oZb9JJ5A68a7IdHJQSk9X7+vpvKxYnLiGEzFQvXyJL8v8LSQjjN7GYpnnLJEc+wjMenk+gmtSN0KxUrYTVa9a6xXLpfROjo91QjLY7pIMlSbqQENJgDODmmOeFf4VhgKR6qX/JkhtGtm6FYbhdMQyDEwTxgWq1gjC6sXYbhidI1/XLXdeFjlBiEUXxWkopGPme6KDeuXwUoVnwiCQbInut84eGh86zK5Upr9GOVHK53DMKhZ5vbNy4YU3STT7C6YIgQBgWErtTqcfnY0ySJB0syuKtgRckCuatWrUnNzKy9TOO4+CyoKMiCdJFvCicG4ZBg/GlqipCCP9g2/Z/tSPMmMlk9rGy2StHhodfQQhpOIvVjBB8P7GG8W1bLE+IDkFYURTP5nn+9x6Md8+brWH5QlVVf+T7fqIobF//ki12tXKl67pXdDRB7OGdEgFmiOyU07ZDdNpQTfOFmqK81vf8w2VRXOkHvlz3WGSyWa5cKkHhFuFSs1HLRdgMklRxI5R4c63r+s9d1z2T47i/NENGVtVP5rK5U0ZHtqbqP8AQ4Dh+KI4jHFBxSOsmjrihG4qi7Keq+plB4J0QhKEaJ4Qy4EeGYXKEhP8bBMGb271NLxQKOVXT/i/NEOnp7XVcz/mMa08Jee3QhggMRkGQjuB5/hjPd56jqlqP73kQ7eIQ3y3J8hDluBOI5+F2cDblGbXEWdB9Ju2DoWVZn6vd6M786AqCLL8jCkNocCSGdZmGWSKUfKym09EV5mAjiqLoZMpxQ0Ic3+k4Drx07R5GEDaWGgpTM0TOnBgd/cJsQGzxWxwyYDQmipIJojAa0QgCk6tW7LHq2o1PPL5qZn19/UvsaqV8ped5SHImHfQVcwqR0mvS5kiW5a1hGCJpGboTXc3RpBgfxni8KIrjlFIkY4900EeEjSEMNNEQ2Wuvdf7w8Mh5lUpxRzNEzFwu98VMJnP8xo3JW7soiI/SiMIQnxcyhGYYa5q2SlLkO0gQrksK+4HBoGnaL8MwPN5xnJkiuM2qXjtJU/zpSqVyZNKFmGEYJCDBf5OAYK228oTKS5cuvSCby5/9z4f/kRg+KYqiQynF+oTXsqVnvIN1186j8EyCAhn7yDEcx71O1/WVPC9spjS61Pdd5Pt08j5ObzMji+KnFE17W5qgYS6X+22pVEIoJkJnWdnFEWCGyC4+wfM1vHy+98S+vt73Vu3qAeNjo2oQ4Dv+nzNS7dA46nsekmHhXWiqhJzST2yGR6uqdrHve09JeYZIknQNIQQHnlYu470zmczlrusdRUiyqjbaQN91Xd9UrVbBz47QDdwsd7vpKqIoHmGa5ruyufzRGzc0v3y1LOv/qtUqOOjbPmi3MkRy+XylUi5fEUURqE+7Hcd8LaUn6126dKkpitLlsiy/tmpX+8dGG/W5FEXlYi6+LwwCHM6Qg9GNoQhtmlMVVX1X4PuNegMwRuPYEWX5vTQMEe6XdKg4RBSlmzguHkxiCpJlmctkcneXy8ULCCE/7wI8RTPNN2Yt62pVUTnX8+4NAx8Jv3eUSiXckrYySMCalZrrtECGCL4vbxZE8aKIUqjab1cEQahGUYRLhsNWr1lzyr//1SgK3dPb+3Dg+6+pVqvdxPM/R1GUWymly9LmSJblnzmOA4KKmV6vtqZMFMVXGYZ5rWVZSqlU/qXvu7fKsny353kb2njX2jFEPlSpFD/ZVmcW6CFcFhim+Ru7Wl2eRoleC6ODR7zVnjwfvc5alvV5VVVfOzY21sCahsumJUuWFMvl8sdd18UFVyujYeqzAN2nfL5w/sjIVtAVz1zLuEQqV6sVhGW1ZAVbtmxZP5LqR0ZHn5OWt1gLZ4OXcKG9qtJklMHxqqoew/P8gWEYLi+Xy1OXdzDidF3/neP4VwSBC0r9Tr8n8D4fY1mZL7uuk0t6L3mep5IiXR/6IQyRTgz7+VhLrM4FQIAZIgsA8q7YhGXlD12ypO+KzZs3Pj2NbhDjzuSyY3al+u0oipAvgryR5AzCRpAKOMArinJqHMeHJrWBDwrPC24UURxm2spHEUXxSMO0LqyUS89KE0hEVxA6YphWJQz8u9wguJWj9G6O4x7pIEZXVFV1tSRJx1jZ7Bt4jnvm0BbkbaYXXTeKvu9dOalPAfavthhXUBsMEUVV7x8eGoJAWkPJ5/MV3OzXGFfa+egu2pIdWLHiMi7m3r5508bEBN6pE4EkIW/gj57j3CwIwk+CIHiozXmBYbu/LMtv1XX9deVyuSHOG/UjrGQy/+P/oig6pQnLzzJFUf6b47jjgiBI9IoMDA5y42PjN3meCyO58ZSdgjLmkxCCG8hTt27dCoMCydycYVlPQAQs8Lyfep53a6VSaRaq9MxmDEVr1qx1y+XSWaOjo7PRU2hnnTxtUkvlY3Ec44C2XcGhxvf9Gw3DPJTn+RW2vX20XS4HR0H83VKpdGw7DSU806Np2qd5nj/Odd0GGuEpXAsF23Xcr/E8d4nneZ2EEOEW+zBZls8Mw3AqcRlzJIjCP3hO+EMU0Xtd1/2x53nN5h3vK1jD0j0iI1vPr5RKO1R4iqIoxxim+e3ijHyeOv61sCzkXyBpu5XB3OXUNv+ZKIpHTVITfsL3/QOTchAymQy0le6nUXS667r4LjXtp2maBwmSdFVE6MEz1+m2PbgHF1h3U0qOaoduNp/PHzw4uOKHDzzwNytpJDW9EBjfz53UOmpU95wX1LZVmsvl1mYz2Vv8IHjW6OgICAe2a62/v58Lw/CXjuNcFQQB8lfazVsRRVF8qQ7BxnI5Mdm/tv8+EgQBLs1wgdlu3fOICKt6vhFghsh8I7zr1q+Zpnl6Lpf/4ObNm3qaDTOby/kRpfd7QfA9EgQ40CPUBaxaSbdlSyc3oDWaph0pK8qxMRc/pVpOZu/DBy+K4/tJGL6uw1yUkzRd/+9Jfv6lSVzz08cCg0TTdFB9/joMg7sopX8hhMCdj1MTboOm60IIqqr2T+XMSNJTZFF6No3okYHv55KS7OvtIBY4XyhwlXL5q2EYXlQzeNpeOTi4yoryh63Dw7jpbyi9fX2cY9s/RDK/KIqEcpwkxLFUE22LKa1rVEzt+VMfZDr1r5PBFfg3OjVO/C91PQUYSYjJgGE2p6WwZMmBmiR9BHHWacn89Qaz+fzmKIruIgH5BaXh/4VhCIE05PVA7K9ekG+SVxSlXxCEZ06GsB0dc/Fh1Uo1l6T+XBNes4NtNM5pithTdYui+Eqe578Qc9xA2jpatmy5V63aX4gi8jXHceChaJp4idtmVdXfqOvaiRMTE/v6/vaMUzhA5Qs9Gz3XuXBkZGQmm9f0uYChDdasxAKPSGVhDBFQZr+npkSPuXiyYN3LklSJeT4T+I1297Jly0bHxsYuCsOwa9YoHEg1Xfuq5/kNIon1jvT29lWqVfvaKCLfqNMJt1jUuBE/SlW1d8Qc94IgYY56evs2UxJe5fv+50dGRtLymVoaIiMjox8ulSYQ4rrDFMOwLhZF/oOVSiXx/IDw0iDwf0IIgWcX+wYMdQFeQhRZlus6KzN/X///4zAMKXR3giCYvvfU9yfQATe6S7dHSBEF4bOiJL0hCILEPARQpPM8f3MYhl8ihPw27XZfUZT9BUk6yzT048dGx7Zbw2gSe8ay5ctHq5UKMME72fLwnM/nz+rp7b3kX48+mijSi29bTOkjIaUI0YXXV5kUx4Q34UnsanhO17iZrl+D/z0K+TDiQx79qe87U8/wPO/6vo+LDGC5XdE0bXUum/ue53sHpCX8w+iO4/g+EpBPk4j8zvf9Vt8CGFwvs6zsqaLIH55WL4RCBUH4wiLnbu0w79ru0hFmiOwuMz0P45ykx1wuSMK5oR+eEQTgP2/ZCDEMc4sg8L+nNH444iKonW2llNKY53tFnh+QVfUALoqfU61W+uM4TswJqW/+sqyUg8BH/HmnFKRQfj5L0/UzkSzXyhipjwqHeMuyJia9HH8ihGyMoiiM+TiKSEQFQRB4nhcVRXlWEIR7VyplfLDqH45UYHAYU1U1cF0XYTegIG61oTfU1dPTk+UF4Xdjo6P7NJkBzM7MD2TrGdtW4XbPGaZp8wL3Pbtin8pxXCM3a8tl0PQBXhSVV2ey5kWlYnG/pFjsGb+OBVEkhZ6ev5Eg+EcY0r/xfAwjaSpkQBTF9bIsr5Zlef3ERHF/3/ewplL3vZo35MEoil7Ncdw/WwwFBs7Noigd6rpOKhubIIpUFMW/Cjz/xTiOfxUEAQxb4FazsPstXa/mZVneX9G0N4dBcFSpWEw8PG0T3+zjKpXqRz3P+WiTm1wYIgg3SuxXzRA5c3R+c0Tq8B0u8Px3OJ7PNtGa2A5qHO4Kvb13j4+OIlE3Nem+1VLLZDKgyL5FUdSXTEykc09gDXFx/BdRFL/C8/yva3OEm+j6LQje5V5OktZJ2xKwX0MIAYtQQ6nPkaLIMEQuaKKD0NQQAWvW1tHx8yul8R3JIwIGw+sJIUe67nR7/z8wwNNlGKYrSeImSZJlURSFOI6jmMN/xHS6KY4T8XQAY/wx5mOKTZVSEgZBGMUxDtG8JIqiHwS41IIXFGr1rfbKo3mex/fh4Cb7CDUM4+dhGN4ShiHeFxzMpw7xcOiLoniQKIrINToqCBoT1NF3aHwIvPgT256ifm8rVDRfKNyo68YJWzYna9XiAsyyMlEcRf9UdU3B9wXrKsZAav9R25njKUtoyrrAvrYNTiAd4f+mCqW4dMKfeYEXaUQjWZT/5nne16vVKhgBG4qi6McpivRh13XWp4lUoj+GYfi8INxOCbkVieyU0pLneTC8gR8sT5COrOF5/mWCILzR930waybuv7XxjcVxfFKNzbDV683+vosgwAyRXWQiF3EYT9UU7fMxHz+vSbzwk93DBjt12xPHQcxxFNH4U/smxwl8HIu8ICgQLUzjVK9XBG0Bx7GRHPrGNm7HkuDBAe0cVdXe7fseNseWBfs9XOZQPRcFgSOE4rA79VnAp0DAiTOiAgnDqeTqdoqu647rut+c9A4h2b7hdqqdOmCIxBx378T4+Pp2np/tM4MrVnC+5900OjqKD3TbIWQdtAtj4UR4JHiez7UyRjAvChhrRImLIupzHE85HstqanuTREFQsJ7SxMKm98u0rGHX8z4VEYLDXxuTKB8kitFVURy/KI6ixPAf9E+SZVB7OoLAj6mKOkYp/Rel9M88z1uT4parojheF/j+XoIgWJ7n8WnrJ5/Ph1HE/ZSQ4J2O4zSL9YMhgkTPVB2RYrl01jwnq9eh7VFV9Zs8zx/WLIxz+jxIohSIkvw533fPm+Hh6mAZbXtUluVnCIJwNaX0BWn7yrQ5chVZLkqStDXmuMcIpX8iQaDworiSi+N1nuutlmUpTylV0uYom836PM/fGQTBKa7rIlckrayrea0SQ7PWrFnrjYyNfniHCs3SuFVZJXur7/sHpe33wBKHSuyV81FkWf4mQnfCMPxTi/phzGNfBaNiaqinpmmxrCgOz/GbJEUcEniBi2hEPNft4QV+DSHUCoIAxlRic7ph/N51HIQS4TKpnWL19ff/KI7jFyflwdUrAIb4Xs5H6evre8h1g6snJlJDM5ET8iFeEE6KoyjR4Ea/0EdN0/ABdwSeI5wgBJqqPgyD07WdAsdz+K0Ux7GKd6bZd12WZY/G8ecjQuCN7upbOB9YsTrnHwFmiMw/xrtDC89TFOVcWVFeYlerqYxUcwUExAcjSn/peR7oU2cjPogDwOtEUXwnpRQx9QtaoB4bRfQ3lFLoGbS63Uvtm2VZ/bKi/HIhDRHX866r3VbPV86JJQjym01TO4dQutpNESebywnTDX2UhNE3wtCHpwFei3bLsaBlJoQ8v9UPEE6hahpn6AYngRUnjgWe4zTEnVcqzQWEdU3zJFn+RRRF59q23Yr8AYbIXSBiS+oTdEQW0BDBbe5pqqpe4bpuYijKzD5mstl/OLb9EUppW7lfrXCfVGR/gyzLZ4RhCFyanu62myNJcmgU4Z5Bb2eOFEUB09HtoiheGARBUxY/juP2ruXN7TyGCMeth9BcEAQrWl0WtTEnXT2i6/p3CSEI2QP1casCLzFU0E/meT6R/r1+oJ5KxDb+87rAaPZctyFHYnqDhmE86HneZ6IoAilLsouosYeFnt7e3wS+/5RqisBuq0HN9u9Lliz9p+8HnyqVJsB+lVb2qFEH41Korcs6GCbZXG7qCgges3YvHpB34jjej2y7Ag/WQifnzxZO9vtZIsAMkVkCyH7+JALPUFX1baZpvqZYKi1Jir+fC6xAC0zC8Beu6yJu+idzUCdYk17O8/zbNV0/wvc85E7MQbWtq8BtlyhK//B9DyFZP+7gQ7Zd5aBVNE3rZ6OjIzjYzHuBR8RxnC9MjI+Dh3++DBGMwxBF8XWmZb1L4IVnF4sT83PFiuvSnp6SY9s3I6a/C4Y3hCAcq6rq6THHvTAMArjJ5nQecoVC0fe82zzXBZUnPIGtGtiRDBFgcZCm6z8Jg3AZnXIkNi+GaX6VEnKx7/utwuNaVVX/O97zoyVJepcoigfD6zrXc2SYxlbHdpC8i7ChlsxJHMftx3EccuYa1OTR6dWr17ijCM3aseh7n8ELwk94jutfqH1y5gQrivStICDwQLSr1P4sSRQvFETxFfBstLtgmj2HvVuSxKEgCD8dRRHon5Gf1m5Zms1m7/N9f1U7UQTtVtrJc319/Q87jnul41Rb0XeD2e0toii+ief51fNhfC5btiwkhN7mee6nqtUq9jZWdjMEmCGym034PA8Xm9ZxmqYdJyvKU+xqlZ+rjxXc/IWeHrjL76xpO/x0jsfyXEEQ3qEbxgtFUVxXrVTmrO/N+gm3NiHkn1EUXRdFEaiCk4OGm1QClhNV03+6dTiZNWuOceJgiFTtyudLEyXcNM6nIYKuq2BakSTlZFVTDgl8v6edEKt2xowQEngnNFXdEobhN8Mw/HIbt9hpVWuTrDkvURTtHMM0nl8ulyQYJLMpU/1T1VhRlI0hpd8lQXB9GIbtHr4gFAja4EZ6Yhxy16x1KuXS2QvAmlWHoER71qgAAAsUSURBVDeTyfyAF4TnNSMhmAqzU9QwiuipYRjigNfK4OoEYlx3Hw7PiJXJvqharShzNUdxzD1CQ/JdEhHQPbdLNQyNBnitUg2RrVtHP7SDKatDWBL5AIligZ1MRrfPCoLw9SiKwFjXKjRrehOHwmtvmuZh5XJZbjd0NqmPlmVxNKYPUT+8NSAEOjWd6mStNAzzd77vJdJKd4tLJ78rFHoedF3nk57ntZNfCdX3t2qqdoIoifs4jpMaptZuH2p7G2dZ5gghFCyAX/I8rysK7XbbZM/tuAgwQ2THnZudtWf42EOk7HSO4w7UdH1ZROmU0GHHN5A8D1YdxMkS8PIrivITnucv75BmsxMccWg7TBSlU+I4OkhRlf44iuUAfe/SS1JLwGs69hpTE8Z5veM4EMnDYbPtA1gmk9nXtDI/HtqyGUrN815giNjV6meLxSJC42Z32m6/t0jsPV5RlNdwPL+K53iLUiJ1c0OHOUGekiCIjue5D3Kc+MUoCqFin57N3H4/95rMqf2gLMuH87wwOBlCIoVhZxBNafBIciTwvB2EwT8gCkop/V6HomYIE4MaM1irGsoCsmY92bahGR/tW9L/wSeeeDyR7hgPIv9KlqQHHcc5bjZJ6s2mS1GUfWkcny3y/KGiIOxBaCR3NUeiSOOYKwdh8JAoip+rzVHz+LrtOwZRTegF7UyGyEsmKbDxriSSKbT/mszqSVADX9qp51JV1bWEkPMkSTpqUuiynxAitGuQbDOQEUobOSQk/ydwwmcpR/+3y1HsKcvS78KQgGFxUUoul/ur67qXBUHQruAkvuvQFXmrIAgHSLLcg72tXaKX+iBreS+xqmqhbVcfMAzjK1EUfbtFvtuiYMQaXTgEmCGycFjvbi3hUI9EtSNqCeVIpG4QgmoBSsjz/ANxHN/Ccdy3JxOYH10gEPGRRWzxYTzHHR5z3IGCICzt1LuDTZfj+XGB5/P46DXrOz50YF8xdP1P1Wr1M57ngQayraKq6jpZlr9RrVYRmjUzefzJrO2UypoZPPW/1evAfgFmMCfm45trglPdKlK3NbaEh5ZwHIe1dCSYbCZVsRHHnHjYbtLACM/z98dxDJ56hAJAsXyuCwQ4XyUIwusnP7QHpKl7pzS6SRC4X0URhwPXvV2SMcAjgtBFUGtPZ/JBfoRVKPRsJCS8sFKpwOuwUGW9KIpfppRi/uosbnX6Uawt9A1sYlj70NKZTzE8JPGD7voVYMCq5Wsk5mqkgANlUngzcBhFnlonoTn1Kg+sGSLIm4G1Wn/PEIJYyGazG1zX/TjoZRdqgtpo53kcx32/tp7rZA5P0u7Wft/2JUqLPWl6PfX1AYbCOyepoD7cZS4BDtQvQLjRJPYv4jgOdPGphjH6h705juMiL/J/iWkMkVu8V23rAiWMEfpFCN1DBAEuP5qdw6bvwW1Mz3aPzJyHqf0bTyiK8tCk/tHFHMeB1r2TAqMZ7++rJi8K/ovjOIwl0ZBOqRQChchvu24e995OxsOe3QEQYIbIDjAJu3gXsPHh8Lhn7XCPpLdBWZZ7BFHsF3hxD1mWVF7gJuKYG6WEjPi+v4kQ8vfahwaaI2AHaoPBaM6R3EbZyXFwTWPz3Xdb30VTFOW8KEkrJFHKC6LIEUrKEidsIBFxwzAciaIIrEj/pJTigIJD6cm1D2DTTubzBS6Xzw+VS0VofnxqdHS0uQrif2rDRw39nS5xP51XvtXHLunv9UNi/YMGYwptwNjB4X2hjZDp2OHwgDHDU7KHIAirRUmEyOBSnuP7eJ7vAdElx8UIu9pKCAFNNA6PSITEIQJsRtAimO2hqdl84mANYxyeqv3RV1EUlyuKspzn+UFJlvH3CayRkJCRwPOgTwOqWqz9B6cdTrtZ2JgrhP5AQBRJGfW5w/zhH1DTAoP5YD1r1t+VCLebRpE6fW0BD/z/6Ndc00Kn9Qltok+YI7ynq7BfYZ5EURycVIWXREkocxE3FlI6Gnge3kckoSP8CgKIs2H3wZzAGMEc1ecB/YFhgvWN5Ge0sZjv2UzcsHawljE/WFdpmiAzD9CdnDXq9LlI1qvrNNXXL/oDzGeDO+rA4RlzjksC7OtLeZ5fKor8aky5KEvjU3MehlvDMIRXEsYmCEUQOjsX3yLMO+YV/wAbjK+O0XSspuuETN+r2tm3puNYN3LRDv4dnjvoiLRTT9K7U99/cWGHyyDsc0sVSekVJGGtosgmx4l2HNMRz/c3hUGAdYx9DTlf+Pf53nu72TPZbxYJgU42h0XqImt2F0IAmyA+tPCW1P/BjW39YITNERzkuMHFh7nbTXI+IEPfcUCAtwSbMA5ToITEOPCxxGEC/cbNZrl2iKgfIPC7l04yMb275iFqegOHvJF8oVAFRa7v+9c5joNQrYXJoJ8P5Oa/TuAJjOvzgTnBzScODLhVx7rCzSPmo7M4qbnre33toG84BGHdY02hb1g39f9eqAP43I1s16mpPkfwlkCADR4SzBEMgul7U7vsSLsOMrvuSPDtwXxjX8e7iYsnnIvwHcI/mHfs54u1b+wMyGP/ndIMqe27CDnDu4S9DHsb9uD6N31nGA/r4wIjwAyRBQacNbfbIoAP3nMmD8cftjKZl09SkzalhdyWx6D62WzmB9Vq9b8dx/nDboscGzhDgCHAEGAIMAQYArskAswQ2SWnlQ1qB0YAoURXm1bmpa5jy83yTqbyRnRjs+e5H4uiqBXN4g48ZNY1hgBDgCHAEGAIMAQYAo0IMEOErQqGwMIjgJyZ80VJehMlBCE6DaWWIIn8EihLI1F/PhN3Fx4B1iJDgCHAEGAIMAQYArs9AswQ2e2XAANgkRCAAfI2URRPp5Qi2e/JAvpWSikSqi8AZ38tsXiRusmaZQgwBBgCDAGGAEOAITA/CDBDZH5wZbUyBNpBAImRr5Vk6X08x+8LrRUo9kZR9FAURZfUqEEXmtWonX6zZxgCDAGGAEOAIcAQYAjMGgFmiMwaQlYBQ2BWCIBF7HhVVc+RFeUAgRdGy+XSxycFt6DYOxc0kbPqHPsxQ4AhwBBgCDAEGAIMgflCgBki84Usq5ch0D4CoAh9GcfzZ3JxfDeS2WeI0LVfE3uSIcAQYAgwBBgCDAGGwE6CADNEdpKJYt3cLRCA9gVEwhhn/W4x3WyQDAGGAEOAIcAQ2L0RYIbI7j3/bPQMAYYAQ4AhwBBgCDAEGAIMgUVBgBkiiwI7a5QhwBBgCDAEGAIMAYYAQ4AhsHsjwAyR3Xv+2egZAgwBhgBDgCHAEGAIMAQYAouCADNEFgV21ihDgCHAEGAIMAQYAgwBhgBDYPdGgBkiu/f8s9EzBBgCDAGGAEOAIcAQYAgwBBYFAWaILArsrFGGAEOAIcAQYAgwBBgCDAGGwO6NADNEdu/5Z6NnCDAEGAIMAYYAQ4AhwBBgCCwKAswQWRTYWaMMAYYAQ4AhwBBgCDAEGAIMgd0bAWaI7N7zz0bPEGAIMAQYAgwBhgBDgCHAEFgUBJghsiiws0YZAgwBhgBDgCHAEGAIMAQYArs3AswQ2b3nn42eIcAQYAgwBBgCDAGGAEOAIbAoCDBDZFFgZ40yBBgCDAGGAEOAIcAQYAgwBHZvBJghsnvPPxs9Q4AhwBBgCDAEGAIMAYYAQ2BREGCGyKLAzhplCDAEGAIMAYYAQ4AhwBBgCOzeCDBDZPeefzZ6hgBDgCHAEGAIMAQYAgwBhsCiIMAMkUWBnTXKEGAIMAQYAgwBhgBDgCHAENi9EWCGyO49/2z0DAGGAEOAIcAQYAgwBBgCDIFFQeD/A/yHsYNkRd+SAAAAAElFTkSuQmCC;" parent="1" vertex="1">
          <mxGeometry x="160" y="120" width="89.45" height="30" as="geometry" />
        </mxCell>
        <mxCell id="nrGXE8jUjkfp1Bnuu9g9-3" value="" style="verticalLabelPosition=bottom;html=1;verticalAlign=top;align=center;strokeColor=none;fillColor=#00BEF2;shape=mxgraph.azure.script_file;pointerEvents=1;" parent="1" vertex="1">
          <mxGeometry x="407.36" y="234.87" width="15.27" height="15.13" as="geometry" />
        </mxCell>
        <mxCell id="nrGXE8jUjkfp1Bnuu9g9-4" value="&lt;font style=&quot;font-size: 7px;&quot;&gt;Stored Procedure&lt;/font&gt;" style="text;html=1;align=center;verticalAlign=middle;resizable=0;points=[];autosize=1;strokeColor=none;fillColor=none;" parent="1" vertex="1">
          <mxGeometry x="225.5" y="209.42" width="80" height="30" as="geometry" />
        </mxCell>
        <mxCell id="nrGXE8jUjkfp1Bnuu9g9-5" value="&lt;font style=&quot;font-size: 7px;&quot;&gt;Stored Procedure&lt;/font&gt;" style="text;html=1;align=center;verticalAlign=middle;resizable=0;points=[];autosize=1;strokeColor=none;fillColor=none;" parent="1" vertex="1">
          <mxGeometry x="376" y="209.42" width="80" height="30" as="geometry" />
        </mxCell>
        <mxCell id="nrGXE8jUjkfp1Bnuu9g9-6" value="" style="verticalLabelPosition=bottom;html=1;verticalAlign=top;align=center;strokeColor=none;fillColor=#00BEF2;shape=mxgraph.azure.script_file;pointerEvents=1;" parent="1" vertex="1">
          <mxGeometry x="257.36" y="234.87" width="15.27" height="15.13" as="geometry" />
        </mxCell>
        <mxCell id="nrGXE8jUjkfp1Bnuu9g9-11" value="" style="shape=singleArrow;whiteSpace=wrap;html=1;fillColor=#dae8fc;strokeColor=#6c8ebf;" parent="1" vertex="1">
          <mxGeometry x="322" y="290.28999999999996" width="54" height="19.71" as="geometry" />
        </mxCell>
        <mxCell id="nrGXE8jUjkfp1Bnuu9g9-12" value="" style="shape=singleArrow;whiteSpace=wrap;html=1;fillColor=#dae8fc;strokeColor=#6c8ebf;" parent="1" vertex="1">
          <mxGeometry x="470" y="290.14000000000004" width="50" height="19.71" as="geometry" />
        </mxCell>
        <mxCell id="nrGXE8jUjkfp1Bnuu9g9-13" value="" style="shape=singleArrow;whiteSpace=wrap;html=1;fillColor=#dae8fc;strokeColor=#6c8ebf;" parent="1" vertex="1">
          <mxGeometry x="650" y="290.14000000000004" width="60" height="19.71" as="geometry" />
        </mxCell>
      </root>
    </mxGraphModel>
  </diagram>
</mxfile>
